<svg width="480" height="480" xmlns="http://www.w3.org/2000/svg" xmlns:xlink="http://www.w3.org/1999/xlink" overflow="hidden"><defs><clipPath id="clip0"><rect x="0" y="0" width="480" height="480"/></clipPath></defs><g clip-path="url(#clip0)"><path d="M270 373 210 373C207.791 373 206 371.209 206 369 206 366.791 207.791 365 210 365L270 365C272.209 365 274 366.791 274 369 274 371.209 272.209 373 270 373Z" fill="#505050"/><path d="M270 386 210 386C207.791 386 206 384.209 206 382 206 379.791 207.791 378 210 378L270 378C272.209 378 274 379.791 274 382 274 384.209 272.209 386 270 386Z" fill="#505050"/><path d="M270 399 210 399C207.791 399 206 397.209 206 395 206 392.791 207.791 391 210 391L270 391C272.209 391 274 392.791 274 395 274 397.209 272.209 399 270 399Z" fill="#505050"/><path d="M250 412 230 412C227.791 412 226 410.209 226 408 226 405.791 227.791 404 230 404L250 404C252.209 404 254 405.791 254 408 254 410.209 252.209 412 250 412Z" fill="#505050"/><path d="M326 237C326 188.812 286.367 149.881 237.921 151.025 190.953 152.133 153.241 191.466 154.012 238.441 154.404 262.325 164.535 283.838 180.606 299.186 199.672 317.396 210 331.927 210 358.293L210 360 270 360 270 357.087C270 331.238 280.262 317.262 299.052 299.51 315.645 283.835 326 261.629 326 237Z" fill="#FFC000"/><path d="M184.137 206.342C183.627 206.342 183.111 206.212 182.638 205.938 181.203 205.108 180.713 203.273 181.543 201.839 194.376 179.657 218.249 165.878 243.848 165.878 245.505 165.878 246.848 167.221 246.848 168.878 246.848 170.535 245.505 171.878 243.848 171.878 220.384 171.878 198.5 184.51 186.737 204.844 186.181 205.805 185.173 206.342 184.137 206.342Z" fill="#FFFFFF"/><path d="M174.918 240.808C173.261 240.808 171.918 239.465 171.918 237.808 171.918 231.539 172.726 225.316 174.319 219.313 174.744 217.711 176.385 216.755 177.988 217.183 179.59 217.608 180.543 219.25 180.118 220.852 178.658 226.353 177.918 232.059 177.918 237.808 177.918 239.464 176.575 240.808 174.918 240.808Z" fill="#FFFFFF"/><path d="M265 258C255.626 258 248 265.626 248 275L248 286.095 232 286.095 232 275C232 265.626 224.374 258 215 258 205.626 258 198 265.626 198 275 198 284.374 205.626 292 215 292L226 292 226 360.2 232 360.2 232 292.095 248 292.095 248 360.2 254 360.2 254 292 265 292C274.374 292 282 284.374 282 275 282 265.626 274.374 258 265 258ZM204 275C204 268.935 208.935 264 215 264 221.065 264 226 268.935 226 275L226 286 215 286C208.935 286 204 281.065 204 275ZM265 286 254 286 254 275C254 268.935 258.935 264 265 264 271.065 264 276 268.935 276 275 276 281.065 271.065 286 265 286Z" fill="#FFFFFF"/><path d="M240 113C237.791 113 236 111.209 236 109L236 91C236 88.791 237.791 87 240 87 242.209 87 244 88.791 244 91L244 109C244 111.209 242.209 113 240 113Z" fill="#FFC000"/><path d="M146.662 151.662C145.639 151.662 144.615 151.271 143.834 150.491L131.105 137.763C129.542 136.201 129.542 133.668 131.105 132.106 132.666 130.544 135.199 130.544 136.761 132.106L149.49 144.834C151.053 146.396 151.053 148.929 149.49 150.491 148.71 151.271 147.686 151.662 146.662 151.662Z" fill="#FFC000"/><path d="M108 245 90 245C87.791 245 86 243.209 86 241 86 238.791 87.791 237 90 237L108 237C110.209 237 112 238.791 112 241 112 243.209 110.209 245 108 245Z" fill="#FFC000"/><path d="M133.934 351.066C132.911 351.066 131.887 350.675 131.106 349.895 129.543 348.332 129.543 345.8 131.106 344.238L143.835 331.51C145.396 329.948 147.929 329.948 149.491 331.51 151.054 333.073 151.054 335.605 149.491 337.167L136.762 349.895C135.981 350.675 134.957 351.066 133.934 351.066Z" fill="#FFC000"/><path d="M346.066 351.066C345.043 351.066 344.019 350.675 343.238 349.895L330.509 337.167C328.946 335.605 328.946 333.072 330.509 331.51 332.07 329.948 334.603 329.948 336.165 331.51L348.894 344.238C350.457 345.8 350.457 348.333 348.894 349.895 348.114 350.675 347.09 351.066 346.066 351.066Z" fill="#FFC000"/><path d="M390 245 372 245C369.791 245 368 243.209 368 241 368 238.791 369.791 237 372 237L390 237C392.209 237 394 238.791 394 241 394 243.209 392.209 245 390 245Z" fill="#FFC000"/><path d="M333.338 151.662C332.315 151.662 331.291 151.271 330.51 150.491 328.947 148.928 328.947 146.396 330.51 144.834L343.239 132.106C344.8 130.544 347.333 130.544 348.895 132.106 350.458 133.669 350.458 136.201 348.895 137.763L336.166 150.491C335.386 151.271 334.361 151.662 333.338 151.662Z" fill="#FFC000"/></g></svg>