<svg width="624" height="624" xmlns="http://www.w3.org/2000/svg" xmlns:xlink="http://www.w3.org/1999/xlink" overflow="hidden"><defs><clipPath id="clip0"><rect x="0" y="0" width="624" height="624"/></clipPath></defs><g clip-path="url(#clip0)"><path d="M52.8619 306.674 193.854 279.194 230.909 469.311 89.9168 496.791Z" fill="#FFC000"/><path d="M138.014 315.456 281.664 315.456 281.664 509.156 138.014 509.156Z" fill="#F2F2F2"/><path d="M261.189 479.175 158.489 479.175 158.489 478.525 261.189 478.525 261.189 479.175ZM261.189 472.545 158.489 472.545 158.489 473.195 261.189 473.195 261.189 472.545ZM261.189 466.565 158.489 466.565 158.489 467.215 261.189 467.215 261.189 466.565ZM261.189 460.585 158.489 460.585 158.489 461.235 261.189 461.235 261.189 460.585ZM261.189 454.605 158.489 454.605 158.489 455.255 261.189 455.255 261.189 454.605ZM261.189 448.625 158.489 448.625 158.489 449.275 261.189 449.275 261.189 448.625ZM261.189 442.645 158.489 442.645 158.489 443.295 261.189 443.295 261.189 442.645ZM261.189 436.665 158.489 436.665 158.489 437.315 261.189 437.315 261.189 436.665ZM261.189 430.685 158.489 430.685 158.489 431.335 261.189 431.335 261.189 430.685ZM261.189 424.705 158.489 424.705 158.489 425.355 261.189 425.355 261.189 424.705ZM261.189 418.725 158.489 418.725 158.489 419.375 261.189 419.375 261.189 418.725ZM261.189 412.745 158.489 412.745 158.489 413.395 261.189 413.395 261.189 412.745ZM261.189 406.765 158.489 406.765 158.489 407.415 261.189 407.415 261.189 406.765ZM261.189 400.785 158.489 400.785 158.489 401.435 261.189 401.435 261.189 400.785ZM261.189 394.805 158.489 394.805 158.489 395.455 261.189 395.455 261.189 394.805ZM261.189 388.825 158.489 388.825 158.489 389.475 261.189 389.475 261.189 388.825ZM261.189 382.845 158.489 382.845 158.489 383.495 261.189 383.495 261.189 382.845ZM261.189 376.865 158.489 376.865 158.489 377.515 261.189 377.515 261.189 376.865ZM261.189 370.885 158.489 370.885 158.489 371.535 261.189 371.535 261.189 370.885ZM261.189 364.905 158.489 364.905 158.489 365.555 261.189 365.555 261.189 364.905ZM261.189 358.925 158.489 358.925 158.489 359.575 261.189 359.575 261.189 358.925ZM261.189 352.945 158.489 352.945 158.489 353.595 261.189 353.595 261.189 352.945ZM261.189 346.965 158.489 346.965 158.489 347.615 261.189 347.615 261.189 346.965Z" fill="#CFCFCF"/><path d="M574.952 333.089C572.487 327.699 555.582 329.898 530.073 333.868 512.694 336.573 492.996 339.639 491.138 335.773 490.73 334.925 491.102 333.127 495.19 329.38 497.759 327.025 498.582 324.598 497.635 322.165 494.141 313.181 466.603 307.45 453.369 307.45L449.8 307.45 449.8 303.55 428.35 303.55 428.35 312.97 449.8 312.97 449.8 308.75 453.369 308.75C468.239 308.75 493.443 314.971 496.424 322.637 497.167 324.546 496.476 326.437 494.312 328.421 490.452 331.96 489.071 334.474 489.967 336.336 492.09 340.752 506.611 338.835 530.273 335.152 549.611 332.142 571.531 328.731 573.77 333.629 574.415 335.038 573.561 338.096 565.831 344.654 532.646 372.811 539.578 398.076 548.354 430.063 551.076 439.984 553.89 450.243 555.86 461.611 559.993 485.454 549.182 499.117 539.386 506.381 522.488 518.911 497.175 520.93 489.891 517.263 489.143 516.886 488.251 516.266 488.251 515.449L488.251 509.599 490.851 509.599 490.851 493.999 484.351 493.999 484.351 509.599 486.951 509.599 486.951 515.449C486.951 516.266 487.36 517.444 489.307 518.424 491.533 519.545 495.42 520.2 500.255 520.2 511.417 520.2 527.636 516.712 540.16 507.425 550.251 499.944 561.388 485.883 557.142 461.388 555.161 449.959 552.338 439.669 549.608 429.719 545.176 413.564 541.348 399.613 542.643 386.034 544.06 371.186 551.696 358.353 566.673 345.645 573.565 339.797 576.196 335.807 574.952 333.089Z" fill="#CFCFCF"/><path d="M426.18 484.967 297.692 504.741 296.312 495.775 424.8 476.001 438.979 478.393Z" fill="#FFC000"/><path d="M317.201 494.731 395.581 482.669 395.68 483.312 317.3 495.373Z" fill="#FFFFFF"/><path d="M118.349 444.6 56.5155 444.6C53.6146 444.6 51.2629 442.248 51.2629 439.347L51.2629 310.036C51.2629 307.135 53.6146 304.784 56.5155 304.784L118.349 304.784C121.25 304.784 123.601 307.135 123.601 310.036L123.601 439.347C123.601 442.248 121.25 444.6 118.349 444.6Z" fill="#505050"/><path d="M67.1255 378.399C67.1255 380.484 65.4359 382.173 63.3516 382.173 61.2673 382.173 59.5777 380.484 59.5777 378.399 59.5777 376.315 61.2673 374.626 63.3516 374.626 65.4359 374.626 67.1255 376.315 67.1255 378.399Z" fill="#737373"/><path d="M79.3916 378.399C79.3916 380.484 77.702 382.173 75.6177 382.173 73.5335 382.173 71.8438 380.484 71.8438 378.399 71.8438 376.315 73.5335 374.626 75.6177 374.626 77.702 374.626 79.3916 376.315 79.3916 378.399Z" fill="#737373"/><path d="M65.1456 357.553C65.1456 358.942 64.0191 360.069 62.6294 360.069 61.2398 360.069 60.1133 358.942 60.1133 357.553 60.1133 356.163 61.2398 355.036 62.6294 355.036 64.0191 355.036 65.1456 356.163 65.1456 357.553Z" fill="#CFCFCF"/><path d="M77.4118 357.553C77.4118 358.942 76.2852 360.069 74.8956 360.069 73.506 360.069 72.3794 358.942 72.3794 357.553 72.3794 356.163 73.506 355.036 74.8956 355.036 76.2852 355.036 77.4118 356.163 77.4118 357.553Z" fill="#737373"/><path d="M91.6578 378.399C91.6578 380.484 89.9682 382.173 87.8839 382.173 85.7996 382.173 84.11 380.484 84.11 378.399 84.11 376.315 85.7996 374.626 87.8839 374.626 89.9682 374.626 91.6578 376.315 91.6578 378.399Z" fill="#737373"/><path d="M103.924 378.399C103.924 380.484 102.234 382.173 100.15 382.173 98.0658 382.173 96.3761 380.484 96.3761 378.399 96.3761 376.315 98.0658 374.626 100.15 374.626 102.234 374.626 103.924 376.315 103.924 378.399Z" fill="#737373"/><path d="M116.19 378.399C116.19 380.484 114.5 382.173 112.416 382.173 110.332 382.173 108.642 380.484 108.642 378.399 108.642 376.315 110.332 374.626 112.416 374.626 114.5 374.626 116.19 376.315 116.19 378.399Z" fill="#737373"/><path d="M67.1255 390.351C67.1255 392.435 65.4359 394.125 63.3516 394.125 61.2673 394.125 59.5777 392.435 59.5777 390.351 59.5777 388.267 61.2673 386.577 63.3516 386.577 65.4359 386.577 67.1255 388.267 67.1255 390.351Z" fill="#CFCFCF"/><path d="M79.3916 390.351C79.3916 392.435 77.702 394.125 75.6177 394.125 73.5335 394.125 71.8438 392.435 71.8438 390.351 71.8438 388.267 73.5335 386.577 75.6177 386.577 77.702 386.577 79.3916 388.267 79.3916 390.351Z" fill="#737373"/><path d="M91.6578 390.351C91.6578 392.435 89.9682 394.125 87.8839 394.125 85.7996 394.125 84.11 392.435 84.11 390.351 84.11 388.267 85.7996 386.577 87.8839 386.577 89.9682 386.577 91.6578 388.267 91.6578 390.351Z" fill="#737373"/><path d="M103.924 390.351C103.924 392.435 102.234 394.125 100.15 394.125 98.0658 394.125 96.3761 392.435 96.3761 390.351 96.3761 388.267 98.0658 386.577 100.15 386.577 102.234 386.577 103.924 388.267 103.924 390.351Z" fill="#737373"/><path d="M116.19 390.351C116.19 392.435 114.5 394.125 112.416 394.125 110.332 394.125 108.642 392.435 108.642 390.351 108.642 388.267 110.332 386.577 112.416 386.577 114.5 386.577 116.19 388.267 116.19 390.351Z" fill="#CFCFCF"/><path d="M67.1255 402.303C67.1255 404.387 65.4359 406.076 63.3516 406.076 61.2673 406.076 59.5777 404.387 59.5777 402.303 59.5777 400.218 61.2673 398.529 63.3516 398.529 65.4359 398.529 67.1255 400.218 67.1255 402.303Z" fill="#CFCFCF"/><path d="M79.3916 402.303C79.3916 404.387 77.702 406.076 75.6177 406.076 73.5335 406.076 71.8438 404.387 71.8438 402.303 71.8438 400.218 73.5335 398.529 75.6177 398.529 77.702 398.529 79.3916 400.218 79.3916 402.303Z" fill="#737373"/><path d="M91.6578 402.303C91.6578 404.387 89.9682 406.076 87.8839 406.076 85.7996 406.076 84.11 404.387 84.11 402.303 84.11 400.218 85.7996 398.529 87.8839 398.529 89.9682 398.529 91.6578 400.218 91.6578 402.303Z" fill="#737373"/><path d="M103.924 402.303C103.924 404.387 102.234 406.076 100.15 406.076 98.0658 406.076 96.3761 404.387 96.3761 402.303 96.3761 400.218 98.0658 398.529 100.15 398.529 102.234 398.529 103.924 400.218 103.924 402.303Z" fill="#737373"/><path d="M116.19 402.303C116.19 404.387 114.5 406.076 112.416 406.076 110.332 406.076 108.642 404.387 108.642 402.303 108.642 400.218 110.332 398.529 112.416 398.529 114.5 398.529 116.19 400.218 116.19 402.303Z" fill="#CFCFCF"/><path d="M67.1255 414.254C67.1255 416.338 65.4359 418.028 63.3516 418.028 61.2673 418.028 59.5777 416.338 59.5777 414.254 59.5777 412.17 61.2673 410.48 63.3516 410.48 65.4359 410.48 67.1255 412.17 67.1255 414.254Z" fill="#CFCFCF"/><path d="M79.3916 414.254C79.3916 416.338 77.702 418.028 75.6177 418.028 73.5335 418.028 71.8438 416.338 71.8438 414.254 71.8438 412.17 73.5335 410.48 75.6177 410.48 77.702 410.48 79.3916 412.17 79.3916 414.254Z" fill="#737373"/><path d="M91.6578 414.254C91.6578 416.338 89.9682 418.028 87.8839 418.028 85.7996 418.028 84.11 416.338 84.11 414.254 84.11 412.17 85.7996 410.48 87.8839 410.48 89.9682 410.48 91.6578 412.17 91.6578 414.254Z" fill="#737373"/><path d="M103.924 414.254C103.924 416.338 102.234 418.028 100.15 418.028 98.0658 418.028 96.3761 416.338 96.3761 414.254 96.3761 412.17 98.0658 410.48 100.15 410.48 102.234 410.48 103.924 412.17 103.924 414.254Z" fill="#737373"/><path d="M116.19 414.254C116.19 416.338 114.5 418.028 112.416 418.028 110.332 418.028 108.642 416.338 108.642 414.254 108.642 412.17 110.332 410.48 112.416 410.48 114.5 410.48 116.19 412.17 116.19 414.254Z" fill="#CFCFCF"/><path d="M67.1255 426.206C67.1255 428.29 65.4359 429.98 63.3516 429.98 61.2673 429.98 59.5777 428.29 59.5777 426.206 59.5777 424.121 61.2673 422.432 63.3516 422.432 65.4359 422.432 67.1255 424.121 67.1255 426.206Z" fill="#CFCFCF"/><path d="M79.3916 426.206C79.3916 428.29 77.702 429.98 75.6177 429.98 73.5335 429.98 71.8438 428.29 71.8438 426.206 71.8438 424.121 73.5335 422.432 75.6177 422.432 77.702 422.432 79.3916 424.121 79.3916 426.206Z" fill="#737373"/><path d="M91.6578 426.206C91.6578 428.29 89.9682 429.98 87.8839 429.98 85.7996 429.98 84.11 428.29 84.11 426.206 84.11 424.121 85.7996 422.432 87.8839 422.432 89.9682 422.432 91.6578 424.121 91.6578 426.206Z" fill="#CFCFCF"/><path d="M103.924 426.206C103.924 428.29 102.234 429.98 100.15 429.98 98.0658 429.98 96.3761 428.29 96.3761 426.206 96.3761 424.121 98.0658 422.432 100.15 422.432 102.234 422.432 103.924 424.121 103.924 426.206Z" fill="#FFC000"/><path d="M116.19 426.206C116.19 428.29 114.5 429.98 112.416 429.98 110.332 429.98 108.642 428.29 108.642 426.206 108.642 424.121 110.332 422.432 112.416 422.432 114.5 422.432 116.19 424.121 116.19 426.206Z" fill="#CFCFCF"/><path d="M57.7921 324.418 118.179 324.418 118.179 346.154 57.7922 346.154Z" fill="#CFCFCF"/><path d="M57.3651 315.298 72.7109 315.298 72.7109 318.424 57.3651 318.424Z" fill="#CFCFCF"/><path d="M524.19 363.343C524.19 359.757 521.282 356.85 517.696 356.85L458.344 356.85C454.758 356.85 451.851 359.757 451.851 363.343L451.851 490.823C451.851 494.409 454.758 497.316 458.344 497.316L517.696 497.316C521.282 497.316 524.19 494.409 524.19 490.823L524.19 363.343Z" fill="#505050"/><path d="M455.468 364 520.573 364 520.573 489.001 455.468 489.001Z" fill="#E6E6E6"/><path d="M455.468 448.032 455.468 470.722 455.468 489.001 520.573 489.001 520.573 382.927Z" fill="#D2D2D2"/><path d="M504.501 442 470.701 442C469.624 442 468.751 441.127 468.751 440.05 468.751 438.973 469.624 438.1 470.701 438.1L504.501 438.1C505.578 438.1 506.451 438.973 506.451 440.05 506.451 441.127 505.578 442 504.501 442Z" fill="#FFFFFF"/><path d="M504.501 451.1 470.701 451.1C469.624 451.1 468.751 450.227 468.751 449.15 468.751 448.073 469.624 447.2 470.701 447.2L504.501 447.2C505.578 447.2 506.451 448.073 506.451 449.15 506.451 450.227 505.578 451.1 504.501 451.1Z" fill="#FFFFFF"/><path d="M428.35 281.45 436.251 281.45 436.251 299.65 428.35 299.65Z" fill="#737373"/><path d="M423.712 444.6 162.412 444.6C158.105 444.6 154.612 441.108 154.612 436.8L154.612 257.4C154.612 253.092 158.105 249.6 162.412 249.6L423.712 249.6C428.02 249.6 431.512 253.092 431.512 257.4L431.512 436.8C431.512 441.108 428.02 444.6 423.712 444.6Z" fill="#737373"/><path d="M195.562 247 391.212 247 391.212 265.85 195.562 265.85Z" fill="#2F2F2F"/><path d="M335.277 435.5 250.671 435.5C248.452 435.5 246.654 433.701 246.654 431.482L246.654 384.918C246.654 382.699 248.452 380.9 250.671 380.9L335.277 380.9C337.496 380.9 339.295 382.699 339.295 384.918L339.295 431.482C339.295 433.701 337.496 435.5 335.277 435.5Z" fill="#505050"/><path d="M413.462 372.45 173.253 372.351C170.542 372.349 168.344 370.151 168.344 367.44L168.344 269.158C168.344 266.445 170.544 264.247 173.257 264.248L413.466 264.347C416.177 264.348 418.374 266.547 418.374 269.258L418.374 367.54C418.374 370.252 416.175 372.451 413.462 372.45Z" fill="#505050"/><path d="M195.648 280.334 175.587 280.334C174.711 280.334 174 281.044 174 281.921L174 293.026C174 293.902 174.711 294.612 175.587 294.612L195.648 294.612C196.524 294.612 197.235 293.902 197.235 293.026L197.235 281.921C197.234 281.044 196.524 280.334 195.648 280.334Z" fill="#2F2F2F"/><path d="M200.224 293.026 200.224 281.921C200.224 281.044 200.934 280.334 201.811 280.334L212.916 280.334C213.792 280.334 214.503 281.044 214.503 281.921L214.503 293.026C214.503 293.902 213.792 294.612 212.916 294.612L201.811 294.612C200.934 294.612 200.224 293.902 200.224 293.026Z" fill="#2F2F2F"/><path d="M217.492 293.026 217.492 281.921C217.492 281.044 218.202 280.334 219.079 280.334L230.184 280.334C231.06 280.334 231.77 281.044 231.77 281.921L231.77 293.026C231.77 293.902 231.06 294.612 230.184 294.612L219.079 294.612C218.202 294.612 217.492 293.902 217.492 293.026Z" fill="#2F2F2F"/><path d="M234.76 293.026 234.76 281.921C234.76 281.044 235.471 280.334 236.347 280.334L247.452 280.334C248.329 280.334 249.039 281.044 249.039 281.921L249.039 293.026C249.039 293.902 248.329 294.612 247.452 294.612L236.346 294.612C235.47 294.612 234.76 293.902 234.76 293.026Z" fill="#2F2F2F"/><path d="M252.028 293.026 252.028 281.921C252.028 281.044 252.739 280.334 253.615 280.334L264.72 280.334C265.596 280.334 266.307 281.044 266.307 281.921L266.307 293.026C266.307 293.902 265.596 294.612 264.72 294.612L253.615 294.612C252.739 294.612 252.028 293.902 252.028 293.026Z" fill="#2F2F2F"/><path d="M269.296 293.026 269.296 281.921C269.296 281.044 270.007 280.334 270.883 280.334L281.988 280.334C282.864 280.334 283.575 281.044 283.575 281.921L283.575 293.026C283.575 293.902 282.864 294.612 281.988 294.612L270.883 294.612C270.007 294.612 269.296 293.902 269.296 293.026Z" fill="#2F2F2F"/><path d="M286.564 293.026 286.564 281.921C286.564 281.044 287.275 280.334 288.151 280.334L299.256 280.334C300.132 280.334 300.843 281.044 300.843 281.921L300.843 293.026C300.843 293.902 300.132 294.612 299.256 294.612L288.151 294.612C287.275 294.612 286.564 293.902 286.564 293.026Z" fill="#2F2F2F"/><path d="M303.832 293.026 303.832 281.921C303.832 281.044 304.543 280.334 305.419 280.334L316.524 280.334C317.4 280.334 318.111 281.044 318.111 281.921L318.111 293.026C318.111 293.902 317.4 294.612 316.524 294.612L305.419 294.612C304.543 294.612 303.832 293.902 303.832 293.026Z" fill="#2F2F2F"/><path d="M321.101 293.026 321.101 281.921C321.101 281.044 321.811 280.334 322.687 280.334L333.793 280.334C334.669 280.334 335.379 281.044 335.379 281.921L335.379 293.026C335.379 293.902 334.669 294.612 333.793 294.612L322.687 294.612C321.81 294.612 321.101 293.902 321.101 293.026Z" fill="#2F2F2F"/><path d="M338.369 293.026 338.369 281.921C338.369 281.044 339.079 280.334 339.955 280.334L351.06 280.334C351.937 280.334 352.647 281.044 352.647 281.921L352.647 293.026C352.647 293.902 351.937 294.612 351.06 294.612L339.955 294.612C339.078 294.612 338.369 293.902 338.369 293.026Z" fill="#2F2F2F"/><path d="M355.636 293.026 355.636 281.921C355.636 281.044 356.347 280.334 357.223 280.334L368.328 280.334C369.205 280.334 369.915 281.044 369.915 281.921L369.915 293.026C369.915 293.902 369.205 294.612 368.328 294.612L357.223 294.612C356.347 294.612 355.636 293.902 355.636 293.026Z" fill="#2F2F2F"/><path d="M372.904 293.026 372.904 281.921C372.904 281.044 373.615 280.334 374.491 280.334L385.596 280.334C386.472 280.334 387.183 281.044 387.183 281.921L387.183 293.026C387.183 293.902 386.472 294.612 385.596 294.612L374.491 294.612C373.615 294.612 372.904 293.902 372.904 293.026Z" fill="#2F2F2F"/><path d="M186.692 312.857 175.587 312.857C174.711 312.857 174 312.146 174 311.27L174 300.165C174 299.289 174.711 298.578 175.587 298.578L186.692 298.578C187.569 298.578 188.279 299.289 188.279 300.165L188.279 311.27C188.278 312.146 187.568 312.857 186.692 312.857Z" fill="#2F2F2F"/><path d="M191.268 311.27 191.268 300.165C191.268 299.289 191.979 298.578 192.855 298.578L203.96 298.578C204.836 298.578 205.547 299.289 205.547 300.165L205.547 311.27C205.547 312.146 204.836 312.857 203.96 312.857L192.855 312.857C191.979 312.857 191.268 312.146 191.268 311.27Z" fill="#2F2F2F"/><path d="M208.536 311.27 208.536 300.165C208.536 299.289 209.247 298.578 210.123 298.578L221.228 298.578C222.104 298.578 222.815 299.289 222.815 300.165L222.815 311.27C222.815 312.146 222.104 312.857 221.228 312.857L210.123 312.857C209.247 312.857 208.536 312.146 208.536 311.27Z" fill="#2F2F2F"/><path d="M225.804 311.27 225.804 300.165C225.804 299.289 226.515 298.578 227.391 298.578L238.496 298.578C239.372 298.578 240.083 299.289 240.083 300.165L240.083 311.27C240.083 312.146 239.372 312.857 238.496 312.857L227.391 312.857C226.515 312.857 225.804 312.146 225.804 311.27Z" fill="#2F2F2F"/><path d="M243.073 311.27 243.073 300.165C243.073 299.289 243.783 298.578 244.659 298.578L255.765 298.578C256.641 298.578 257.351 299.289 257.351 300.165L257.351 311.27C257.351 312.146 256.641 312.857 255.765 312.857L244.659 312.857C243.782 312.857 243.073 312.146 243.073 311.27Z" fill="#2F2F2F"/><path d="M260.341 311.27 260.341 300.165C260.341 299.289 261.051 298.578 261.927 298.578L273.032 298.578C273.909 298.578 274.619 299.289 274.619 300.165L274.619 311.27C274.619 312.146 273.909 312.857 273.032 312.857L261.927 312.857C261.051 312.857 260.341 312.146 260.341 311.27Z" fill="#2F2F2F"/><path d="M277.608 311.27 277.608 300.165C277.608 299.289 278.319 298.578 279.195 298.578L290.3 298.578C291.177 298.578 291.887 299.289 291.887 300.165L291.887 311.27C291.887 312.146 291.177 312.857 290.3 312.857L279.195 312.857C278.319 312.857 277.608 312.146 277.608 311.27Z" fill="#2F2F2F"/><path d="M294.876 311.27 294.876 300.165C294.876 299.289 295.587 298.578 296.463 298.578L307.568 298.578C308.444 298.578 309.155 299.289 309.155 300.165L309.155 311.27C309.155 312.146 308.444 312.857 307.568 312.857L296.463 312.857C295.587 312.857 294.876 312.146 294.876 311.27Z" fill="#2F2F2F"/><path d="M312.144 311.27 312.144 300.165C312.144 299.289 312.855 298.578 313.731 298.578L324.836 298.578C325.712 298.578 326.423 299.289 326.423 300.165L326.423 311.27C326.423 312.146 325.712 312.857 324.836 312.857L313.731 312.857C312.855 312.857 312.144 312.146 312.144 311.27Z" fill="#2F2F2F"/><path d="M329.413 311.27 329.413 300.165C329.413 299.289 330.123 298.578 330.999 298.578L342.105 298.578C342.981 298.578 343.691 299.289 343.691 300.165L343.691 311.27C343.691 312.146 342.981 312.857 342.105 312.857L330.999 312.857C330.123 312.857 329.413 312.146 329.413 311.27Z" fill="#2F2F2F"/><path d="M346.681 311.27 346.681 300.165C346.681 299.289 347.391 298.578 348.267 298.578L359.373 298.578C360.249 298.578 360.959 299.289 360.959 300.165L360.959 311.27C360.959 312.146 360.249 312.857 359.373 312.857L348.267 312.857C347.391 312.857 346.681 312.146 346.681 311.27Z" fill="#2F2F2F"/><path d="M363.949 311.27 363.949 300.165C363.949 299.289 364.659 298.578 365.535 298.578L376.641 298.578C377.517 298.578 378.227 299.289 378.227 300.165L378.227 311.27C378.227 312.146 377.517 312.857 376.641 312.857L365.535 312.857C364.659 312.857 363.949 312.146 363.949 311.27Z" fill="#2F2F2F"/><path d="M381.217 311.27 381.217 300.165C381.217 299.289 381.927 298.578 382.803 298.578L393.908 298.578C394.785 298.578 395.495 299.289 395.495 300.165L395.495 311.27C395.495 312.146 394.785 312.857 393.908 312.857L382.803 312.857C381.927 312.857 381.217 312.146 381.217 311.27Z" fill="#2F2F2F"/><path d="M411.176 312.857 400.071 312.857C399.195 312.857 398.484 312.146 398.484 311.27L398.484 300.165C398.484 299.289 399.195 298.578 400.071 298.578L411.176 298.578C412.053 298.578 412.763 299.289 412.763 300.165L412.763 311.27C412.763 312.146 412.053 312.857 411.176 312.857Z" fill="#2F2F2F"/><path d="M186.692 276.368 175.587 276.368C174.711 276.368 174 275.658 174 274.782L174 270.815C174 269.939 174.711 269.229 175.587 269.229L186.692 269.229C187.569 269.229 188.279 269.939 188.279 270.815L188.279 274.782C188.278 275.658 187.568 276.368 186.692 276.368Z" fill="#2F2F2F"/><path d="M191.268 274.782 191.268 270.815C191.268 269.939 191.979 269.229 192.855 269.229L203.96 269.229C204.836 269.229 205.547 269.939 205.547 270.815L205.547 274.782C205.547 275.658 204.836 276.368 203.96 276.368L192.855 276.368C191.979 276.368 191.268 275.658 191.268 274.782Z" fill="#2F2F2F"/><path d="M208.536 274.782 208.536 270.815C208.536 269.939 209.247 269.229 210.123 269.229L221.228 269.229C222.104 269.229 222.815 269.939 222.815 270.815L222.815 274.782C222.815 275.658 222.104 276.368 221.228 276.368L210.123 276.368C209.247 276.368 208.536 275.658 208.536 274.782Z" fill="#2F2F2F"/><path d="M225.804 274.782 225.804 270.815C225.804 269.939 226.515 269.229 227.391 269.229L238.496 269.229C239.372 269.229 240.083 269.939 240.083 270.815L240.083 274.782C240.083 275.658 239.372 276.368 238.496 276.368L227.391 276.368C226.515 276.368 225.804 275.658 225.804 274.782Z" fill="#2F2F2F"/><path d="M243.073 274.782 243.073 270.815C243.073 269.939 243.783 269.229 244.659 269.229L255.765 269.229C256.641 269.229 257.351 269.939 257.351 270.815L257.351 274.782C257.351 275.658 256.641 276.368 255.765 276.368L244.659 276.368C243.782 276.368 243.073 275.658 243.073 274.782Z" fill="#2F2F2F"/><path d="M260.341 274.782 260.341 270.815C260.341 269.939 261.051 269.229 261.927 269.229L273.032 269.229C273.909 269.229 274.619 269.939 274.619 270.815L274.619 274.782C274.619 275.658 273.909 276.368 273.032 276.368L261.927 276.368C261.051 276.368 260.341 275.658 260.341 274.782Z" fill="#2F2F2F"/><path d="M277.608 274.782 277.608 270.815C277.608 269.939 278.319 269.229 279.195 269.229L290.3 269.229C291.177 269.229 291.887 269.939 291.887 270.815L291.887 274.782C291.887 275.658 291.177 276.368 290.3 276.368L279.195 276.368C278.319 276.368 277.608 275.658 277.608 274.782Z" fill="#2F2F2F"/><path d="M294.876 274.782 294.876 270.815C294.876 269.939 295.587 269.229 296.463 269.229L307.568 269.229C308.444 269.229 309.155 269.939 309.155 270.815L309.155 274.782C309.155 275.658 308.444 276.368 307.568 276.368L296.463 276.368C295.587 276.368 294.876 275.658 294.876 274.782Z" fill="#2F2F2F"/><path d="M312.144 274.782 312.144 270.815C312.144 269.939 312.855 269.229 313.731 269.229L324.836 269.229C325.712 269.229 326.423 269.939 326.423 270.815L326.423 274.782C326.423 275.658 325.712 276.368 324.836 276.368L313.731 276.368C312.855 276.368 312.144 275.658 312.144 274.782Z" fill="#2F2F2F"/><path d="M329.413 274.782 329.413 270.815C329.413 269.939 330.123 269.229 330.999 269.229L342.105 269.229C342.981 269.229 343.691 269.939 343.691 270.815L343.691 274.782C343.691 275.658 342.981 276.368 342.105 276.368L330.999 276.368C330.123 276.368 329.413 275.658 329.413 274.782Z" fill="#2F2F2F"/><path d="M346.681 274.782 346.681 270.815C346.681 269.939 347.391 269.229 348.267 269.229L359.373 269.229C360.249 269.229 360.959 269.939 360.959 270.815L360.959 274.782C360.959 275.658 360.249 276.368 359.373 276.368L348.267 276.368C347.391 276.368 346.681 275.658 346.681 274.782Z" fill="#2F2F2F"/><path d="M363.949 274.782 363.949 270.815C363.949 269.939 364.659 269.229 365.535 269.229L376.641 269.229C377.517 269.229 378.227 269.939 378.227 270.815L378.227 274.782C378.227 275.658 377.517 276.368 376.641 276.368L365.535 276.368C364.659 276.368 363.949 275.658 363.949 274.782Z" fill="#2F2F2F"/><path d="M381.217 274.782 381.217 270.815C381.217 269.939 381.927 269.229 382.803 269.229L393.908 269.229C394.785 269.229 395.495 269.939 395.495 270.815L395.495 274.782C395.495 275.658 394.785 276.368 393.908 276.368L382.803 276.368C381.927 276.368 381.217 275.658 381.217 274.782Z" fill="#2F2F2F"/><path d="M411.176 276.368 400.071 276.368C399.195 276.368 398.484 275.658 398.484 274.782L398.484 270.815C398.484 269.939 399.195 269.229 400.071 269.229L411.176 269.229C412.053 269.229 412.763 269.939 412.763 270.815L412.763 274.782C412.763 275.658 412.053 276.368 411.176 276.368Z" fill="#2F2F2F"/><path d="M195.648 316.823 175.587 316.823C174.711 316.823 174 317.533 174 318.41L174 329.515C174 330.391 174.711 331.102 175.587 331.102L195.648 331.102C196.524 331.102 197.235 330.391 197.235 329.515L197.235 318.409C197.234 317.533 196.524 316.823 195.648 316.823Z" fill="#2F2F2F"/><path d="M411.406 316.823 391.345 316.823C390.469 316.823 389.759 317.533 389.759 318.41L389.759 329.515C389.759 330.391 390.469 331.102 391.345 331.102L411.406 331.102C412.283 331.102 412.993 330.391 412.993 329.515L412.993 318.409C412.993 317.533 412.283 316.823 411.406 316.823Z" fill="#2F2F2F"/><path d="M411.406 280.334 391.345 280.334C390.469 280.334 389.759 281.044 389.759 281.921L389.759 293.026C389.759 293.902 390.469 294.612 391.345 294.612L411.406 294.612C412.283 294.612 412.993 293.902 412.993 293.026L412.993 281.921C412.993 281.044 412.283 280.334 411.406 280.334Z" fill="#2F2F2F"/><path d="M200.224 329.514 200.224 318.409C200.224 317.533 200.934 316.822 201.811 316.822L212.916 316.822C213.792 316.822 214.503 317.533 214.503 318.409L214.503 329.514C214.503 330.39 213.792 331.101 212.916 331.101L201.811 331.101C200.934 331.101 200.224 330.39 200.224 329.514Z" fill="#2F2F2F"/><path d="M217.492 329.514 217.492 318.409C217.492 317.533 218.202 316.822 219.079 316.822L230.184 316.822C231.06 316.822 231.77 317.533 231.77 318.409L231.77 329.514C231.77 330.39 231.06 331.101 230.184 331.101L219.079 331.101C218.202 331.101 217.492 330.39 217.492 329.514Z" fill="#2F2F2F"/><path d="M234.76 329.514 234.76 318.409C234.76 317.533 235.471 316.822 236.347 316.822L247.452 316.822C248.329 316.822 249.039 317.533 249.039 318.409L249.039 329.514C249.039 330.39 248.329 331.101 247.452 331.101L236.346 331.101C235.47 331.101 234.76 330.39 234.76 329.514Z" fill="#2F2F2F"/><path d="M252.028 329.514 252.028 318.409C252.028 317.533 252.739 316.822 253.615 316.822L264.72 316.822C265.596 316.822 266.307 317.533 266.307 318.409L266.307 329.514C266.307 330.39 265.596 331.101 264.72 331.101L253.615 331.101C252.739 331.101 252.028 330.39 252.028 329.514Z" fill="#2F2F2F"/><path d="M269.296 329.514 269.296 318.409C269.296 317.533 270.007 316.822 270.883 316.822L281.988 316.822C282.864 316.822 283.575 317.533 283.575 318.409L283.575 329.514C283.575 330.39 282.864 331.101 281.988 331.101L270.883 331.101C270.007 331.101 269.296 330.39 269.296 329.514Z" fill="#2F2F2F"/><path d="M286.564 329.514 286.564 318.409C286.564 317.533 287.275 316.822 288.151 316.822L299.256 316.822C300.132 316.822 300.843 317.533 300.843 318.409L300.843 329.514C300.843 330.39 300.132 331.101 299.256 331.101L288.151 331.101C287.275 331.101 286.564 330.39 286.564 329.514Z" fill="#2F2F2F"/><path d="M303.832 329.514 303.832 318.409C303.832 317.533 304.543 316.822 305.419 316.822L316.524 316.822C317.4 316.822 318.111 317.533 318.111 318.409L318.111 329.514C318.111 330.39 317.4 331.101 316.524 331.101L305.419 331.101C304.543 331.101 303.832 330.39 303.832 329.514Z" fill="#2F2F2F"/><path d="M321.101 329.514 321.101 318.409C321.101 317.533 321.811 316.822 322.687 316.822L333.793 316.822C334.669 316.822 335.379 317.533 335.379 318.409L335.379 329.514C335.379 330.39 334.669 331.101 333.793 331.101L322.687 331.101C321.81 331.101 321.101 330.39 321.101 329.514Z" fill="#2F2F2F"/><path d="M338.369 329.514 338.369 318.409C338.369 317.533 339.079 316.822 339.955 316.822L351.06 316.822C351.937 316.822 352.647 317.533 352.647 318.409L352.647 329.514C352.647 330.39 351.937 331.101 351.06 331.101L339.955 331.101C339.078 331.101 338.369 330.39 338.369 329.514Z" fill="#2F2F2F"/><path d="M355.636 329.514 355.636 318.409C355.636 317.533 356.347 316.822 357.223 316.822L368.328 316.822C369.205 316.822 369.915 317.533 369.915 318.409L369.915 329.514C369.915 330.39 369.205 331.101 368.328 331.101L357.223 331.101C356.347 331.101 355.636 330.39 355.636 329.514Z" fill="#2F2F2F"/><path d="M372.904 329.514 372.904 318.409C372.904 317.533 373.615 316.822 374.491 316.822L385.596 316.822C386.472 316.822 387.183 317.533 387.183 318.409L387.183 329.514C387.183 330.39 386.472 331.101 385.596 331.101L374.491 331.101C373.615 331.101 372.904 330.39 372.904 329.514Z" fill="#2F2F2F"/><path d="M204.097 349.345 175.586 349.345C174.71 349.345 174 348.635 174 347.758L174 336.653C174 335.777 174.71 335.067 175.586 335.067L204.097 335.067C204.974 335.067 205.684 335.777 205.684 336.653L205.684 347.758C205.684 348.635 204.974 349.345 204.097 349.345Z" fill="#2F2F2F"/><path d="M208.536 347.758 208.536 336.653C208.536 335.777 209.247 335.067 210.123 335.067L221.228 335.067C222.104 335.067 222.815 335.777 222.815 336.653L222.815 347.758C222.815 348.635 222.104 349.345 221.228 349.345L210.123 349.345C209.247 349.345 208.536 348.635 208.536 347.758Z" fill="#2F2F2F"/><path d="M225.804 347.758 225.804 336.653C225.804 335.777 226.515 335.067 227.391 335.067L238.496 335.067C239.372 335.067 240.083 335.777 240.083 336.653L240.083 347.758C240.083 348.635 239.372 349.345 238.496 349.345L227.391 349.345C226.515 349.345 225.804 348.635 225.804 347.758Z" fill="#2F2F2F"/><path d="M243.073 347.758 243.073 336.653C243.073 335.777 243.783 335.067 244.659 335.067L255.765 335.067C256.641 335.067 257.351 335.777 257.351 336.653L257.351 347.758C257.351 348.635 256.641 349.345 255.765 349.345L244.659 349.345C243.782 349.345 243.073 348.635 243.073 347.758Z" fill="#2F2F2F"/><path d="M260.341 347.758 260.341 336.653C260.341 335.777 261.051 335.067 261.927 335.067L273.032 335.067C273.909 335.067 274.619 335.777 274.619 336.653L274.619 347.758C274.619 348.635 273.909 349.345 273.032 349.345L261.927 349.345C261.051 349.345 260.341 348.635 260.341 347.758Z" fill="#2F2F2F"/><path d="M277.608 347.758 277.608 336.653C277.608 335.777 278.319 335.067 279.195 335.067L290.3 335.067C291.177 335.067 291.887 335.777 291.887 336.653L291.887 347.758C291.887 348.635 291.177 349.345 290.3 349.345L279.195 349.345C278.319 349.345 277.608 348.635 277.608 347.758Z" fill="#2F2F2F"/><path d="M294.876 347.758 294.876 336.653C294.876 335.777 295.587 335.067 296.463 335.067L307.568 335.067C308.444 335.067 309.155 335.777 309.155 336.653L309.155 347.758C309.155 348.635 308.444 349.345 307.568 349.345L296.463 349.345C295.587 349.345 294.876 348.635 294.876 347.758Z" fill="#2F2F2F"/><path d="M312.144 347.758 312.144 336.653C312.144 335.777 312.855 335.067 313.731 335.067L324.836 335.067C325.712 335.067 326.423 335.777 326.423 336.653L326.423 347.758C326.423 348.635 325.712 349.345 324.836 349.345L313.731 349.345C312.855 349.345 312.144 348.635 312.144 347.758Z" fill="#2F2F2F"/><path d="M329.413 347.758 329.413 336.653C329.413 335.777 330.123 335.067 330.999 335.067L342.105 335.067C342.981 335.067 343.691 335.777 343.691 336.653L343.691 347.758C343.691 348.635 342.981 349.345 342.105 349.345L330.999 349.345C330.123 349.345 329.413 348.635 329.413 347.758Z" fill="#2F2F2F"/><path d="M346.681 347.758 346.681 336.653C346.681 335.777 347.391 335.067 348.267 335.067L359.373 335.067C360.249 335.067 360.959 335.777 360.959 336.653L360.959 347.758C360.959 348.635 360.249 349.345 359.373 349.345L348.267 349.345C347.391 349.345 346.681 348.635 346.681 347.758Z" fill="#2F2F2F"/><path d="M363.949 347.758 363.949 336.653C363.949 335.777 364.659 335.067 365.535 335.067L376.641 335.067C377.517 335.067 378.227 335.777 378.227 336.653L378.227 347.758C378.227 348.635 377.517 349.345 376.641 349.345L365.535 349.345C364.659 349.345 363.949 348.635 363.949 347.758Z" fill="#2F2F2F"/><path d="M381.217 347.758 381.217 336.653C381.836 336.034 382.184 335.686 382.803 335.067L411.13 335.067C411.749 335.686 412.097 336.034 412.716 336.653L412.716 347.758C412.097 348.378 411.749 348.726 411.13 349.345L382.803 349.345C382.184 348.726 381.836 348.379 381.217 347.758Z" fill="#2F2F2F"/><path d="M186.692 367.229 175.587 367.229C174.711 367.229 174 366.518 174 365.642L174 354.537C174 353.66 174.711 352.95 175.587 352.95L186.692 352.95C187.569 352.95 188.279 353.66 188.279 354.537L188.279 365.642C188.278 366.518 187.568 367.229 186.692 367.229Z" fill="#2F2F2F"/><path d="M191.268 365.642 191.268 354.537C191.268 353.66 191.979 352.95 192.855 352.95L203.96 352.95C204.836 352.95 205.547 353.66 205.547 354.537L205.547 365.642C205.547 366.518 204.836 367.229 203.96 367.229L192.855 367.229C191.979 367.229 191.268 366.518 191.268 365.642Z" fill="#2F2F2F"/><path d="M208.536 365.642 208.536 354.537C208.536 353.66 209.247 352.95 210.123 352.95L221.228 352.95C222.104 352.95 222.815 353.66 222.815 354.537L222.815 365.642C222.815 366.518 222.104 367.229 221.228 367.229L210.123 367.229C209.247 367.229 208.536 366.518 208.536 365.642Z" fill="#2F2F2F"/><path d="M225.804 365.642 225.804 354.537C226.68 354.537 227.391 353.826 227.391 352.95L238.496 352.95C238.496 353.826 239.206 354.537 240.083 354.537L240.083 365.642C239.206 365.642 238.496 366.352 238.496 367.229L227.391 367.229C227.391 366.352 226.68 365.642 225.804 365.642Z" fill="#2F2F2F"/><path d="M242.739 365.642 242.739 354.537C242.739 353.66 243.449 352.95 244.325 352.95L342.166 352.95C343.042 352.95 343.752 353.66 343.752 354.537L343.752 365.642C343.752 366.518 343.042 367.229 342.166 367.229L244.325 367.229C243.448 367.229 242.739 366.518 242.739 365.642Z" fill="#2F2F2F"/><path d="M346.681 365.642 346.681 354.537C346.681 353.66 347.391 352.95 348.267 352.95L359.373 352.95C360.249 352.95 360.959 353.66 360.959 354.537L360.959 365.642C360.959 366.518 360.249 367.229 359.373 367.229L348.267 367.229C347.391 367.229 346.681 366.518 346.681 365.642Z" fill="#2F2F2F"/><path d="M364.016 365.642 364.016 354.537C364.016 353.66 364.727 352.95 365.603 352.95L376.708 352.95C377.584 352.95 378.295 353.66 378.295 354.537L378.295 365.642C378.295 366.518 377.584 367.229 376.708 367.229L365.603 367.229C364.727 367.229 364.016 366.518 364.016 365.642Z" fill="#2F2F2F"/><path d="M398.399 365.71 398.399 354.604C398.399 353.728 399.109 353.018 399.985 353.018L411.091 353.018C411.967 353.018 412.677 353.728 412.677 354.604L412.677 365.71C412.677 366.586 411.967 367.296 411.091 367.296L399.985 367.296C399.109 367.296 398.399 366.586 398.399 365.71Z" fill="#2F2F2F"/><path d="M394.258 359.45 383.153 359.45C382.277 359.45 381.566 358.74 381.566 357.863L381.566 354.536C381.566 353.66 382.277 352.949 383.153 352.949L394.258 352.949C395.134 352.949 395.845 353.66 395.845 354.536L395.845 357.863C395.845 358.74 395.134 359.45 394.258 359.45Z" fill="#2F2F2F"/><path d="M394.258 367.25 383.153 367.25C382.277 367.25 381.566 366.54 381.566 365.663L381.566 362.336C381.566 361.46 382.277 360.749 383.153 360.749L394.258 360.749C395.134 360.749 395.845 361.46 395.845 362.336L395.845 365.663C395.845 366.54 395.134 367.25 394.258 367.25Z" fill="#2F2F2F"/><path d="M129.067 127.616 129.067 124.029C129.067 119.166 131.742 114.616 136.699 114.616L449.737 114.616C454.694 114.616 457.369 118.516 457.369 124.029L457.369 128.266 129.067 127.616Z" fill="#CFCFCF"/><path d="M161.79 240.822 260.069 240.822 364.069 136.822 140.479 136.822Z" fill="#F2F2F2"/><path d="M425.156 240.497 445.419 137.147 361.722 137.147 258.372 240.497Z" fill="#E6E6E6"/><path d="M163.218 239.628 142.397 138.016 362.151 138.016 380.016 120.152 379.026 119.844 136.714 119.844C131.752 119.844 128.052 124.416 129.085 129.269L153.452 243.642C154.219 247.242 157.399 249.817 161.081 249.817L250.351 249.817 260.54 239.628 163.218 239.628Z" fill="#2F2F2F"/><path d="M449.721 119.844 379.023 119.844 360.851 138.017 443.139 138.017 423.217 239.628 259.24 239.628 249.051 249.817 425.354 249.817C429.036 249.817 432.216 247.243 432.983 243.642L457.35 129.269C458.384 124.416 454.683 119.844 449.721 119.844Z" fill="#505050"/><path d="M328.187 198.378 260.587 198.378C259.51 198.378 258.637 197.505 258.637 196.428 258.637 195.351 259.51 194.478 260.587 194.478L328.187 194.478C329.264 194.478 330.137 195.351 330.137 196.428 330.137 197.505 329.264 198.378 328.187 198.378Z" fill="#FFFFFF"/></g></svg>