<svg width="624" height="624" xmlns="http://www.w3.org/2000/svg" xmlns:xlink="http://www.w3.org/1999/xlink" overflow="hidden"><defs><clipPath id="clip0"><rect x="0" y="0" width="624" height="624"/></clipPath></defs><g clip-path="url(#clip0)"><path d="M78 117.023 546 117.023 546 507 78 507Z" fill="#D2D2D2"/><path d="M116.675 155.698 116.675 468.348 507.325 468.348 507.325 155.698 116.675 155.698ZM506.675 194.698 468.325 194.698 468.325 156.348 506.675 156.348 506.675 194.698ZM311.675 350.698 273.325 350.698 273.325 312.348 311.675 312.348 311.675 350.698ZM273.325 273.348 311.675 273.348 311.675 311.698 273.325 311.698 273.325 273.348ZM312.325 312.348 350.675 312.348 350.675 350.698 312.325 350.698 312.325 312.348ZM312.325 273.348 350.675 273.348 350.675 311.698 312.325 311.698 312.325 273.348ZM351.325 273.348 389.675 273.348 389.675 311.698 351.325 311.698 351.325 273.348ZM351.325 234.348 389.675 234.348 389.675 272.698 351.325 272.698 351.325 234.348ZM350.675 272.698 312.325 272.698 312.325 234.348 350.675 234.348 350.675 272.698ZM311.675 272.698 273.325 272.698 273.325 234.348 311.675 234.348 311.675 272.698ZM272.675 272.698 234.325 272.698 234.325 234.348 272.675 234.348 272.675 272.698ZM272.675 311.698 234.325 311.698 234.325 273.348 272.675 273.348 272.675 311.698ZM272.675 350.698 234.325 350.698 234.325 312.348 272.675 312.348 272.675 350.698ZM272.675 389.698 234.325 389.698 234.325 351.348 272.675 351.348 272.675 389.698ZM273.325 351.348 311.675 351.348 311.675 389.698 273.325 389.698 273.325 351.348ZM312.325 351.348 350.675 351.348 350.675 389.698 312.325 389.698 312.325 351.348ZM351.325 351.348 389.675 351.348 389.675 389.698 351.325 389.698 351.325 351.348ZM351.325 312.348 389.675 312.348 389.675 350.698 351.325 350.698 351.325 312.348ZM390.325 312.348 428.675 312.348 428.675 350.698 390.325 350.698 390.325 312.348ZM390.325 273.348 428.675 273.348 428.675 311.698 390.325 311.698 390.325 273.348ZM390.325 234.348 428.675 234.348 428.675 272.698 390.325 272.698 390.325 234.348ZM390.325 195.348 428.675 195.348 428.675 233.698 390.325 233.698 390.325 195.348ZM389.675 233.698 351.325 233.698 351.325 195.348 389.675 195.348 389.675 233.698ZM350.675 233.698 312.325 233.698 312.325 195.348 350.675 195.348 350.675 233.698ZM311.675 233.698 273.325 233.698 273.325 195.348 311.675 195.348 311.675 233.698ZM272.675 233.698 234.325 233.698 234.325 195.348 272.675 195.348 272.675 233.698ZM233.675 233.698 195.325 233.698 195.325 195.348 233.675 195.348 233.675 233.698ZM233.675 272.698 195.325 272.698 195.325 234.348 233.675 234.348 233.675 272.698ZM233.675 311.698 195.325 311.698 195.325 273.348 233.675 273.348 233.675 311.698ZM233.675 350.698 195.325 350.698 195.325 312.348 233.675 312.348 233.675 350.698ZM233.675 389.698 195.325 389.698 195.325 351.348 233.675 351.348 233.675 389.698ZM233.675 428.698 195.325 428.698 195.325 390.348 233.675 390.348 233.675 428.698ZM234.325 390.348 272.675 390.348 272.675 428.698 234.325 428.698 234.325 390.348ZM273.325 390.348 311.675 390.348 311.675 428.698 273.325 428.698 273.325 390.348ZM312.325 390.348 350.675 390.348 350.675 428.698 312.325 428.698 312.325 390.348ZM351.325 390.348 389.675 390.348 389.675 428.698 351.325 428.698 351.325 390.348ZM390.325 390.348 428.675 390.348 428.675 428.698 390.325 428.698 390.325 390.348ZM390.325 351.348 428.675 351.348 428.675 389.698 390.325 389.698 390.325 351.348ZM429.325 351.348 467.675 351.348 467.675 389.698 429.325 389.698 429.325 351.348ZM429.325 312.348 467.675 312.348 467.675 350.698 429.325 350.698 429.325 312.348ZM429.325 273.348 467.675 273.348 467.675 311.698 429.325 311.698 429.325 273.348ZM429.325 234.348 467.675 234.348 467.675 272.698 429.325 272.698 429.325 234.348ZM429.325 195.348 467.675 195.348 467.675 233.698 429.325 233.698 429.325 195.348ZM429.325 156.348 467.675 156.348 467.675 194.698 429.325 194.698 429.325 156.348ZM428.675 194.698 390.325 194.698 390.325 156.348 428.675 156.348 428.675 194.698ZM389.675 194.698 351.325 194.698 351.325 156.348 389.675 156.348 389.675 194.698ZM350.675 194.698 312.325 194.698 312.325 156.348 350.675 156.348 350.675 194.698ZM311.675 194.698 273.325 194.698 273.325 156.348 311.675 156.348 311.675 194.698ZM272.675 194.698 234.325 194.698 234.325 156.348 272.675 156.348 272.675 194.698ZM233.675 194.698 195.325 194.698 195.325 156.348 233.675 156.348 233.675 194.698ZM194.675 194.698 156.325 194.698 156.325 156.348 194.675 156.348 194.675 194.698ZM194.675 233.698 156.325 233.698 156.325 195.348 194.675 195.348 194.675 233.698ZM194.675 272.698 156.325 272.698 156.325 234.348 194.675 234.348 194.675 272.698ZM194.675 311.698 156.325 311.698 156.325 273.348 194.675 273.348 194.675 311.698ZM194.675 350.698 156.325 350.698 156.325 312.348 194.675 312.348 194.675 350.698ZM194.675 389.698 156.325 389.698 156.325 351.348 194.675 351.348 194.675 389.698ZM194.675 428.698 156.325 428.698 156.325 390.348 194.675 390.348 194.675 428.698ZM194.675 467.698 156.325 467.698 156.325 429.348 194.675 429.348 194.675 467.698ZM195.325 429.348 233.675 429.348 233.675 467.698 195.325 467.698 195.325 429.348ZM234.325 429.348 272.675 429.348 272.675 467.698 234.325 467.698 234.325 429.348ZM273.325 429.348 311.675 429.348 311.675 467.698 273.325 467.698 273.325 429.348ZM312.325 429.348 350.675 429.348 350.675 467.698 312.325 467.698 312.325 429.348ZM351.325 429.348 389.675 429.348 389.675 467.698 351.325 467.698 351.325 429.348ZM390.325 429.348 428.675 429.348 428.675 467.698 390.325 467.698 390.325 429.348ZM429.325 429.348 467.675 429.348 467.675 467.698 429.325 467.698 429.325 429.348ZM429.325 390.348 467.675 390.348 467.675 428.698 429.325 428.698 429.325 390.348ZM468.325 390.348 506.675 390.348 506.675 428.698 468.325 428.698 468.325 390.348ZM468.325 351.348 506.675 351.348 506.675 389.698 468.325 389.698 468.325 351.348ZM468.325 312.348 506.675 312.348 506.675 350.698 468.325 350.698 468.325 312.348ZM468.325 273.348 506.675 273.348 506.675 311.698 468.325 311.698 468.325 273.348ZM468.325 234.348 506.675 234.348 506.675 272.698 468.325 272.698 468.325 234.348ZM468.325 195.348 506.675 195.348 506.675 233.698 468.325 233.698 468.325 195.348ZM117.325 156.348 155.675 156.348 155.675 194.698 117.325 194.698 117.325 156.348ZM117.325 195.348 155.675 195.348 155.675 233.698 117.325 233.698 117.325 195.348ZM117.325 234.348 155.675 234.348 155.675 272.698 117.325 272.698 117.325 234.348ZM117.325 273.348 155.675 273.348 155.675 311.698 117.325 311.698 117.325 273.348ZM117.325 312.348 155.675 312.348 155.675 350.698 117.325 350.698 117.325 312.348ZM117.325 351.348 155.675 351.348 155.675 389.698 117.325 389.698 117.325 351.348ZM117.325 390.348 155.675 390.348 155.675 428.698 117.325 428.698 117.325 390.348ZM117.325 429.348 155.675 429.348 155.675 467.698 117.325 467.698 117.325 429.348ZM468.325 429.348 506.675 429.348 506.675 467.698 468.325 467.698 468.325 429.348Z" fill="#E6E6E6"/><path d="M201.981 303.438 312.289 193.129 461.37 342.211 351.062 452.519Z" fill="#FFC000"/><path d="M313.3 181.085 468 181.085 468 415.085 313.3 415.085Z" fill="#737373"/><path d="M312 178.87 468 178.87 468 412.87 312 412.87Z" fill="#E6E6E6"/><path d="M312 178.87 468 178.87 468 194.47 312 194.47Z" fill="#737373"/><path d="M325.095 217.545 455 217.545 455 218.195 325.095 218.195Z" fill="#D2D2D2"/><path d="M325 225.345 454.905 225.345 454.905 225.995 325 225.995Z" fill="#D2D2D2"/><path d="M325.095 233.145 455 233.145 455 233.795 325.095 233.795Z" fill="#D2D2D2"/><path d="M325 240.945 454.905 240.945 454.905 241.595 325 241.595Z" fill="#D2D2D2"/><path d="M325.095 248.745 455 248.745 455 249.395 325.095 249.395Z" fill="#D2D2D2"/><path d="M325 256.545 454.905 256.545 454.905 257.195 325 257.195Z" fill="#D2D2D2"/><path d="M325.095 264.345 455 264.345 455 264.995 325.095 264.995Z" fill="#D2D2D2"/><path d="M325 272.145 454.905 272.145 454.905 272.795 325 272.795Z" fill="#D2D2D2"/><path d="M325.095 279.945 455 279.945 455 280.595 325.095 280.595Z" fill="#D2D2D2"/><path d="M325 287.745 454.905 287.745 454.905 288.395 325 288.395Z" fill="#D2D2D2"/><path d="M325.095 295.545 455 295.545 455 296.195 325.095 296.195Z" fill="#D2D2D2"/><path d="M325 303.345 454.905 303.345 454.905 303.995 325 303.995Z" fill="#D2D2D2"/><path d="M325.095 311.145 455 311.145 455 311.795 325.095 311.795Z" fill="#D2D2D2"/><path d="M325 318.946 454.905 318.946 454.905 319.596 325 319.596Z" fill="#D2D2D2"/><path d="M325.095 326.746 455 326.746 455 327.396 325.095 327.396Z" fill="#D2D2D2"/><path d="M325 334.546 454.905 334.546 454.905 335.196 325 335.196Z" fill="#D2D2D2"/><path d="M325.095 342.346 455 342.346 455 342.996 325.095 342.996Z" fill="#D2D2D2"/><path d="M325 350.146 454.905 350.146 454.905 350.796 325 350.796Z" fill="#D2D2D2"/><path d="M325.095 357.946 455 357.946 455 358.596 325.095 358.596Z" fill="#D2D2D2"/><path d="M325 365.746 454.905 365.746 454.905 366.396 325 366.396Z" fill="#D2D2D2"/><path d="M325.095 373.546 455 373.546 455 374.196 325.095 374.196Z" fill="#D2D2D2"/><path d="M325 381.346 454.905 381.346 454.905 381.996 325 381.996Z" fill="#D2D2D2"/><path d="M325.095 389.146 455 389.146 455 389.796 325.095 389.796Z" fill="#D2D2D2"/><path d="M339.3 187.2C339.3 189.354 337.554 191.1 335.4 191.1 333.246 191.1 331.5 189.354 331.5 187.2 331.5 185.046 333.246 183.3 335.4 183.3 337.554 183.3 339.3 185.046 339.3 187.2" fill="#505050"/><path d="M448.5 187.2C448.5 189.354 446.754 191.1 444.6 191.1 442.446 191.1 440.7 189.354 440.7 187.2 440.7 185.046 442.446 183.3 444.6 183.3 446.754 183.3 448.5 185.046 448.5 187.2" fill="#505050"/><path d="M352.3 220.085 507 220.085 507 454.085 352.3 454.085Z" fill="#737373"/><path d="M507 451.87 368.55 451.87 351 451.87 351 217.87 507 217.87Z" fill="#FFFFFF"/><path d="M351 217.87 507 217.87 507 233.47 351 233.47Z" fill="#FFC000"/><path d="M363.675 256.545 363.675 428.795 496.925 428.795 496.925 256.545 363.675 256.545ZM426.82 365.746 426.82 358.596 433.97 358.596 433.97 365.746 426.82 365.746ZM433.97 366.396 433.97 373.546 426.82 373.546 426.82 366.396 433.97 366.396ZM433.97 319.596 433.97 326.746 426.82 326.746 426.82 319.596 433.97 319.596ZM426.82 318.946 426.82 311.796 433.97 311.796 433.97 318.946 426.82 318.946ZM426.82 350.146 426.82 342.996 433.97 342.996 433.97 350.146 426.82 350.146ZM433.97 350.796 433.97 357.946 426.82 357.946 426.82 350.796 433.97 350.796ZM426.82 342.346 426.82 335.196 433.97 335.196 433.97 342.346 426.82 342.346ZM426.82 334.546 426.82 327.396 433.97 327.396 433.97 334.546 426.82 334.546ZM426.17 326.746 419.02 326.746 419.02 319.596 426.17 319.596 426.17 326.746ZM426.17 327.396 426.17 334.546 419.02 334.546 419.02 327.396 426.17 327.396ZM426.17 335.196 426.17 342.346 419.02 342.346 419.02 335.196 426.17 335.196ZM426.17 342.996 426.17 350.146 419.02 350.146 419.02 342.996 426.17 342.996ZM426.17 350.796 426.17 357.946 419.02 357.946 419.02 350.796 426.17 350.796ZM426.17 358.596 426.17 365.746 419.02 365.746 419.02 358.596 426.17 358.596ZM434.62 358.596 441.77 358.596 441.77 365.746 434.62 365.746 434.62 358.596ZM434.62 357.946 434.62 350.796 441.77 350.796 441.77 357.946 434.62 357.946ZM434.62 350.146 434.62 342.996 441.77 342.996 441.77 350.146 434.62 350.146ZM434.62 342.346 434.62 335.196 441.77 335.196 441.77 342.346 434.62 342.346ZM434.62 334.546 434.62 327.396 441.77 327.396 441.77 334.546 434.62 334.546ZM434.62 326.746 434.62 319.596 441.77 319.596 441.77 326.746 434.62 326.746ZM434.62 318.946 434.62 311.796 441.77 311.796 441.77 318.946 434.62 318.946ZM434.62 311.145 434.62 303.995 441.77 303.995 441.77 311.145 434.62 311.145ZM433.97 311.145 426.82 311.145 426.82 303.995 433.97 303.995 433.97 311.145ZM426.17 311.145 419.02 311.145 419.02 303.995 426.17 303.995 426.17 311.145ZM426.17 311.795 426.17 318.945 419.02 318.945 419.02 311.795 426.17 311.795ZM418.37 318.946 411.22 318.946 411.22 311.796 418.37 311.796 418.37 318.946ZM418.37 319.596 418.37 326.746 411.22 326.746 411.22 319.596 418.37 319.596ZM418.37 327.396 418.37 334.546 411.22 334.546 411.22 327.396 418.37 327.396ZM418.37 335.196 418.37 342.346 411.22 342.346 411.22 335.196 418.37 335.196ZM418.37 342.996 418.37 350.146 411.22 350.146 411.22 342.996 418.37 342.996ZM418.37 350.796 418.37 357.946 411.22 357.946 411.22 350.796 418.37 350.796ZM418.37 358.596 418.37 365.746 411.22 365.746 411.22 358.596 418.37 358.596ZM418.37 366.396 418.37 373.546 411.22 373.546 411.22 366.396 418.37 366.396ZM419.02 366.396 426.17 366.396 426.17 373.546 419.02 373.546 419.02 366.396ZM426.17 374.196 426.17 381.346 419.02 381.346 419.02 374.196 426.17 374.196ZM426.82 374.196 433.97 374.196 433.97 381.346 426.82 381.346 426.82 374.196ZM434.62 374.196 441.77 374.196 441.77 381.346 434.62 381.346 434.62 374.196ZM434.62 373.546 434.62 366.396 441.77 366.396 441.77 373.546 434.62 373.546ZM442.42 366.396 449.57 366.396 449.57 373.546 442.42 373.546 442.42 366.396ZM442.42 365.746 442.42 358.596 449.57 358.596 449.57 365.746 442.42 365.746ZM442.42 357.946 442.42 350.796 449.57 350.796 449.57 357.946 442.42 357.946ZM442.42 350.146 442.42 342.996 449.57 342.996 449.57 350.146 442.42 350.146ZM442.42 342.346 442.42 335.196 449.57 335.196 449.57 342.346 442.42 342.346ZM442.42 334.546 442.42 327.396 449.57 327.396 449.57 334.546 442.42 334.546ZM442.42 326.746 442.42 319.596 449.57 319.596 449.57 326.746 442.42 326.746ZM442.42 318.946 442.42 311.796 449.57 311.796 449.57 318.946 442.42 318.946ZM442.42 311.145 442.42 303.995 449.57 303.995 449.57 311.145 442.42 311.145ZM442.42 303.345 442.42 296.195 449.57 296.195 449.57 303.345 442.42 303.345ZM441.77 303.345 434.62 303.345 434.62 296.195 441.77 296.195 441.77 303.345ZM433.97 303.345 426.82 303.345 426.82 296.195 433.97 296.195 433.97 303.345ZM426.17 303.345 419.02 303.345 419.02 296.195 426.17 296.195 426.17 303.345ZM418.37 303.345 411.22 303.345 411.22 296.195 418.37 296.195 418.37 303.345ZM418.37 303.995 418.37 311.145 411.22 311.145 411.22 303.995 418.37 303.995ZM410.57 311.145 403.42 311.145 403.42 303.995 410.57 303.995 410.57 311.145ZM410.57 311.795 410.57 318.945 403.42 318.945 403.42 311.795 410.57 311.795ZM410.57 319.596 410.57 326.746 403.42 326.746 403.42 319.596 410.57 319.596ZM410.57 327.396 410.57 334.546 403.42 334.546 403.42 327.396 410.57 327.396ZM410.57 335.196 410.57 342.346 403.42 342.346 403.42 335.196 410.57 335.196ZM410.57 342.996 410.57 350.146 403.42 350.146 403.42 342.996 410.57 342.996ZM410.57 350.796 410.57 357.946 403.42 357.946 403.42 350.796 410.57 350.796ZM410.57 358.596 410.57 365.746 403.42 365.746 403.42 358.596 410.57 358.596ZM410.57 366.396 410.57 373.546 403.42 373.546 403.42 366.396 410.57 366.396ZM410.57 374.196 410.57 381.346 403.42 381.346 403.42 374.196 410.57 374.196ZM411.22 374.196 418.37 374.196 418.37 381.346 411.22 381.346 411.22 374.196ZM418.37 381.996 418.37 389.146 411.22 389.146 411.22 381.996 418.37 381.996ZM419.02 381.996 426.17 381.996 426.17 389.146 419.02 389.146 419.02 381.996ZM426.82 381.996 433.97 381.996 433.97 389.146 426.82 389.146 426.82 381.996ZM434.62 381.996 441.77 381.996 441.77 389.146 434.62 389.146 434.62 381.996ZM442.42 381.996 449.57 381.996 449.57 389.146 442.42 389.146 442.42 381.996ZM442.42 381.346 442.42 374.196 449.57 374.196 449.57 381.346 442.42 381.346ZM450.22 374.196 457.37 374.196 457.37 381.346 450.22 381.346 450.22 374.196ZM450.22 373.546 450.22 366.396 457.37 366.396 457.37 373.546 450.22 373.546ZM450.22 365.746 450.22 358.596 457.37 358.596 457.37 365.746 450.22 365.746ZM450.22 357.946 450.22 350.796 457.37 350.796 457.37 357.946 450.22 357.946ZM450.22 350.146 450.22 342.996 457.37 342.996 457.37 350.146 450.22 350.146ZM450.22 342.346 450.22 335.196 457.37 335.196 457.37 342.346 450.22 342.346ZM450.22 334.546 450.22 327.396 457.37 327.396 457.37 334.546 450.22 334.546ZM450.22 326.746 450.22 319.596 457.37 319.596 457.37 326.746 450.22 326.746ZM450.22 318.946 450.22 311.796 457.37 311.796 457.37 318.946 450.22 318.946ZM450.22 311.145 450.22 303.995 457.37 303.995 457.37 311.145 450.22 311.145ZM450.22 303.345 450.22 296.195 457.37 296.195 457.37 303.345 450.22 303.345ZM450.22 295.545 450.22 288.395 457.37 288.395 457.37 295.545 450.22 295.545ZM449.57 295.545 442.42 295.545 442.42 288.395 449.57 288.395 449.57 295.545ZM441.77 295.545 434.62 295.545 434.62 288.395 441.77 288.395 441.77 295.545ZM433.97 295.545 426.82 295.545 426.82 288.395 433.97 288.395 433.97 295.545ZM426.17 295.545 419.02 295.545 419.02 288.395 426.17 288.395 426.17 295.545ZM418.37 295.545 411.22 295.545 411.22 288.395 418.37 288.395 418.37 295.545ZM410.57 295.545 403.42 295.545 403.42 288.395 410.57 288.395 410.57 295.545ZM410.57 296.195 410.57 303.345 403.42 303.345 403.42 296.195 410.57 296.195ZM402.77 303.345 395.62 303.345 395.62 296.195 402.77 296.195 402.77 303.345ZM402.77 303.995 402.77 311.145 395.62 311.145 395.62 303.995 402.77 303.995ZM402.77 311.795 402.77 318.945 395.62 318.945 395.62 311.795 402.77 311.795ZM402.77 319.596 402.77 326.746 395.62 326.746 395.62 319.596 402.77 319.596ZM402.77 327.396 402.77 334.546 395.62 334.546 395.62 327.396 402.77 327.396ZM402.77 335.196 402.77 342.346 395.62 342.346 395.62 335.196 402.77 335.196ZM402.77 342.996 402.77 350.146 395.62 350.146 395.62 342.996 402.77 342.996ZM402.77 350.796 402.77 357.946 395.62 357.946 395.62 350.796 402.77 350.796ZM402.77 358.596 402.77 365.746 395.62 365.746 395.62 358.596 402.77 358.596ZM402.77 366.396 402.77 373.546 395.62 373.546 395.62 366.396 402.77 366.396ZM402.77 374.196 402.77 381.346 395.62 381.346 395.62 374.196 402.77 374.196ZM402.77 381.996 402.77 389.146 395.62 389.146 395.62 381.996 402.77 381.996ZM403.42 381.996 410.57 381.996 410.57 389.146 403.42 389.146 403.42 381.996ZM410.57 389.796 410.57 396.946 403.42 396.946 403.42 389.796 410.57 389.796ZM411.22 389.796 418.37 389.796 418.37 396.946 411.22 396.946 411.22 389.796ZM419.02 389.796 426.17 389.796 426.17 396.946 419.02 396.946 419.02 389.796ZM426.82 389.796 433.97 389.796 433.97 396.946 426.82 396.946 426.82 389.796ZM434.62 389.796 441.77 389.796 441.77 396.946 434.62 396.946 434.62 389.796ZM442.42 389.796 449.57 389.796 449.57 396.946 442.42 396.946 442.42 389.796ZM450.22 389.796 457.37 389.796 457.37 396.946 450.22 396.946 450.22 389.796ZM450.22 389.146 450.22 381.996 457.37 381.996 457.37 389.146 450.22 389.146ZM458.02 381.996 465.17 381.996 465.17 389.146 458.02 389.146 458.02 381.996ZM458.02 381.346 458.02 374.196 465.17 374.196 465.17 381.346 458.02 381.346ZM458.02 373.546 458.02 366.396 465.17 366.396 465.17 373.546 458.02 373.546ZM458.02 365.746 458.02 358.596 465.17 358.596 465.17 365.746 458.02 365.746ZM458.02 357.946 458.02 350.796 465.17 350.796 465.17 357.946 458.02 357.946ZM458.02 350.146 458.02 342.996 465.17 342.996 465.17 350.146 458.02 350.146ZM458.02 342.346 458.02 335.196 465.17 335.196 465.17 342.346 458.02 342.346ZM458.02 334.546 458.02 327.396 465.17 327.396 465.17 334.546 458.02 334.546ZM458.02 326.746 458.02 319.596 465.17 319.596 465.17 326.746 458.02 326.746ZM458.02 318.946 458.02 311.796 465.17 311.796 465.17 318.946 458.02 318.946ZM458.02 311.145 458.02 303.995 465.17 303.995 465.17 311.145 458.02 311.145ZM458.02 303.345 458.02 296.195 465.17 296.195 465.17 303.345 458.02 303.345ZM458.02 295.545 458.02 288.395 465.17 288.395 465.17 295.545 458.02 295.545ZM458.02 287.745 458.02 280.595 465.17 280.595 465.17 287.745 458.02 287.745ZM457.37 287.745 450.22 287.745 450.22 280.595 457.37 280.595 457.37 287.745ZM449.57 287.745 442.42 287.745 442.42 280.595 449.57 280.595 449.57 287.745ZM441.77 287.745 434.62 287.745 434.62 280.595 441.77 280.595 441.77 287.745ZM433.97 287.745 426.82 287.745 426.82 280.595 433.97 280.595 433.97 287.745ZM426.17 287.745 419.02 287.745 419.02 280.595 426.17 280.595 426.17 287.745ZM418.37 287.745 411.22 287.745 411.22 280.595 418.37 280.595 418.37 287.745ZM410.57 287.745 403.42 287.745 403.42 280.595 410.57 280.595 410.57 287.745ZM402.77 287.745 395.62 287.745 395.62 280.595 402.77 280.595 402.77 287.745ZM402.77 288.395 402.77 295.545 395.62 295.545 395.62 288.395 402.77 288.395ZM394.97 295.545 387.82 295.545 387.82 288.395 394.97 288.395 394.97 295.545ZM394.97 296.195 394.97 303.345 387.82 303.345 387.82 296.195 394.97 296.195ZM394.97 303.995 394.97 311.145 387.82 311.145 387.82 303.995 394.97 303.995ZM394.97 311.795 394.97 318.945 387.82 318.945 387.82 311.795 394.97 311.795ZM394.97 319.596 394.97 326.746 387.82 326.746 387.82 319.596 394.97 319.596ZM394.97 327.396 394.97 334.546 387.82 334.546 387.82 327.396 394.97 327.396ZM394.97 335.196 394.97 342.346 387.82 342.346 387.82 335.196 394.97 335.196ZM394.97 342.996 394.97 350.146 387.82 350.146 387.82 342.996 394.97 342.996ZM394.97 350.796 394.97 357.946 387.82 357.946 387.82 350.796 394.97 350.796ZM394.97 358.596 394.97 365.746 387.82 365.746 387.82 358.596 394.97 358.596ZM394.97 366.396 394.97 373.546 387.82 373.546 387.82 366.396 394.97 366.396ZM394.97 374.196 394.97 381.346 387.82 381.346 387.82 374.196 394.97 374.196ZM394.97 381.996 394.97 389.146 387.82 389.146 387.82 381.996 394.97 381.996ZM394.97 389.796 394.97 396.946 387.82 396.946 387.82 389.796 394.97 389.796ZM395.62 389.796 402.77 389.796 402.77 396.946 395.62 396.946 395.62 389.796ZM402.77 397.596 402.77 404.746 395.62 404.746 395.62 397.596 402.77 397.596ZM403.42 397.596 410.57 397.596 410.57 404.746 403.42 404.746 403.42 397.596ZM411.22 397.596 418.37 397.596 418.37 404.746 411.22 404.746 411.22 397.596ZM419.02 397.596 426.17 397.596 426.17 404.746 419.02 404.746 419.02 397.596ZM426.82 397.596 433.97 397.596 433.97 404.746 426.82 404.746 426.82 397.596ZM434.62 397.596 441.77 397.596 441.77 404.746 434.62 404.746 434.62 397.596ZM442.42 397.596 449.57 397.596 449.57 404.746 442.42 404.746 442.42 397.596ZM450.22 397.596 457.37 397.596 457.37 404.746 450.22 404.746 450.22 397.596ZM458.02 397.596 465.17 397.596 465.17 404.746 458.02 404.746 458.02 397.596ZM458.02 396.946 458.02 389.796 465.17 389.796 465.17 396.946 458.02 396.946ZM465.82 389.796 472.97 389.796 472.97 396.946 465.82 396.946 465.82 389.796ZM465.82 389.146 465.82 381.996 472.97 381.996 472.97 389.146 465.82 389.146ZM465.82 381.346 465.82 374.196 472.97 374.196 472.97 381.346 465.82 381.346ZM465.82 373.546 465.82 366.396 472.97 366.396 472.97 373.546 465.82 373.546ZM465.82 365.746 465.82 358.596 472.97 358.596 472.97 365.746 465.82 365.746ZM465.82 357.946 465.82 350.796 472.97 350.796 472.97 357.946 465.82 357.946ZM465.82 350.146 465.82 342.996 472.97 342.996 472.97 350.146 465.82 350.146ZM465.82 342.346 465.82 335.196 472.97 335.196 472.97 342.346 465.82 342.346ZM465.82 334.546 465.82 327.396 472.97 327.396 472.97 334.546 465.82 334.546ZM465.82 326.746 465.82 319.596 472.97 319.596 472.97 326.746 465.82 326.746ZM465.82 318.946 465.82 311.796 472.97 311.796 472.97 318.946 465.82 318.946ZM465.82 311.145 465.82 303.995 472.97 303.995 472.97 311.145 465.82 311.145ZM465.82 303.345 465.82 296.195 472.97 296.195 472.97 303.345 465.82 303.345ZM465.82 295.545 465.82 288.395 472.97 288.395 472.97 295.545 465.82 295.545ZM465.82 287.745 465.82 280.595 472.97 280.595 472.97 287.745 465.82 287.745ZM465.82 279.945 465.82 272.795 472.97 272.795 472.97 279.945 465.82 279.945ZM465.17 279.945 458.02 279.945 458.02 272.795 465.17 272.795 465.17 279.945ZM457.37 279.945 450.22 279.945 450.22 272.795 457.37 272.795 457.37 279.945ZM449.57 279.945 442.42 279.945 442.42 272.795 449.57 272.795 449.57 279.945ZM441.77 279.945 434.62 279.945 434.62 272.795 441.77 272.795 441.77 279.945ZM433.97 279.945 426.82 279.945 426.82 272.795 433.97 272.795 433.97 279.945ZM426.17 279.945 419.02 279.945 419.02 272.795 426.17 272.795 426.17 279.945ZM418.37 279.945 411.22 279.945 411.22 272.795 418.37 272.795 418.37 279.945ZM410.57 279.945 403.42 279.945 403.42 272.795 410.57 272.795 410.57 279.945ZM402.77 279.945 395.62 279.945 395.62 272.795 402.77 272.795 402.77 279.945ZM394.97 279.945 387.82 279.945 387.82 272.795 394.97 272.795 394.97 279.945ZM394.97 280.595 394.97 287.745 387.82 287.745 387.82 280.595 394.97 280.595ZM387.17 287.745 380.02 287.745 380.02 280.595 387.17 280.595 387.17 287.745ZM387.17 288.395 387.17 295.545 380.02 295.545 380.02 288.395 387.17 288.395ZM387.17 296.195 387.17 303.345 380.02 303.345 380.02 296.195 387.17 296.195ZM387.17 303.995 387.17 311.145 380.02 311.145 380.02 303.995 387.17 303.995ZM387.17 311.795 387.17 318.945 380.02 318.945 380.02 311.795 387.17 311.795ZM387.17 319.596 387.17 326.746 380.02 326.746 380.02 319.596 387.17 319.596ZM387.17 327.396 387.17 334.546 380.02 334.546 380.02 327.396 387.17 327.396ZM387.17 335.196 387.17 342.346 380.02 342.346 380.02 335.196 387.17 335.196ZM387.17 342.996 387.17 350.146 380.02 350.146 380.02 342.996 387.17 342.996ZM387.17 350.796 387.17 357.946 380.02 357.946 380.02 350.796 387.17 350.796ZM387.17 358.596 387.17 365.746 380.02 365.746 380.02 358.596 387.17 358.596ZM387.17 366.396 387.17 373.546 380.02 373.546 380.02 366.396 387.17 366.396ZM387.17 374.196 387.17 381.346 380.02 381.346 380.02 374.196 387.17 374.196ZM387.17 381.996 387.17 389.146 380.02 389.146 380.02 381.996 387.17 381.996ZM387.17 389.796 387.17 396.946 380.02 396.946 380.02 389.796 387.17 389.796ZM387.17 397.596 387.17 404.746 380.02 404.746 380.02 397.596 387.17 397.596ZM387.82 397.596 394.97 397.596 394.97 404.746 387.82 404.746 387.82 397.596ZM394.97 405.396 394.97 412.546 387.82 412.546 387.82 405.396 394.97 405.396ZM395.62 405.396 402.77 405.396 402.77 412.546 395.62 412.546 395.62 405.396ZM403.42 405.396 410.57 405.396 410.57 412.546 403.42 412.546 403.42 405.396ZM411.22 405.396 418.37 405.396 418.37 412.546 411.22 412.546 411.22 405.396ZM419.02 405.396 426.17 405.396 426.17 412.546 419.02 412.546 419.02 405.396ZM426.82 405.396 433.97 405.396 433.97 412.546 426.82 412.546 426.82 405.396ZM434.62 405.396 441.77 405.396 441.77 412.546 434.62 412.546 434.62 405.396ZM442.42 405.396 449.57 405.396 449.57 412.546 442.42 412.546 442.42 405.396ZM450.22 405.396 457.37 405.396 457.37 412.546 450.22 412.546 450.22 405.396ZM458.02 405.396 465.17 405.396 465.17 412.546 458.02 412.546 458.02 405.396ZM465.82 405.396 472.97 405.396 472.97 412.546 465.82 412.546 465.82 405.396ZM465.82 404.746 465.82 397.596 472.97 397.596 472.97 404.746 465.82 404.746ZM473.62 397.596 480.77 397.596 480.77 404.746 473.62 404.746 473.62 397.596ZM473.62 396.946 473.62 389.796 480.77 389.796 480.77 396.946 473.62 396.946ZM473.62 389.146 473.62 381.996 480.77 381.996 480.77 389.146 473.62 389.146ZM473.62 381.346 473.62 374.196 480.77 374.196 480.77 381.346 473.62 381.346ZM473.62 373.546 473.62 366.396 480.77 366.396 480.77 373.546 473.62 373.546ZM473.62 365.746 473.62 358.596 480.77 358.596 480.77 365.746 473.62 365.746ZM473.62 357.946 473.62 350.796 480.77 350.796 480.77 357.946 473.62 357.946ZM473.62 350.146 473.62 342.996 480.77 342.996 480.77 350.146 473.62 350.146ZM473.62 342.346 473.62 335.196 480.77 335.196 480.77 342.346 473.62 342.346ZM473.62 334.546 473.62 327.396 480.77 327.396 480.77 334.546 473.62 334.546ZM473.62 326.746 473.62 319.596 480.77 319.596 480.77 326.746 473.62 326.746ZM473.62 318.946 473.62 311.796 480.77 311.796 480.77 318.946 473.62 318.946ZM473.62 311.145 473.62 303.995 480.77 303.995 480.77 311.145 473.62 311.145ZM473.62 303.345 473.62 296.195 480.77 296.195 480.77 303.345 473.62 303.345ZM473.62 295.545 473.62 288.395 480.77 288.395 480.77 295.545 473.62 295.545ZM473.62 287.745 473.62 280.595 480.77 280.595 480.77 287.745 473.62 287.745ZM473.62 279.945 473.62 272.795 480.77 272.795 480.77 279.945 473.62 279.945ZM473.62 272.145 473.62 264.995 480.77 264.995 480.77 272.145 473.62 272.145ZM472.97 272.145 465.82 272.145 465.82 264.995 472.97 264.995 472.97 272.145ZM465.17 272.145 458.02 272.145 458.02 264.995 465.17 264.995 465.17 272.145ZM457.37 272.145 450.22 272.145 450.22 264.995 457.37 264.995 457.37 272.145ZM449.57 272.145 442.42 272.145 442.42 264.995 449.57 264.995 449.57 272.145ZM441.77 272.145 434.62 272.145 434.62 264.995 441.77 264.995 441.77 272.145ZM433.97 272.145 426.82 272.145 426.82 264.995 433.97 264.995 433.97 272.145ZM426.17 272.145 419.02 272.145 419.02 264.995 426.17 264.995 426.17 272.145ZM418.37 272.145 411.22 272.145 411.22 264.995 418.37 264.995 418.37 272.145ZM410.57 272.145 403.42 272.145 403.42 264.995 410.57 264.995 410.57 272.145ZM402.77 272.145 395.62 272.145 395.62 264.995 402.77 264.995 402.77 272.145ZM394.97 272.145 387.82 272.145 387.82 264.995 394.97 264.995 394.97 272.145ZM387.17 272.145 380.02 272.145 380.02 264.995 387.17 264.995 387.17 272.145ZM387.17 272.795 387.17 279.945 380.02 279.945 380.02 272.795 387.17 272.795ZM379.37 279.945 372.22 279.945 372.22 272.795 379.37 272.795 379.37 279.945ZM379.37 280.595 379.37 287.745 372.22 287.745 372.22 280.595 379.37 280.595ZM379.37 288.395 379.37 295.545 372.22 295.545 372.22 288.395 379.37 288.395ZM379.37 296.195 379.37 303.345 372.22 303.345 372.22 296.195 379.37 296.195ZM379.37 303.995 379.37 311.145 372.22 311.145 372.22 303.995 379.37 303.995ZM379.37 311.795 379.37 318.945 372.22 318.945 372.22 311.795 379.37 311.795ZM379.37 319.596 379.37 326.746 372.22 326.746 372.22 319.596 379.37 319.596ZM379.37 327.396 379.37 334.546 372.22 334.546 372.22 327.396 379.37 327.396ZM379.37 335.196 379.37 342.346 372.22 342.346 372.22 335.196 379.37 335.196ZM379.37 342.996 379.37 350.146 372.22 350.146 372.22 342.996 379.37 342.996ZM379.37 350.796 379.37 357.946 372.22 357.946 372.22 350.796 379.37 350.796ZM379.37 358.596 379.37 365.746 372.22 365.746 372.22 358.596 379.37 358.596ZM379.37 366.396 379.37 373.546 372.22 373.546 372.22 366.396 379.37 366.396ZM379.37 374.196 379.37 381.346 372.22 381.346 372.22 374.196 379.37 374.196ZM379.37 381.996 379.37 389.146 372.22 389.146 372.22 381.996 379.37 381.996ZM379.37 389.796 379.37 396.946 372.22 396.946 372.22 389.796 379.37 389.796ZM379.37 397.596 379.37 404.746 372.22 404.746 372.22 397.596 379.37 397.596ZM379.37 405.396 379.37 412.546 372.22 412.546 372.22 405.396 379.37 405.396ZM380.02 405.396 387.17 405.396 387.17 412.546 380.02 412.546 380.02 405.396ZM387.17 413.196 387.17 420.346 380.02 420.346 380.02 413.196 387.17 413.196ZM387.82 413.196 394.97 413.196 394.97 420.346 387.82 420.346 387.82 413.196ZM395.62 413.196 402.77 413.196 402.77 420.346 395.62 420.346 395.62 413.196ZM403.42 413.196 410.57 413.196 410.57 420.346 403.42 420.346 403.42 413.196ZM411.22 413.196 418.37 413.196 418.37 420.346 411.22 420.346 411.22 413.196ZM419.02 413.196 426.17 413.196 426.17 420.346 419.02 420.346 419.02 413.196ZM426.82 413.196 433.97 413.196 433.97 420.346 426.82 420.346 426.82 413.196ZM434.62 413.196 441.77 413.196 441.77 420.346 434.62 420.346 434.62 413.196ZM442.42 413.196 449.57 413.196 449.57 420.346 442.42 420.346 442.42 413.196ZM450.22 413.196 457.37 413.196 457.37 420.346 450.22 420.346 450.22 413.196ZM458.02 413.196 465.17 413.196 465.17 420.346 458.02 420.346 458.02 413.196ZM465.82 413.196 472.97 413.196 472.97 420.346 465.82 420.346 465.82 413.196ZM473.62 413.196 480.77 413.196 480.77 420.346 473.62 420.346 473.62 413.196ZM473.62 412.546 473.62 405.396 480.77 405.396 480.77 412.546 473.62 412.546ZM481.42 405.396 488.57 405.396 488.57 412.546 481.42 412.546 481.42 405.396ZM481.42 404.746 481.42 397.596 488.57 397.596 488.57 404.746 481.42 404.746ZM481.42 396.946 481.42 389.796 488.57 389.796 488.57 396.946 481.42 396.946ZM481.42 389.146 481.42 381.996 488.57 381.996 488.57 389.146 481.42 389.146ZM481.42 381.346 481.42 374.196 488.57 374.196 488.57 381.346 481.42 381.346ZM481.42 373.546 481.42 366.396 488.57 366.396 488.57 373.546 481.42 373.546ZM481.42 365.746 481.42 358.596 488.57 358.596 488.57 365.746 481.42 365.746ZM481.42 357.946 481.42 350.796 488.57 350.796 488.57 357.946 481.42 357.946ZM481.42 350.146 481.42 342.996 488.57 342.996 488.57 350.146 481.42 350.146ZM481.42 342.346 481.42 335.196 488.57 335.196 488.57 342.346 481.42 342.346ZM481.42 334.546 481.42 327.396 488.57 327.396 488.57 334.546 481.42 334.546ZM481.42 326.746 481.42 319.596 488.57 319.596 488.57 326.746 481.42 326.746ZM481.42 318.946 481.42 311.796 488.57 311.796 488.57 318.946 481.42 318.946ZM481.42 311.145 481.42 303.995 488.57 303.995 488.57 311.145 481.42 311.145ZM481.42 303.345 481.42 296.195 488.57 296.195 488.57 303.345 481.42 303.345ZM481.42 295.545 481.42 288.395 488.57 288.395 488.57 295.545 481.42 295.545ZM481.42 287.745 481.42 280.595 488.57 280.595 488.57 287.745 481.42 287.745ZM481.42 279.945 481.42 272.795 488.57 272.795 488.57 279.945 481.42 279.945ZM481.42 272.145 481.42 264.995 488.57 264.995 488.57 272.145 481.42 272.145ZM481.42 264.345 481.42 257.195 488.57 257.195 488.57 264.345 481.42 264.345ZM480.77 264.345 473.62 264.345 473.62 257.195 480.77 257.195 480.77 264.345ZM472.97 264.345 465.82 264.345 465.82 257.195 472.97 257.195 472.97 264.345ZM465.17 264.345 458.02 264.345 458.02 257.195 465.17 257.195 465.17 264.345ZM457.37 264.345 450.22 264.345 450.22 257.195 457.37 257.195 457.37 264.345ZM449.57 264.345 442.42 264.345 442.42 257.195 449.57 257.195 449.57 264.345ZM441.77 264.345 434.62 264.345 434.62 257.195 441.77 257.195 441.77 264.345ZM433.97 264.345 426.82 264.345 426.82 257.195 433.97 257.195 433.97 264.345ZM426.17 264.345 419.02 264.345 419.02 257.195 426.17 257.195 426.17 264.345ZM418.37 264.345 411.22 264.345 411.22 257.195 418.37 257.195 418.37 264.345ZM410.57 264.345 403.42 264.345 403.42 257.195 410.57 257.195 410.57 264.345ZM402.77 264.345 395.62 264.345 395.62 257.195 402.77 257.195 402.77 264.345ZM394.97 264.345 387.82 264.345 387.82 257.195 394.97 257.195 394.97 264.345ZM387.17 264.345 380.02 264.345 380.02 257.195 387.17 257.195 387.17 264.345ZM379.37 264.345 372.22 264.345 372.22 257.195 379.37 257.195 379.37 264.345ZM379.37 264.995 379.37 272.145 372.22 272.145 372.22 264.995 379.37 264.995ZM371.57 272.145 364.325 272.145 364.325 264.995 371.57 264.995 371.57 272.145ZM364.325 272.795 371.57 272.795 371.57 279.945 364.325 279.945 364.325 272.795ZM371.57 280.595 371.57 287.745 364.325 287.745 364.325 280.595 371.57 280.595ZM364.325 288.395 371.57 288.395 371.57 295.545 364.325 295.545 364.325 288.395ZM371.57 296.195 371.57 303.345 364.325 303.345 364.325 296.195 371.57 296.195ZM364.325 303.995 371.57 303.995 371.57 311.145 364.325 311.145 364.325 303.995ZM371.57 311.795 371.57 318.945 364.325 318.945 364.325 311.795 371.57 311.795ZM364.325 319.596 371.57 319.596 371.57 326.746 364.325 326.746 364.325 319.596ZM371.57 327.396 371.57 334.546 364.325 334.546 364.325 327.396 371.57 327.396ZM364.325 335.196 371.57 335.196 371.57 342.346 364.325 342.346 364.325 335.196ZM371.57 342.996 371.57 350.146 364.325 350.146 364.325 342.996 371.57 342.996ZM364.325 350.796 371.57 350.796 371.57 357.946 364.325 357.946 364.325 350.796ZM371.57 358.596 371.57 365.746 364.325 365.746 364.325 358.596 371.57 358.596ZM364.325 366.396 371.57 366.396 371.57 373.546 364.325 373.546 364.325 366.396ZM371.57 374.196 371.57 381.346 364.325 381.346 364.325 374.196 371.57 374.196ZM364.325 381.996 371.57 381.996 371.57 389.146 364.325 389.146 364.325 381.996ZM371.57 389.796 371.57 396.946 364.325 396.946 364.325 389.796 371.57 389.796ZM364.325 397.596 371.57 397.596 371.57 404.746 364.325 404.746 364.325 397.596ZM371.57 405.396 371.57 412.546 364.325 412.546 364.325 405.396 371.57 405.396ZM364.325 413.196 371.57 413.196 371.57 420.346 364.325 420.346 364.325 413.196ZM372.22 413.196 379.37 413.196 379.37 420.346 372.22 420.346 372.22 413.196ZM379.37 420.996 379.37 428.145 372.22 428.145 372.22 420.996 379.37 420.996ZM380.02 420.996 387.17 420.996 387.17 428.145 380.02 428.145 380.02 420.996ZM387.82 420.996 394.97 420.996 394.97 428.145 387.82 428.145 387.82 420.996ZM395.62 420.996 402.77 420.996 402.77 428.145 395.62 428.145 395.62 420.996ZM403.42 420.996 410.57 420.996 410.57 428.145 403.42 428.145 403.42 420.996ZM411.22 420.996 418.37 420.996 418.37 428.145 411.22 428.145 411.22 420.996ZM419.02 420.996 426.17 420.996 426.17 428.145 419.02 428.145 419.02 420.996ZM426.82 420.996 433.97 420.996 433.97 428.145 426.82 428.145 426.82 420.996ZM434.62 420.996 441.77 420.996 441.77 428.145 434.62 428.145 434.62 420.996ZM442.42 420.996 449.57 420.996 449.57 428.145 442.42 428.145 442.42 420.996ZM450.22 420.996 457.37 420.996 457.37 428.145 450.22 428.145 450.22 420.996ZM458.02 420.996 465.17 420.996 465.17 428.145 458.02 428.145 458.02 420.996ZM465.82 420.996 472.97 420.996 472.97 428.145 465.82 428.145 465.82 420.996ZM473.62 420.996 480.77 420.996 480.77 428.145 473.62 428.145 473.62 420.996ZM481.42 420.996 488.57 420.996 488.57 428.145 481.42 428.145 481.42 420.996ZM481.42 420.346 481.42 413.196 488.57 413.196 488.57 420.346 481.42 420.346ZM489.22 413.196 496.275 413.196 496.275 420.346 489.22 420.346 489.22 413.196ZM489.22 412.546 489.22 405.396 496.275 405.396 496.275 412.546 489.22 412.546ZM496.275 404.746 489.22 404.746 489.22 397.596 496.275 397.596 496.275 404.746ZM489.22 396.946 489.22 389.796 496.275 389.796 496.275 396.946 489.22 396.946ZM496.275 389.146 489.22 389.146 489.22 381.996 496.275 381.996 496.275 389.146ZM489.22 381.346 489.22 374.196 496.275 374.196 496.275 381.346 489.22 381.346ZM496.275 373.546 489.22 373.546 489.22 366.396 496.275 366.396 496.275 373.546ZM489.22 365.746 489.22 358.596 496.275 358.596 496.275 365.746 489.22 365.746ZM496.275 357.946 489.22 357.946 489.22 350.796 496.275 350.796 496.275 357.946ZM489.22 350.146 489.22 342.996 496.275 342.996 496.275 350.146 489.22 350.146ZM496.275 342.346 489.22 342.346 489.22 335.196 496.275 335.196 496.275 342.346ZM489.22 334.546 489.22 327.396 496.275 327.396 496.275 334.546 489.22 334.546ZM496.275 326.746 489.22 326.746 489.22 319.596 496.275 319.596 496.275 326.746ZM489.22 318.946 489.22 311.796 496.275 311.796 496.275 318.946 489.22 318.946ZM496.275 311.145 489.22 311.145 489.22 303.995 496.275 303.995 496.275 311.145ZM489.22 303.345 489.22 296.195 496.275 296.195 496.275 303.345 489.22 303.345ZM496.275 295.545 489.22 295.545 489.22 288.395 496.275 288.395 496.275 295.545ZM489.22 287.745 489.22 280.595 496.275 280.595 496.275 287.745 489.22 287.745ZM496.275 279.945 489.22 279.945 489.22 272.795 496.275 272.795 496.275 279.945ZM489.22 272.145 489.22 264.995 496.275 264.995 496.275 272.145 489.22 272.145ZM496.275 264.345 489.22 264.345 489.22 257.195 496.275 257.195 496.275 264.345ZM371.57 257.195 371.57 264.345 364.325 264.345 364.325 257.195 371.57 257.195ZM364.325 420.996 371.57 420.996 371.57 428.145 364.325 428.145 364.325 420.996ZM489.22 428.145 489.22 420.996 496.275 420.996 496.275 428.145 489.22 428.145Z" fill="#F2F2F2"/><path d="M379.6 226.525C379.6 228.679 377.854 230.425 375.7 230.425 373.546 230.425 371.8 228.679 371.8 226.525 371.8 224.371 373.546 222.625 375.7 222.625 377.854 222.625 379.6 224.371 379.6 226.525" fill="#FFFFFF"/><path d="M488.8 226.525C488.8 228.679 487.054 230.425 484.9 230.425 482.746 230.425 481 228.679 481 226.525 481 224.371 482.746 222.625 484.9 222.625 487.054 222.625 488.8 224.371 488.8 226.525" fill="#FFFFFF"/><path d="M96.85 467.795 253.825 467.795 253.825 310.82 96.85 467.795ZM223.474 438.87 166.731 438.87 223.474 385.57 223.474 438.87Z" fill="#737373"/><path d="M247.978 374.193 253.828 374.193 253.828 374.843 247.978 374.843Z" fill="#D2D2D2"/><path d="M247.978 377.443 253.828 377.443 253.828 378.093 247.978 378.093Z" fill="#D2D2D2"/><path d="M247.978 380.693 253.828 380.693 253.828 381.343 247.978 381.343Z" fill="#D2D2D2"/><path d="M243.428 383.943 253.828 383.943 253.828 384.593 243.428 384.593Z" fill="#D2D2D2"/><path d="M247.977 387.193 253.827 387.193 253.827 387.843 247.977 387.843Z" fill="#D2D2D2"/><path d="M247.977 390.443 253.827 390.443 253.827 391.093 247.977 391.093Z" fill="#D2D2D2"/><path d="M247.977 393.693 253.827 393.693 253.827 394.343 247.977 394.343Z" fill="#D2D2D2"/><path d="M243.427 396.943 253.827 396.943 253.827 397.593 243.427 397.593Z" fill="#D2D2D2"/><path d="M247.977 400.193 253.827 400.193 253.827 400.843 247.977 400.843Z" fill="#D2D2D2"/><path d="M247.977 403.442 253.827 403.442 253.827 404.092 247.977 404.092Z" fill="#D2D2D2"/><path d="M247.977 406.692 253.827 406.692 253.827 407.342 247.977 407.342Z" fill="#D2D2D2"/><path d="M243.427 409.942 253.827 409.942 253.827 410.592 243.427 410.592Z" fill="#D2D2D2"/><path d="M247.977 413.192 253.827 413.192 253.827 413.842 247.977 413.842Z" fill="#D2D2D2"/><path d="M247.977 416.442 253.827 416.442 253.827 417.092 247.977 417.092Z" fill="#D2D2D2"/><path d="M247.976 419.691 253.826 419.691 253.826 420.341 247.976 420.341Z" fill="#D2D2D2"/><path d="M243.426 422.941 253.826 422.941 253.826 423.591 243.426 423.591Z" fill="#D2D2D2"/><path d="M247.976 426.191 253.826 426.191 253.826 426.841 247.976 426.841Z" fill="#D2D2D2"/><path d="M247.976 429.441 253.826 429.441 253.826 430.091 247.976 430.091Z" fill="#D2D2D2"/><path d="M247.976 432.691 253.826 432.691 253.826 433.341 247.976 433.341Z" fill="#D2D2D2"/><path d="M243.426 435.941 253.826 435.941 253.826 436.591 243.426 436.591Z" fill="#D2D2D2"/><path d="M247.976 439.191 253.826 439.191 253.826 439.841 247.976 439.841Z" fill="#D2D2D2"/><path d="M247.976 442.441 253.826 442.441 253.826 443.091 247.976 443.091Z" fill="#D2D2D2"/><path d="M247.976 445.691 253.826 445.691 253.826 446.341 247.976 446.341Z" fill="#D2D2D2"/><path d="M243.426 448.94 253.826 448.94 253.826 449.59 243.426 449.59Z" fill="#D2D2D2"/><path d="M247.976 452.19 253.826 452.19 253.826 452.84 247.976 452.84Z" fill="#D2D2D2"/><path d="M247.976 455.44 253.826 455.44 253.826 456.09 247.976 456.09Z" fill="#D2D2D2"/><path d="M247.976 458.69 253.826 458.69 253.826 459.34 247.976 459.34Z" fill="#D2D2D2"/><path d="M243.426 461.94 253.826 461.94 253.826 462.59 243.426 462.59Z" fill="#D2D2D2"/><path d="M247.979 322.196 253.829 322.196 253.829 322.846 247.979 322.846Z" fill="#D2D2D2"/><path d="M247.978 325.445 253.828 325.445 253.828 326.095 247.978 326.095Z" fill="#D2D2D2"/><path d="M247.978 328.695 253.828 328.695 253.828 329.345 247.978 329.345Z" fill="#D2D2D2"/><path d="M243.428 331.945 253.828 331.945 253.828 332.595 243.428 332.595Z" fill="#D2D2D2"/><path d="M247.978 335.195 253.828 335.195 253.828 335.845 247.978 335.845Z" fill="#D2D2D2"/><path d="M247.978 338.445 253.828 338.445 253.828 339.095 247.978 339.095Z" fill="#D2D2D2"/><path d="M247.978 341.695 253.828 341.695 253.828 342.345 247.978 342.345Z" fill="#D2D2D2"/><path d="M243.428 344.945 253.828 344.945 253.828 345.595 243.428 345.595Z" fill="#D2D2D2"/><path d="M247.978 348.195 253.828 348.195 253.828 348.845 247.978 348.845Z" fill="#D2D2D2"/><path d="M247.978 351.445 253.828 351.445 253.828 352.095 247.978 352.095Z" fill="#D2D2D2"/><path d="M247.978 354.695 253.828 354.695 253.828 355.345 247.978 355.345Z" fill="#D2D2D2"/><path d="M243.428 357.944 253.828 357.944 253.828 358.594 243.428 358.594Z" fill="#D2D2D2"/><path d="M247.978 361.194 253.828 361.194 253.828 361.844 247.978 361.844Z" fill="#D2D2D2"/><path d="M247.978 364.444 253.828 364.444 253.828 365.094 247.978 365.094Z" fill="#D2D2D2"/><path d="M247.978 367.693 253.828 367.693 253.828 368.343 247.978 368.343Z" fill="#D2D2D2"/><path d="M243.428 370.943 253.828 370.943 253.828 371.593 243.428 371.593Z" fill="#D2D2D2"/><path d="M522.736 478.774 460.903 478.774C458.002 478.774 455.65 476.423 455.65 473.522L455.65 344.211C455.65 341.31 458.002 338.957 460.903 338.957L522.736 338.957C525.637 338.957 527.988 341.31 527.988 344.211L527.988 473.522C527.988 476.423 525.637 478.774 522.736 478.774" fill="#737373"/><path d="M526.447 475.337 464.614 475.337C461.713 475.337 459.362 472.985 459.362 470.084L459.362 340.773C459.362 337.872 461.713 335.52 464.614 335.52L526.447 335.52C529.348 335.52 531.7 337.872 531.7 340.773L531.7 470.084C531.7 472.985 529.348 475.337 526.447 475.337" fill="#505050"/><path d="M473.244 388.289C473.244 389.679 472.118 390.805 470.728 390.805 469.338 390.805 468.212 389.679 468.212 388.289 468.212 386.899 469.338 385.772 470.728 385.772 472.118 385.772 473.244 386.899 473.244 388.289" fill="#CFCFCF"/><path d="M485.511 388.289C485.511 389.679 484.385 390.805 482.995 390.805 481.604 390.805 480.479 389.679 480.479 388.289 480.479 386.899 481.604 385.772 482.995 385.772 484.384 385.772 485.511 386.899 485.511 388.289" fill="#737373"/><path d="M475.224 409.136C475.224 411.221 473.534 412.911 471.45 412.911 469.366 412.911 467.676 411.221 467.676 409.136 467.676 407.051 469.366 405.361 471.45 405.361 473.534 405.361 475.224 407.051 475.224 409.136" fill="#737373"/><path d="M487.49 409.136C487.49 411.221 485.8 412.911 483.716 412.911 481.632 412.911 479.942 411.221 479.942 409.136 479.942 407.051 481.632 405.361 483.716 405.361 485.8 405.361 487.49 407.051 487.49 409.136" fill="#737373"/><path d="M499.756 409.136C499.756 411.221 498.066 412.911 495.982 412.911 493.898 412.911 492.208 411.221 492.208 409.136 492.208 407.051 493.898 405.361 495.982 405.361 498.066 405.361 499.756 407.051 499.756 409.136" fill="#737373"/><path d="M512.023 409.136C512.023 411.221 510.332 412.911 508.249 412.911 506.164 412.911 504.474 411.221 504.474 409.136 504.474 407.051 506.164 405.361 508.249 405.361 510.332 405.361 512.023 407.051 512.023 409.136" fill="#737373"/><path d="M524.289 409.136C524.289 411.221 522.599 412.911 520.515 412.911 518.431 412.911 516.741 411.221 516.741 409.136 516.741 407.051 518.431 405.361 520.515 405.361 522.599 405.361 524.289 407.051 524.289 409.136" fill="#737373"/><path d="M475.224 421.088C475.224 423.171 473.534 424.861 471.45 424.861 469.366 424.861 467.676 423.171 467.676 421.088 467.676 419.003 469.366 417.313 471.45 417.313 473.534 417.313 475.224 419.003 475.224 421.088" fill="#CFCFCF"/><path d="M487.49 421.088C487.49 423.171 485.8 424.861 483.716 424.861 481.632 424.861 479.942 423.171 479.942 421.088 479.942 419.003 481.632 417.313 483.716 417.313 485.8 417.313 487.49 419.003 487.49 421.088" fill="#737373"/><path d="M499.756 421.088C499.756 423.171 498.066 424.861 495.982 424.861 493.898 424.861 492.208 423.171 492.208 421.088 492.208 419.003 493.898 417.313 495.982 417.313 498.066 417.313 499.756 419.003 499.756 421.088" fill="#737373"/><path d="M512.023 421.088C512.023 423.171 510.332 424.861 508.249 424.861 506.164 424.861 504.474 423.171 504.474 421.088 504.474 419.003 506.164 417.313 508.249 417.313 510.332 417.313 512.023 419.003 512.023 421.088" fill="#737373"/><path d="M524.289 421.088C524.289 423.171 522.599 424.861 520.515 424.861 518.431 424.861 516.741 423.171 516.741 421.088 516.741 419.003 518.431 417.313 520.515 417.313 522.599 417.313 524.289 419.003 524.289 421.088" fill="#CFCFCF"/><path d="M475.224 433.039C475.224 435.124 473.534 436.813 471.45 436.813 469.366 436.813 467.676 435.124 467.676 433.039 467.676 430.955 469.366 429.265 471.45 429.265 473.534 429.265 475.224 430.955 475.224 433.039" fill="#CFCFCF"/><path d="M487.49 433.039C487.49 435.124 485.8 436.813 483.716 436.813 481.632 436.813 479.942 435.124 479.942 433.039 479.942 430.955 481.632 429.265 483.716 429.265 485.8 429.265 487.49 430.955 487.49 433.039" fill="#737373"/><path d="M499.756 433.039C499.756 435.124 498.066 436.813 495.982 436.813 493.898 436.813 492.208 435.124 492.208 433.039 492.208 430.955 493.898 429.265 495.982 429.265 498.066 429.265 499.756 430.955 499.756 433.039" fill="#737373"/><path d="M512.023 433.039C512.023 435.124 510.332 436.813 508.249 436.813 506.164 436.813 504.474 435.124 504.474 433.039 504.474 430.955 506.164 429.265 508.249 429.265 510.332 429.265 512.023 430.955 512.023 433.039" fill="#737373"/><path d="M524.289 433.039C524.289 435.124 522.599 436.813 520.515 436.813 518.431 436.813 516.741 435.124 516.741 433.039 516.741 430.955 518.431 429.265 520.515 429.265 522.599 429.265 524.289 430.955 524.289 433.039" fill="#CFCFCF"/><path d="M475.224 444.991C475.224 447.075 473.534 448.766 471.45 448.766 469.366 448.766 467.676 447.075 467.676 444.991 467.676 442.906 469.366 441.217 471.45 441.217 473.534 441.217 475.224 442.906 475.224 444.991" fill="#CFCFCF"/><path d="M487.49 444.991C487.49 447.075 485.8 448.766 483.716 448.766 481.632 448.766 479.942 447.075 479.942 444.991 479.942 442.906 481.632 441.217 483.716 441.217 485.8 441.217 487.49 442.906 487.49 444.991" fill="#737373"/><path d="M499.756 444.991C499.756 447.075 498.066 448.766 495.982 448.766 493.898 448.766 492.208 447.075 492.208 444.991 492.208 442.906 493.898 441.217 495.982 441.217 498.066 441.217 499.756 442.906 499.756 444.991" fill="#737373"/><path d="M512.023 444.991C512.023 447.075 510.332 448.766 508.249 448.766 506.164 448.766 504.474 447.075 504.474 444.991 504.474 442.906 506.164 441.217 508.249 441.217 510.332 441.217 512.023 442.906 512.023 444.991" fill="#737373"/><path d="M524.289 444.991C524.289 447.075 522.599 448.766 520.515 448.766 518.431 448.766 516.741 447.075 516.741 444.991 516.741 442.906 518.431 441.217 520.515 441.217 522.599 441.217 524.289 442.906 524.289 444.991" fill="#CFCFCF"/><path d="M475.224 456.942C475.224 459.027 473.534 460.716 471.45 460.716 469.366 460.716 467.676 459.027 467.676 456.942 467.676 454.858 469.366 453.168 471.45 453.168 473.534 453.168 475.224 454.858 475.224 456.942" fill="#CFCFCF"/><path d="M487.49 456.942C487.49 459.027 485.8 460.716 483.716 460.716 481.632 460.716 479.942 459.027 479.942 456.942 479.942 454.858 481.632 453.168 483.716 453.168 485.8 453.168 487.49 454.858 487.49 456.942" fill="#737373"/><path d="M499.756 456.942C499.756 459.027 498.066 460.716 495.982 460.716 493.898 460.716 492.208 459.027 492.208 456.942 492.208 454.858 493.898 453.168 495.982 453.168 498.066 453.168 499.756 454.858 499.756 456.942" fill="#CFCFCF"/><path d="M512.023 456.942C512.023 459.027 510.332 460.716 508.249 460.716 506.164 460.716 504.474 459.027 504.474 456.942 504.474 454.858 506.164 453.168 508.249 453.168 510.332 453.168 512.023 454.858 512.023 456.942" fill="#FFC000"/><path d="M524.289 456.942C524.289 459.027 522.599 460.716 520.515 460.716 518.431 460.716 516.741 459.027 516.741 456.942 516.741 454.858 518.431 453.168 520.515 453.168 522.599 453.168 524.289 454.858 524.289 456.942" fill="#CFCFCF"/><path d="M465.891 355.154 526.278 355.154 526.278 376.891 465.891 376.891Z" fill="#CFCFCF"/><path d="M465.464 346.035 480.81 346.035 480.81 349.161 465.464 349.161Z" fill="#CFCFCF"/><path d="M428.871 426.37 429.905 425.336 422.69 418.12 425.792 415.017 396.822 386.047C395.68 387.189 395.679 389.04 396.822 390.183L421.656 415.018 420.622 416.052 346.494 341.924 332.335 332.592 331.995 332.933 329.262 330.2 328.569 330.893 331.302 333.625 330.957 333.971 340.289 348.128 423.701 431.541 424.735 430.507 434.049 439.821 438.185 435.685 428.871 426.37Z" fill="#D2D2D2"/><path d="M424.729 425.268 428.865 421.132 438.179 430.446 434.043 434.583Z" fill="#737373"/><path d="M340.284 342.891 346.489 336.687 429.9 420.098 423.695 426.302Z" fill="#FFC000"/><path d="M425.792 409.779 396.821 380.808C395.679 381.95 395.678 383.802 396.821 384.944L421.656 409.779 420.621 410.814 418.538 408.73 412.329 414.938 416.465 419.074 425.792 409.779Z" fill="#737373"/><path d="M330.957 328.732 340.289 342.891 346.494 336.686 332.335 327.354Z" fill="#737373"/><path d="M328.564 325.678 329.257 324.985 331.991 327.717 331.298 328.41Z" fill="#505050"/><path d="M297.375 347.75 286.65 347.75C286.652 349.968 286.65 479.862 286.65 479.862L287.576 479.862 287.576 483.48 296.441 483.48 296.441 479.862 297.375 479.862 297.375 347.75Z" fill="#737373"/><path d="M289.525 475.823 298.391 475.823 298.391 480.35 289.525 480.35Z" fill="#2F2F2F"/><path d="M288.6 352.778 299.325 352.778 299.325 476.733 288.6 476.733Z" fill="#E6E6E6"/><path d="M288.6 344.62 299.325 344.62 299.325 352.908 288.6 352.908Z" fill="#505050"/><path d="M288.588 390.713 299.329 390.713 299.329 394.188 288.588 394.188Z" fill="#737373"/><path d="M288.6 395.971 299.325 395.971 299.325 396.621 288.6 396.621Z" fill="#F2F2F2"/><path d="M301.275 352.908C301.263 352.908 301.178 352.908 301.178 352.908L288.588 352.908 288.588 355.833 301.276 355.833 301.276 390.954C301.276 392.569 302.585 393.879 304.201 393.879L304.201 355.833C304.2 354.217 302.89 352.908 301.275 352.908Z" fill="#737373"/><path d="M279.093 221.779 185.669 315.204 186.358 315.893 179.851 322.401 184.677 327.226 191.184 320.719 191.873 321.409 285.298 227.984 293.227 213.85Z" fill="#737373"/><path d="M179.871 319.64 187.042 312.47 191.869 317.297 184.698 324.467Z" fill="#FFC000"/><path d="M185.665 312.436 196.287 301.814 202.491 308.019 191.87 318.641Z" fill="#F2F2F2"/><path d="M195.678 302.426 279.091 219.013 285.295 225.217 201.882 308.629Z" fill="#505050"/><path d="M293.227 211.082 289.252 213.312 289.132 213.392 290.906 215.207 290.997 215.057Z" fill="#505050"/><path d="M282.125 222.181C282.131 222.176 282.134 222.178 282.129 222.184 281.34 223.045 281.362 224.383 282.196 225.216 283.053 226.073 284.442 226.073 285.299 225.216L285.299 225.216 290.997 215.058 289.252 213.312 279.094 219.011C278.237 219.868 278.237 221.257 279.094 222.113 279.926 222.947 281.264 222.97 282.125 222.181Z" fill="#FFFFFF"/><path d="M289.74 232.426 196.316 325.852 197.005 326.541 190.498 333.048 195.324 337.873 201.831 331.366 202.52 332.056 295.945 238.631 303.874 224.497Z" fill="#737373"/><path d="M205.713 313.761 289.775 229.699 295.98 235.904 211.918 319.966Z" fill="#D2D2D2"/><path d="M190.533 330.319 197.697 323.154 202.523 327.98 195.359 335.145Z" fill="#F2F2F2"/><path d="M196.351 323.122 206.322 313.151 212.527 319.356 202.556 329.327Z" fill="#505050"/><path d="M303.913 221.769 299.938 223.999 299.722 224.151 301.527 225.961 301.683 225.744Z" fill="#505050"/><path d="M292.811 232.867C292.817 232.862 292.82 232.864 292.815 232.87 292.026 233.731 292.048 235.069 292.882 235.902 293.739 236.759 295.128 236.759 295.985 235.902L295.985 235.902 301.683 225.744 299.938 223.998 289.78 229.697C288.923 230.554 288.923 231.943 289.78 232.799 290.613 233.633 291.951 233.655 292.811 232.867Z" fill="#FFFFFF"/><path d="M116.35 197.721 174.849 197.721 174.849 256.221 116.35 256.221Z" fill="#737373"/><path d="M108.782 202.27 150.147 160.905 191.513 202.27 150.147 243.635Z" fill="#F2F2F2"/><path d="M194.675 214.5 144.957 212.875C144.953 212.875 144.951 212.872 144.951 212.868L145.146 212.686 136.098 182.066 135.85 181.675 136.175 156 194.675 156 194.675 214.5Z" fill="#FFC000"/><path d="M135.868 181.694 155.991 202.474 144.958 212.868C144.953 212.872 144.949 212.87 144.947 212.865L135.858 181.7C135.853 181.686 135.858 181.683 135.868 181.694Z" fill="#E6E6E6"/><path d="M207.889 276.004C209.097 274.451 208.959 272.242 207.568 270.852L197.269 260.552C195.879 259.162 193.67 259.024 192.117 260.232L169.763 277.155 177.263 284.654C177.26 284.657 177.258 284.659 177.255 284.662 175.542 286.375 175.542 289.153 177.255 290.867 178.968 292.58 181.746 292.58 183.46 290.867 183.462 290.864 183.464 290.861 183.466 290.859L190.451 297.843 207.889 276.004Z" fill="#505050"/><path d="M183.349 284.592 183.349 284.592C182.397 283.64 182.397 282.097 183.349 281.145L195.069 269.424C196.021 268.473 197.564 268.473 198.516 269.424 199.468 270.377 199.468 271.92 198.516 272.872L186.796 284.592C185.844 285.544 184.301 285.544 183.349 284.592" fill="#2F2F2F"/><path d="M161.195 276.643 159.893 271.05 155.715 275.227 155.026 274.538 152.576 276.987 151.859 277.373C146.413 280.306 140.455 282.164 134.307 282.847L132.222 284.932 130.493 283.205 97.5 322.4C95.7222 324.433 94.6718 327.164 95.2159 329.523L94.5483 330.19C93.2847 331.453 93.2847 333.503 94.5483 334.766L99.6242 339.842C100.888 341.106 102.936 341.106 104.2 339.842L104.261 339.781 104.796 339.373C107.196 340.315 110.012 339.912 112.069 338.112L151.19 303.882 149.466 302.159 151.52 300.105 151.529 300.028C152.221 293.916 154.075 287.992 156.991 282.576L157.403 281.813 159.853 279.363 159.163 278.674 161.195 276.643Z" fill="#737373"/><path d="M156.977 276.423 160.786 272.615 159.484 267.022 153.53 272.976Z" fill="#FFC000"/><path d="M154.617 270.51 152.168 272.959 151.45 273.345C146.004 276.278 140.044 278.136 133.897 278.819L127.604 285.112 144.849 302.34 151.111 296.078 151.12 296C151.811 289.888 153.666 283.964 156.582 278.549L156.993 277.785 159.443 275.335 154.617 270.51Z" fill="#505050"/><path d="M94.8961 326.212C93.6786 327.479 93.689 329.49 94.937 330.738L100.013 335.814C101.276 337.078 103.325 337.078 104.59 335.814L104.881 335.523C103.984 334.701 95.485 326.771 94.8961 326.212Z" fill="#505050"/><path d="M143.794 292.872C142.08 294.575 139.309 294.573 137.6 292.863 135.891 291.154 135.887 288.386 137.587 286.672L130.085 279.176 95.8672 318.292C93.4044 321.107 93.5461 325.35 96.1902 327.995L101.958 333.763C104.603 336.407 108.846 336.548 111.661 334.085L150.782 299.854 143.794 292.872Z" fill="#FFC000"/><path d="M105.631 324.321 105.631 324.321C104.679 323.369 104.679 321.826 105.631 320.874L129.072 297.433C130.023 296.482 131.566 296.482 132.519 297.433 133.47 298.386 133.47 299.929 132.519 300.88L109.078 324.321C108.126 325.274 106.582 325.274 105.631 324.321" fill="#FFFFFF"/><path d="M220.557 177.77 232.771 165.556 252.072 184.857 239.858 197.071Z" fill="#737373"/><path d="M252.271 181.407 248.433 177.568C246.017 177.122 243.324 175.676 241.012 173.365 238.702 171.054 237.255 168.36 236.81 165.944L232.97 162.105 220.561 174.515 224.401 178.354C226.816 178.799 229.51 180.246 231.821 182.557 234.132 184.868 235.578 187.562 236.023 189.977L239.862 193.817 252.271 181.407Z" fill="#FFC000"/><path d="M226.398 168.623 230.534 164.486 249.867 183.819 245.73 187.955Z" fill="#737373"/><path d="M225.478 169.545 226.397 168.626 245.732 187.961 244.813 188.88Z" fill="#2F2F2F"/><path d="M236.761 174.858C235.873 175.747 235.873 177.187 236.761 178.076 237.649 178.964 239.089 178.964 239.978 178.075 240.867 177.187 240.867 175.746 239.978 174.858 239.09 173.97 237.65 173.97 236.761 174.858" fill="#505050"/><path d="M288.168 206.066 287.3 195.702C279.072 196.392 272.96 203.62 273.65 211.848L284.014 210.98C283.804 208.475 285.663 206.276 288.168 206.066Z" fill="#737373"/><path d="M274.3 210.07 283.4 210.07C283.4 207.557 285.437 205.52 287.95 205.52L287.95 196.42C280.15 196.42 274.3 202.626 274.3 210.07Z" fill="#FFFFFF"/><path d="M287.95 197.07 287.95 195.12C279.694 195.12 273 201.814 273 210.07L274.95 210.07C274.95 202.89 280.771 197.07 287.95 197.07" fill="#505050"/><path d="M288.892 256.992C287.115 258.768 284.235 258.768 282.457 256.992L275.833 263.617C281.275 269.059 289.977 269.157 295.517 263.617L288.892 256.992Z" fill="#FFFFFF"/><path d="M276.483 262.966 275.104 264.345C280.942 270.184 290.408 270.184 296.247 264.345L294.867 262.966C289.791 268.044 281.559 268.044 276.483 262.966" fill="#505050"/><path d="M305.876 138.45C304.343 140.44 301.486 140.811 299.495 139.278L293.15 147.518C299.692 152.556 309.079 151.336 314.117 144.795L305.876 138.45Z" fill="#737373"/><path d="M313.425 143.775 306.8 137.15C305.023 138.926 302.142 138.926 300.365 137.15L293.74 143.775C299.157 149.191 307.77 149.43 313.425 143.775Z" fill="#FFFFFF"/><path d="M294.39 143.125 293.012 144.503C298.849 150.342 308.316 150.342 314.154 144.503L312.775 143.125C307.698 148.202 299.467 148.202 294.39 143.125" fill="#FFC000"/><path d="M251.644 205.46C249.131 205.46 247.094 203.423 247.094 200.91L237.994 200.91C237.994 208.498 243.771 214.56 251.644 214.56L251.644 205.46Z" fill="#FFFFFF"/><path d="M238.644 200.91 236.694 200.91C236.694 209.167 243.388 215.86 251.644 215.86L251.644 213.91C244.464 213.91 238.644 208.09 238.644 200.91" fill="#FFC000"/><path d="M138.698 349.913C138.698 352.426 136.661 354.463 134.148 354.463L134.148 363.563C141.83 363.563 147.798 357.739 147.798 349.913L138.698 349.913Z" fill="#FFFFFF"/><path d="M134.148 362.913 134.148 364.863C142.405 364.863 149.098 358.169 149.098 349.913L147.148 349.913C147.148 357.093 141.328 362.913 134.148 362.913" fill="#FFC000"/></g></svg>