<svg width="480" height="480" xmlns="http://www.w3.org/2000/svg" xmlns:xlink="http://www.w3.org/1999/xlink" overflow="hidden"><defs><clipPath id="clip0"><rect x="0" y="0" width="480" height="480"/></clipPath></defs><g clip-path="url(#clip0)"><path d="M383.498 385.407 407.869 361.036 412.249 353.828 376.291 389.786 383.498 385.407Z" fill="#D2D2D2"/><path d="M364.225 395.251 417.712 341.764 419.158 337.49 359.95 396.698 364.225 395.251Z" fill="#D2D2D2"/><path d="M351.082 398.967 421.428 328.621C421.658 327.477 421.857 326.329 422.043 325.178L347.64 399.581C348.79 399.396 349.938 399.197 351.082 398.967Z" fill="#D2D2D2"/><path d="M340.15 400.471 422.932 317.69C423.01 316.682 423.085 315.674 423.129 314.665L337.125 400.669C338.134 400.624 339.142 400.548 340.15 400.471Z" fill="#D2D2D2"/><path d="M330.497 400.696 423.157 308.036C423.13 307.132 423.093 306.229 423.039 305.326L327.787 400.578C328.689 400.632 329.593 400.669 330.497 400.696Z" fill="#D2D2D2"/><path d="M321.756 400.009 422.47 299.295C422.364 298.467 422.251 297.64 422.122 296.815L319.275 399.661C320.101 399.79 320.928 399.903 321.756 400.009Z" fill="#D2D2D2"/><path d="M313.727 398.609 421.07 291.266C420.9 290.497 420.737 289.727 420.547 288.961L311.422 398.086C312.187 398.276 312.958 398.439 313.727 398.609Z" fill="#D2D2D2"/><path d="M306.279 396.629 419.09 283.819C418.866 283.105 418.642 282.39 418.4 281.681L304.141 395.939C304.851 396.181 305.565 396.405 306.279 396.629Z" fill="#D2D2D2"/><path d="M299.323 394.157 416.618 276.862C416.349 276.199 416.047 275.548 415.762 274.89L297.351 393.3C298.008 393.586 298.66 393.888 299.323 394.157Z" fill="#D2D2D2"/><path d="M292.854 391.198 413.659 270.392C413.345 269.765 413.037 269.137 412.707 268.516L290.978 390.246C291.598 390.576 292.227 390.884 292.854 391.198Z" fill="#D2D2D2"/><path d="M286.772 387.852 410.314 264.31C409.961 263.725 409.593 263.148 409.226 262.57L285.031 386.765C285.609 387.132 286.187 387.5 286.772 387.852Z" fill="#D2D2D2"/><path d="M281.085 384.11 406.571 258.624C406.179 258.075 405.789 257.525 405.384 256.983L279.444 382.923C279.987 383.328 280.536 383.719 281.085 384.11Z" fill="#D2D2D2"/><path d="M400.837 252.103 274.235 378.705C274.74 379.144 275.244 379.585 275.756 380.012L402.251 253.517 400.837 252.103Z" fill="#D2D2D2"/><path d="M396.109 247.402 269.353 374.159C269.432 374.238 269.504 374.322 269.583 374.401 269.978 374.796 270.39 375.163 270.791 375.549L397.524 248.816 396.109 247.402Z" fill="#D2D2D2"/><path d="M391.382 242.701 264.843 369.24C265.278 369.748 265.701 370.262 266.149 370.762L392.796 244.115 391.382 242.701Z" fill="#D2D2D2"/><path d="M261.882 365.601 388.061 239.422C387.529 239.012 387.006 238.584 386.467 238.188L260.647 364.008C261.044 364.546 261.472 365.069 261.882 365.601Z" fill="#D2D2D2"/><path d="M257.943 360.112 382.573 235.482C381.999 235.105 381.413 234.757 380.832 234.394L256.856 358.372C257.218 358.952 257.567 359.539 257.943 360.112Z" fill="#D2D2D2"/><path d="M254.412 354.216 376.677 231.951C376.069 231.615 375.466 231.268 374.852 230.948L253.408 352.391C253.729 353.005 254.076 353.608 254.412 354.216Z" fill="#D2D2D2"/><path d="M251.253 347.946 370.406 228.792C369.752 228.496 369.093 228.215 368.434 227.935L250.397 345.974C250.677 346.633 250.957 347.292 251.253 347.946Z" fill="#D2D2D2"/><path d="M248.533 341.238 363.699 226.072C362.999 225.821 362.295 225.587 361.59 225.353L247.814 339.129C248.047 339.834 248.281 340.538 248.533 341.238Z" fill="#D2D2D2"/><path d="M246.297 334.045 356.506 223.836C355.759 223.637 355.014 223.43 354.263 223.251L245.712 331.803C245.892 332.554 246.098 333.299 246.297 334.045Z" fill="#D2D2D2"/><path d="M244.594 326.32 348.781 222.133C347.975 221.992 347.17 221.843 346.362 221.724L244.186 323.901C244.304 324.71 244.453 325.514 244.594 326.32Z" fill="#D2D2D2"/><path d="M243.531 317.956 340.416 221.07C339.537 221 338.658 220.925 337.777 220.881L243.342 315.317C243.386 316.198 243.461 317.077 243.531 317.956Z" fill="#D2D2D2"/><path d="M243.269 308.79 331.251 220.808C330.275 220.829 329.3 220.853 328.326 220.905L243.367 305.864C243.313 306.839 243.29 307.815 243.269 308.79Z" fill="#D2D2D2"/><path d="M244.061 298.57 321.031 221.601C319.908 221.754 318.789 221.937 317.671 222.133L244.593 295.211C244.397 296.328 244.214 297.447 244.061 298.57Z" fill="#D2D2D2"/><path d="M246.509 286.694 309.155 224.047C307.796 224.423 306.445 224.832 305.101 225.273L247.734 282.64C247.293 283.984 246.884 285.335 246.509 286.694Z" fill="#D2D2D2"/><path d="M252.2 271.574 294.035 229.739 288.023 232.923 255.384 265.562 252.2 271.574Z" fill="#D2D2D2"/><path d="M133.77 173.77 133.77 173.77C160.13 147.41 202.869 147.41 229.229 173.77L229.229 173.77C255.589 200.13 255.589 242.869 229.229 269.229L229.229 269.229C202.869 295.589 160.13 295.589 133.77 269.229L133.77 269.229C107.41 242.869 107.41 200.131 133.77 173.77Z" fill="#F2F2F2"/><path d="M270.548 339.344 270.548 339.344C250.045 318.841 250.045 285.6 270.548 265.098L270.548 265.098C291.051 244.595 324.292 244.595 344.794 265.098L344.794 265.098C365.297 285.601 365.297 318.842 344.794 339.344L344.794 339.344C324.292 359.846 291.051 359.846 270.548 339.344Z" fill="#FFC000"/><path d="M316.732 195 316.268 195C295.685 195 279 178.315 279 157.732L279 157.268C279 136.685 295.685 120 316.268 120L316.732 120C337.315 120 354 136.685 354 157.268L354 157.732C354 178.315 337.315 195 316.732 195Z" fill="#D2D2D2"/><path d="M252.485 419 251.516 419C243.499 419 237.001 412.501 237.001 404.484L237.001 403.515C237.001 395.498 243.5 389 251.516 389L252.485 389C260.502 389 267 395.499 267 403.515L267 404.484C267 412.501 260.501 419 252.485 419Z" fill="#E6E6E6"/><path d="M152.625 268.75C152.625 271.857 150.107 274.375 147 274.375 143.893 274.375 141.375 271.857 141.375 268.75 141.375 265.643 143.893 263.125 147 263.125 150.107 263.125 152.625 265.643 152.625 268.75Z" fill="#D2D2D2"/><path d="M152.625 240.625C152.625 243.732 150.107 246.25 147 246.25 143.893 246.25 141.375 243.732 141.375 240.625 141.375 237.518 143.893 235 147 235 150.107 235 152.625 237.518 152.625 240.625Z" fill="#D2D2D2"/><path d="M130.787 243.5C130.787 246.607 128.269 249.125 125.162 249.125 122.055 249.125 119.537 246.607 119.537 243.5 119.537 240.393 122.055 237.875 125.162 237.875 128.269 237.875 130.787 240.393 130.787 243.5Z" fill="#D2D2D2"/><path d="M110.438 251.929C110.438 255.036 107.92 257.554 104.813 257.554 101.706 257.554 99.188 255.036 99.188 251.929 99.188 248.822 101.706 246.304 104.813 246.304 107.92 246.304 110.438 248.822 110.438 251.929Z" fill="#D2D2D2"/><path d="M92.963 265.338C92.963 268.445 90.4446 270.963 87.338 270.963 84.2314 270.963 81.713 268.445 81.713 265.338 81.713 262.231 84.2314 259.713 87.338 259.713 90.4446 259.713 92.963 262.231 92.963 265.338Z" fill="#D2D2D2"/><path d="M79.554 282.813C79.554 285.92 77.0356 288.438 73.929 288.438 70.8224 288.438 68.304 285.92 68.304 282.813 68.304 279.706 70.8224 277.188 73.929 277.188 77.0356 277.188 79.554 279.706 79.554 282.813Z" fill="#D2D2D2"/><path d="M71.125 303.162C71.125 306.269 68.6066 308.787 65.5 308.787 62.3934 308.787 59.875 306.269 59.875 303.162 59.875 300.055 62.3934 297.537 65.5 297.537 68.6066 297.537 71.125 300.055 71.125 303.162Z" fill="#D2D2D2"/><path d="M68.25 325C68.25 328.107 65.7316 330.625 62.625 330.625 59.5184 330.625 57 328.107 57 325 57 321.893 59.5184 319.375 62.625 319.375 65.7316 319.375 68.25 321.893 68.25 325Z" fill="#D2D2D2"/><path d="M71.125 346.838C71.125 349.945 68.6066 352.463 65.5 352.463 62.3934 352.463 59.875 349.945 59.875 346.838 59.875 343.731 62.3934 341.213 65.5 341.213 68.6066 341.213 71.125 343.731 71.125 346.838Z" fill="#D2D2D2"/><path d="M79.554 367.188C79.554 370.295 77.0356 372.813 73.929 372.813 70.8224 372.813 68.304 370.295 68.304 367.188 68.304 364.081 70.8224 361.563 73.929 361.563 77.0356 361.563 79.554 364.081 79.554 367.188Z" fill="#D2D2D2"/><path d="M92.963 384.662C92.963 387.769 90.4446 390.287 87.338 390.287 84.2314 390.287 81.713 387.769 81.713 384.662 81.713 381.555 84.2314 379.037 87.338 379.037 90.4446 379.037 92.963 381.555 92.963 384.662Z" fill="#D2D2D2"/><path d="M110.438 398.071C110.438 401.178 107.92 403.696 104.813 403.696 101.706 403.696 99.188 401.178 99.188 398.071 99.188 394.964 101.706 392.446 104.813 392.446 107.92 392.446 110.438 394.964 110.438 398.071Z" fill="#D2D2D2"/><path d="M130.787 406.5C130.787 409.607 128.269 412.125 125.162 412.125 122.055 412.125 119.537 409.607 119.537 406.5 119.537 403.393 122.055 400.875 125.162 400.875 128.269 400.875 130.787 403.393 130.787 406.5Z" fill="#D2D2D2"/><path d="M152.625 409.375C152.625 412.482 150.107 415 147 415 143.893 415 141.375 412.482 141.375 409.375 141.375 406.268 143.893 403.75 147 403.75 150.107 403.75 152.625 406.268 152.625 409.375Z" fill="#D2D2D2"/><path d="M174.463 406.5C174.463 409.607 171.945 412.125 168.838 412.125 165.731 412.125 163.213 409.607 163.213 406.5 163.213 403.393 165.731 400.875 168.838 400.875 171.945 400.875 174.463 403.393 174.463 406.5Z" fill="#D2D2D2"/><path d="M194.813 398.071C194.813 401.178 192.295 403.696 189.188 403.696 186.081 403.696 183.563 401.178 183.563 398.071 183.563 394.964 186.081 392.446 189.188 392.446 192.295 392.446 194.813 394.964 194.813 398.071Z" fill="#D2D2D2"/><path d="M212.287 384.662C212.287 387.769 209.769 390.287 206.662 390.287 203.555 390.287 201.037 387.769 201.037 384.662 201.037 381.555 203.555 379.037 206.662 379.037 209.769 379.037 212.287 381.555 212.287 384.662Z" fill="#D2D2D2"/><path d="M225.696 367.188C225.696 370.295 223.178 372.813 220.071 372.813 216.964 372.813 214.446 370.295 214.446 367.188 214.446 364.081 216.964 361.563 220.071 361.563 223.178 361.563 225.696 364.081 225.696 367.188Z" fill="#D2D2D2"/><path d="M234.125 346.838C234.125 349.945 231.607 352.463 228.5 352.463 225.393 352.463 222.875 349.945 222.875 346.838 222.875 343.731 225.393 341.213 228.5 341.213 231.607 341.213 234.125 343.731 234.125 346.838Z" fill="#D2D2D2"/><path d="M237 325C237 328.107 234.482 330.625 231.375 330.625 228.268 330.625 225.75 328.107 225.75 325 225.75 321.893 228.268 319.375 231.375 319.375 234.482 319.375 237 321.893 237 325Z" fill="#D2D2D2"/><path d="M234.125 303.162C234.125 306.269 231.607 308.787 228.5 308.787 225.393 308.787 222.875 306.269 222.875 303.162 222.875 300.055 225.393 297.537 228.5 297.537 231.607 297.537 234.125 300.055 234.125 303.162Z" fill="#D2D2D2"/><path d="M225.696 282.813C225.696 285.92 223.178 288.438 220.071 288.438 216.964 288.438 214.446 285.92 214.446 282.813 214.446 279.706 216.964 277.188 220.071 277.188 223.178 277.188 225.696 279.706 225.696 282.813Z" fill="#D2D2D2"/><path d="M212.287 265.338C212.287 268.445 209.769 270.963 206.662 270.963 203.555 270.963 201.037 268.445 201.037 265.338 201.037 262.231 203.555 259.713 206.662 259.713 209.769 259.713 212.287 262.231 212.287 265.338Z" fill="#D2D2D2"/><path d="M194.813 251.929C194.813 255.036 192.295 257.554 189.188 257.554 186.081 257.554 183.563 255.036 183.563 251.929 183.563 248.822 186.081 246.304 189.188 246.304 192.295 246.304 194.813 248.822 194.813 251.929Z" fill="#D2D2D2"/><path d="M174.463 243.5C174.463 246.607 171.945 249.125 168.838 249.125 165.731 249.125 163.213 246.607 163.213 243.5 163.213 240.393 165.731 237.875 168.838 237.875 171.945 237.875 174.463 240.393 174.463 243.5Z" fill="#D2D2D2"/><path d="M124.5 276.286C124.5 279.393 121.982 281.911 118.875 281.911 115.768 281.911 113.25 279.393 113.25 276.286 113.25 273.179 115.768 270.661 118.875 270.661 121.982 270.661 124.5 273.179 124.5 276.286Z" fill="#D2D2D2"/><path d="M103.911 296.875C103.911 299.982 101.393 302.5 98.286 302.5 95.1794 302.5 92.661 299.982 92.661 296.875 92.661 293.768 95.1794 291.25 98.286 291.25 101.393 291.25 103.911 293.768 103.911 296.875Z" fill="#D2D2D2"/><path d="M96.375 325C96.375 328.107 93.8566 330.625 90.75 330.625 87.6434 330.625 85.125 328.107 85.125 325 85.125 321.893 87.6434 319.375 90.75 319.375 93.8566 319.375 96.375 321.893 96.375 325Z" fill="#D2D2D2"/><path d="M103.911 353.125C103.911 356.232 101.393 358.75 98.286 358.75 95.1794 358.75 92.661 356.232 92.661 353.125 92.661 350.018 95.1794 347.5 98.286 347.5 101.393 347.5 103.911 350.018 103.911 353.125Z" fill="#D2D2D2"/><path d="M124.5 373.714C124.5 376.821 121.982 379.339 118.875 379.339 115.768 379.339 113.25 376.821 113.25 373.714 113.25 370.607 115.768 368.089 118.875 368.089 121.982 368.089 124.5 370.607 124.5 373.714Z" fill="#D2D2D2"/><path d="M152.625 381.25C152.625 384.357 150.107 386.875 147 386.875 143.893 386.875 141.375 384.357 141.375 381.25 141.375 378.143 143.893 375.625 147 375.625 150.107 375.625 152.625 378.143 152.625 381.25Z" fill="#D2D2D2"/><path d="M180.75 373.714C180.75 376.821 178.232 379.339 175.125 379.339 172.018 379.339 169.5 376.821 169.5 373.714 169.5 370.607 172.018 368.089 175.125 368.089 178.232 368.089 180.75 370.607 180.75 373.714Z" fill="#D2D2D2"/><path d="M201.339 353.125C201.339 356.232 198.821 358.75 195.714 358.75 192.607 358.75 190.089 356.232 190.089 353.125 190.089 350.018 192.607 347.5 195.714 347.5 198.821 347.5 201.339 350.018 201.339 353.125Z" fill="#D2D2D2"/><path d="M208.875 325C208.875 328.107 206.357 330.625 203.25 330.625 200.143 330.625 197.625 328.107 197.625 325 197.625 321.893 200.143 319.375 203.25 319.375 206.357 319.375 208.875 321.893 208.875 325Z" fill="#D2D2D2"/><path d="M201.339 296.875C201.339 299.982 198.821 302.5 195.714 302.5 192.607 302.5 190.089 299.982 190.089 296.875 190.089 293.768 192.607 291.25 195.714 291.25 198.821 291.25 201.339 293.768 201.339 296.875Z" fill="#D2D2D2"/><path d="M180.75 276.286C180.75 279.393 178.232 281.911 175.125 281.911 172.018 281.911 169.5 279.393 169.5 276.286 169.5 273.179 172.018 270.661 175.125 270.661 178.232 270.661 180.75 273.179 180.75 276.286Z" fill="#D2D2D2"/><path d="M152.625 296.875C152.625 299.982 150.107 302.5 147 302.5 143.893 302.5 141.375 299.982 141.375 296.875 141.375 293.768 143.893 291.25 147 291.25 150.107 291.25 152.625 293.768 152.625 296.875Z" fill="#D2D2D2"/><path d="M128.268 310.938C128.268 314.045 125.75 316.563 122.643 316.563 119.536 316.563 117.018 314.045 117.018 310.938 117.018 307.831 119.536 305.313 122.643 305.313 125.75 305.313 128.268 307.831 128.268 310.938Z" fill="#D2D2D2"/><path d="M128.268 339.063C128.268 342.17 125.75 344.688 122.643 344.688 119.536 344.688 117.018 342.17 117.018 339.063 117.018 335.956 119.536 333.438 122.643 333.438 125.75 333.438 128.268 335.956 128.268 339.063Z" fill="#D2D2D2"/><path d="M152.625 353.125C152.625 356.232 150.107 358.75 147 358.75 143.893 358.75 141.375 356.232 141.375 353.125 141.375 350.018 143.893 347.5 147 347.5 150.107 347.5 152.625 350.018 152.625 353.125Z" fill="#D2D2D2"/><path d="M176.982 339.063C176.982 342.17 174.464 344.688 171.357 344.688 168.25 344.688 165.732 342.17 165.732 339.063 165.732 335.956 168.25 333.438 171.357 333.438 174.464 333.438 176.982 335.956 176.982 339.063Z" fill="#D2D2D2"/><path d="M152.624 324.999C152.624 328.106 150.106 330.624 146.999 330.624 143.892 330.624 141.374 328.106 141.374 324.999 141.374 321.892 143.892 319.374 146.999 319.374 150.106 319.374 152.624 321.892 152.624 324.999Z" fill="#D2D2D2"/><path d="M176.982 310.938C176.982 314.045 174.464 316.563 171.357 316.563 168.25 316.563 165.732 314.045 165.732 310.938 165.732 307.831 168.25 305.313 171.357 305.313 174.464 305.313 176.982 307.831 176.982 310.938Z" fill="#D2D2D2"/><path d="M233 239.5C183.098 239.5 142.5 198.902 142.5 149 142.5 99.098 183.098 58.5 233 58.5 282.902 58.5 323.5 99.098 323.5 149 323.5 198.902 282.902 239.5 233 239.5ZM233 59.5C183.649 59.5 143.5 99.649 143.5 149 143.5 198.351 183.649 238.5 233 238.5 282.351 238.5 322.5 198.351 322.5 149 322.5 99.649 282.351 59.5 233 59.5Z" fill="#D2D2D2"/><path d="M233 233.269C186.533 233.269 148.73 195.466 148.73 149 148.73 102.534 186.533 64.731 233 64.731 279.467 64.731 317.27 102.534 317.27 149 317.27 195.466 279.467 233.269 233 233.269ZM233 65.731C187.085 65.731 149.73 103.085 149.73 149 149.73 194.915 187.084 232.269 233 232.269 278.916 232.269 316.27 194.915 316.27 149 316.27 103.085 278.915 65.731 233 65.731Z" fill="#D2D2D2"/><path d="M233 227.039C189.97 227.039 154.962 192.031 154.962 149 154.962 105.969 189.97 70.961 233 70.961 276.03 70.961 311.038 105.969 311.038 149 311.038 192.031 276.03 227.039 233 227.039ZM233 71.961C190.521 71.961 155.962 106.521 155.962 149 155.962 191.479 190.522 226.039 233 226.039 275.478 226.039 310.038 191.479 310.038 149 310.038 106.521 275.479 71.961 233 71.961Z" fill="#D2D2D2"/><path d="M233 220.808C193.405 220.808 161.192 188.595 161.192 149 161.192 109.405 193.405 77.192 233 77.192 272.595 77.192 304.808 109.405 304.808 149 304.808 188.595 272.595 220.808 233 220.808ZM233 78.192C193.956 78.192 162.192 109.956 162.192 149 162.192 188.044 193.956 219.808 233 219.808 272.044 219.808 303.808 188.044 303.808 149 303.808 109.956 272.044 78.192 233 78.192Z" fill="#D2D2D2"/><path d="M233 214.577C196.841 214.577 167.423 185.159 167.423 149 167.423 112.841 196.841 83.423 233 83.423 269.159 83.423 298.577 112.841 298.577 149 298.577 185.159 269.159 214.577 233 214.577ZM233 84.423C197.392 84.423 168.423 113.392 168.423 149 168.423 184.608 197.392 213.577 233 213.577 268.608 213.577 297.577 184.608 297.577 149 297.577 113.392 268.608 84.423 233 84.423Z" fill="#D2D2D2"/><path d="M233 208.346C200.276 208.346 173.654 181.723 173.654 149 173.654 116.277 200.276 89.654 233 89.654 265.724 89.654 292.346 116.277 292.346 149 292.346 181.723 265.724 208.346 233 208.346ZM233 90.654C200.828 90.654 174.654 116.828 174.654 149 174.654 181.172 200.828 207.346 233 207.346 265.172 207.346 291.346 181.172 291.346 149 291.346 116.828 265.172 90.654 233 90.654Z" fill="#D2D2D2"/><path d="M233 202.115C203.712 202.115 179.885 178.288 179.885 149 179.885 119.712 203.712 95.885 233 95.885 262.288 95.885 286.115 119.712 286.115 149 286.115 178.288 262.288 202.115 233 202.115ZM233 96.885C204.264 96.885 180.885 120.264 180.885 149 180.885 177.736 204.264 201.115 233 201.115 261.736 201.115 285.115 177.736 285.115 149 285.115 120.264 261.736 96.885 233 96.885Z" fill="#D2D2D2"/><path d="M233 195.885C207.147 195.885 186.115 174.853 186.115 149 186.115 123.147 207.147 102.115 233 102.115 258.853 102.115 279.885 123.147 279.885 149 279.885 174.853 258.853 195.885 233 195.885ZM233 103.115C207.699 103.115 187.115 123.699 187.115 149 187.115 174.301 207.699 194.885 233 194.885 258.301 194.885 278.885 174.301 278.885 149 278.885 123.699 258.301 103.115 233 103.115Z" fill="#D2D2D2"/><path d="M233 189.654C210.583 189.654 192.346 171.417 192.346 149 192.346 126.583 210.583 108.346 233 108.346 255.417 108.346 273.654 126.583 273.654 149 273.654 171.417 255.417 189.654 233 189.654ZM233 109.346C211.135 109.346 193.346 127.135 193.346 149 193.346 170.865 211.135 188.654 233 188.654 254.865 188.654 272.654 170.865 272.654 149 272.654 127.135 254.865 109.346 233 109.346Z" fill="#D2D2D2"/><path d="M233 183.423C214.02 183.423 198.577 167.981 198.577 149 198.577 130.019 214.02 114.577 233 114.577 251.98 114.577 267.423 130.019 267.423 149 267.423 167.981 251.98 183.423 233 183.423ZM233 115.577C214.57 115.577 199.577 130.571 199.577 149 199.577 167.429 214.57 182.423 233 182.423 251.43 182.423 266.423 167.429 266.423 149 266.423 130.571 251.43 115.577 233 115.577Z" fill="#D2D2D2"/><path d="M233 177.192C217.455 177.192 204.808 164.545 204.808 149 204.808 133.455 217.455 120.808 233 120.808 248.545 120.808 261.192 133.455 261.192 149 261.192 164.545 248.545 177.192 233 177.192ZM233 121.808C218.006 121.808 205.808 134.006 205.808 149 205.808 163.994 218.006 176.192 233 176.192 247.994 176.192 260.192 163.994 260.192 149 260.192 134.006 247.994 121.808 233 121.808Z" fill="#D2D2D2"/><path d="M233 170.961C220.891 170.961 211.038 161.109 211.038 149 211.038 136.891 220.891 127.039 233 127.039 245.109 127.039 254.962 136.891 254.962 149 254.962 161.109 245.109 170.961 233 170.961ZM233 128.039C221.441 128.039 212.038 137.442 212.038 149 212.038 160.558 221.441 169.961 233 169.961 244.559 169.961 253.962 160.558 253.962 149 253.962 137.442 244.559 128.039 233 128.039Z" fill="#D2D2D2"/><path d="M233 164.731C224.326 164.731 217.27 157.674 217.27 149 217.27 140.326 224.327 133.269 233 133.269 241.673 133.269 248.73 140.326 248.73 149 248.73 157.674 241.674 164.731 233 164.731ZM233 134.269C224.878 134.269 218.27 140.877 218.27 149 218.27 157.123 224.878 163.731 233 163.731 241.122 163.731 247.73 157.123 247.73 149 247.73 140.877 241.122 134.269 233 134.269Z" fill="#D2D2D2"/><path d="M233 158.5C227.762 158.5 223.5 154.238 223.5 149 223.5 143.762 227.762 139.5 233 139.5 238.238 139.5 242.5 143.762 242.5 149 242.5 154.238 238.238 158.5 233 158.5ZM233 140.5C228.313 140.5 224.5 144.313 224.5 149 224.5 153.687 228.313 157.5 233 157.5 237.687 157.5 241.5 153.687 241.5 149 241.5 144.313 237.687 140.5 233 140.5Z" fill="#D2D2D2"/></g></svg>