<svg width="624" height="624" xmlns="http://www.w3.org/2000/svg" xmlns:xlink="http://www.w3.org/1999/xlink" overflow="hidden"><defs><clipPath id="clip0"><rect x="0" y="0" width="624" height="624"/></clipPath></defs><g clip-path="url(#clip0)"><path d="M239.173 276.455C239.173 276.455 236.655 277.293 233.267 279.066 233.127 265.814 221.82 254.509 221.82 254.509 221.82 254.509 218.858 256.671 215.533 260.35 210.358 251.51 201.428 246.108 201.428 246.108 201.428 246.108 200.158 247.619 198.555 250.146 192.561 245.811 186.561 243.881 186.561 243.881 186.561 243.881 183.514 249.928 182.491 257.63 179.842 257.085 178.096 256.949 178.096 256.949 178.096 256.949 175.947 265.963 177.929 275.279 172.814 275.026 169.047 275.644 169.047 275.644 169.047 275.644 169.167 292.439 179.216 301.723 175.36 302.929 172.84 304.221 172.84 304.221 172.84 304.221 178.362 320.982 191.449 326.346 203.614 331.333 220.399 323.723 220.461 323.593 223.707 322.373 237.171 316.716 241.873 305.24 247.237 292.152 239.173 276.455 239.173 276.455Z" fill="#737373"/><path d="M230.597 279.8C230.312 279.341 229.71 279.2 229.254 279.486 225.135 282.043 221.799 284.963 219.307 288.173 216.243 284.294 212.345 281.376 208.852 279.296 209.056 276.73 209.743 274.089 210.898 271.444 211.913 269.121 213.297 266.781 215.012 264.489 215.335 264.057 215.246 263.447 214.816 263.124 214.384 262.801 213.773 262.891 213.451 263.32 212.07 265.166 210.895 267.046 209.936 268.928 204.34 263.774 197.742 260.955 195.179 259.99 195.867 257.925 196.758 255.823 197.859 253.72 198.134 253.196 197.885 252.536 197.298 252.34 196.838 252.187 196.332 252.432 196.108 252.862 194.955 255.067 194.024 257.276 193.305 259.45 191.123 258.462 188.772 257.613 186.277 256.94 185.702 256.786 185.113 257.175 185.052 257.791 185.003 258.275 185.353 258.71 185.823 258.837 188.167 259.473 190.373 260.268 192.421 261.19 191.335 263.647 188.875 269.948 188.487 277.212 185.858 276.295 182.976 275.644 179.861 275.307 179.328 275.248 178.845 275.636 178.788 276.172 178.73 276.708 179.117 277.189 179.652 277.246 183.098 277.618 186.259 278.368 189.047 279.477 191.615 280.497 193.877 281.825 195.772 283.423 195.824 283.466 195.884 283.489 195.941 283.52 194.79 287.702 193.894 293.102 194.594 298.593 190.545 298.093 186.105 298.407 181.364 299.543 180.879 299.66 180.51 300.11 180.563 300.605 180.619 301.122 181.051 301.481 181.532 301.481 181.607 301.481 181.685 301.473 181.761 301.454 186.785 300.243 191.436 299.989 195.584 300.7 197.298 300.995 198.93 301.458 200.435 302.075 209.014 305.592 214.274 314.337 216.646 319.237 216.814 319.584 217.161 319.788 217.524 319.788 217.684 319.788 217.847 319.748 218 319.663 218.429 319.426 218.583 318.884 218.419 318.422 216.596 313.275 214.094 303.436 217.595 294.893 218.228 293.35 219.073 291.822 220.108 290.353 220.108 290.353 220.108 290.352 220.108 290.352 222.514 286.937 225.938 283.838 230.284 281.141 230.74 280.858 230.881 280.257 230.597 279.8ZM190.404 277.948C190.667 270.578 193.324 263.96 194.308 261.752 196.637 262.625 203.542 265.513 209.063 270.783 207.982 273.287 207.308 275.793 207.017 278.255 203.23 276.212 200.271 275.239 200.019 275.159 199.559 275.014 199.066 275.219 198.85 275.648 198.743 275.86 197.624 278.118 196.528 281.548 194.745 280.126 192.691 278.919 190.404 277.948ZM215.79 294.155C213.352 300.102 213.609 306.57 214.616 311.852 214.619 311.868 214.614 311.87 214.605 311.857 211.548 307.434 207.121 302.711 201.174 300.273 199.74 299.684 198.205 299.227 196.601 298.908 195.213 289.55 199.012 280.041 200.23 277.304 203.026 278.354 212.417 282.301 218.113 289.813 217.175 291.222 216.394 292.681 215.79 294.155Z" fill="#505050"/><path d="M120.982 380.667 120.982 344.469 120.007 344.469 120.007 375.874C120.007 375.915 120.001 375.916 119.994 375.875L114.54 344.948 113.58 345.117 119.034 376.046C119.041 376.086 119.035 376.087 119.021 376.049L108.28 346.538 107.364 346.871 118.105 376.381C118.119 376.419 118.113 376.421 118.093 376.386L102.391 349.19 101.547 349.677 117.249 376.875C117.269 376.91 117.265 376.914 117.239 376.882L97.0515 352.825 96.3053 353.451 116.493 377.509C116.519 377.54 116.515 377.545 116.484 377.518L92.4254 357.331 91.7989 358.077 115.856 378.264C115.887 378.29 115.884 378.295 115.849 378.274L88.6515 362.572 88.164 363.416 115.361 379.118C115.396 379.138 115.394 379.144 115.355 379.13L85.8448 368.389 85.5114 369.305 115.023 380.047C115.061 380.06 115.06 380.066 115.019 380.059L84.0911 374.605 83.9215 375.565 114.849 381.019C114.889 381.026 114.889 381.032 114.848 381.032L83.4431 381.032 83.4431 382.007 114.848 382.007C114.889 382.007 114.889 382.013 114.849 382.02L83.9215 387.473 84.0911 388.434 115.019 382.98C115.06 382.973 115.061 382.979 115.023 382.992L85.5107 393.734 85.8442 394.65 115.354 383.909C115.393 383.895 115.395 383.9 115.359 383.921L88.1627 399.623 88.6502 400.467 119.985 382.376C119.985 382.376 120.39 382.531 120.83 382.734 123.219 383.835 131.333 387.956 139.35 396.396 148.094 405.603 158.518 421.998 158.518 447.82L160.468 447.82C160.469 398.452 123.399 381.702 120.982 380.667Z" fill="#737373"/><path d="M476.794 98.4516 476.155 97.7158 452.438 118.295C452.407 118.322 452.403 118.318 452.429 118.286L472.212 93.9003 471.454 93.286 451.671 117.671C451.645 117.703 451.641 117.7 451.66 117.664L466.908 90.2141 466.055 89.741 450.807 117.192C450.787 117.228 450.781 117.225 450.795 117.187L461.045 87.5049 460.123 87.1871 449.873 116.869C449.86 116.907 449.855 116.906 449.861 116.865L454.8 85.8546 453.837 85.7012 448.898 116.711C448.891 116.751 448.885 116.75 448.885 116.71L448.365 85.3138 447.39 85.33 447.91 116.728C447.911 116.769 447.905 116.769 447.897 116.729L441.933 85.8988 440.976 86.0834 446.941 116.915C446.948 116.956 446.943 116.957 446.928 116.919L435.7 87.5914 434.79 87.9398 446.018 117.268C446.033 117.306 446.027 117.309 446.007 117.274L429.856 90.3402 429.02 90.842 445.17 117.773C445.191 117.809 445.186 117.812 445.16 117.781L424.578 94.0634 423.842 94.7024 444.423 118.42C444.449 118.451 444.445 118.455 444.413 118.429L420.027 98.6466 419.412 99.4038 443.799 119.187C443.83 119.213 443.827 119.218 443.791 119.198L416.341 103.95 415.867 104.802 443.319 120.051C443.355 120.071 443.353 120.076 443.314 120.063L413.631 109.813 413.314 110.735 447.522 122.548C447.522 122.548 447.593 122.749 447.625 122.851 448.054 124.196 450.85 133.607 449.616 146.359 448.957 153.174 447.034 161.728 442.348 170.817 439.104 164.315 425.527 140.095 396.03 123.304L404.916 88.2245 403.97 87.9853 396.259 118.427C396.25 118.466 396.244 118.466 396.246 118.425L398.555 87.1059 397.582 87.0343 395.274 118.353C395.271 118.394 395.265 118.394 395.261 118.353L392.096 87.1091 391.125 87.2072 394.291 118.451C394.295 118.492 394.289 118.493 394.278 118.454L385.735 88.2342 384.797 88.5001 393.34 118.72C393.351 118.76 393.346 118.761 393.327 118.724L379.667 90.4468 378.789 90.8706 392.449 119.148C392.467 119.185 392.462 119.187 392.438 119.154L374.075 93.6793 373.284 94.2493 391.646 119.723C391.671 119.757 391.666 119.761 391.637 119.732L369.129 97.8335 368.449 98.5322 390.956 120.431C390.985 120.459 390.982 120.464 390.948 120.44L364.98 102.783 364.432 103.59 390.399 121.247C390.433 121.27 390.43 121.275 390.393 121.258L361.754 108.378 361.354 109.268 389.993 122.147C390.031 122.164 390.029 122.169 389.989 122.16L359.548 114.449 359.308 115.394 389.75 123.105C389.79 123.115 389.789 123.121 389.748 123.118L358.429 120.811 358.358 121.783 389.676 124.091C389.717 124.094 389.717 124.1 389.676 124.104L358.433 127.269 358.531 128.24 389.774 125.074C389.815 125.07 389.816 125.076 389.777 125.087L359.557 133.63 359.823 134.568 394.607 124.735C426.674 142.8 439.768 169.802 441.205 172.938 437.224 180.06 431.508 187.448 423.336 194.539L424.614 196.012C461.898 163.66 450.257 124.687 449.453 122.177L476.794 98.4516Z" fill="#E5E5E5"/><path d="M408.825 331.322C392.054 346.797 299.15 375.836 264.575 347.302 263.138 346.117 261.334 345.443 259.472 345.47 248.795 345.626 238.114 342.174 229.475 335.887 230.013 335.181 228.257 337.461 230.68 334.302 233.108 331.147 231.357 333.43 231.9 332.728 239.641 339.019 249.427 342.727 259.396 343.143 261.01 343.211 262.533 342.459 263.567 341.217 292.732 306.192 389.592 319.114 408.823 331.312 408.827 331.313 408.828 331.319 408.825 331.322Z" fill="#E4E4E4"/><path d="M283.936 149.569C264.96 162.242 214.939 245.742 234.567 286.046 235.382 287.721 235.613 289.632 235.15 291.436 232.495 301.779 233.345 312.972 237.43 322.844 238.243 322.486 235.615 323.658 239.254 322.044 242.891 320.425 240.26 321.591 241.071 321.227 236.771 312.227 235.461 301.844 237.396 292.055 237.709 290.47 238.797 289.165 240.246 288.452 281.137 268.316 291.294 171.128 283.947 149.572 283.945 149.568 283.94 149.566 283.936 149.569Z" fill="#D1D1D1"/><path d="M311.166 330.806C278.921 329.86 259.997 339.355 251.336 345.363 247.924 347.729 243.937 349.12 239.791 349.348 228.329 349.98 216.562 351.33 206.629 357.222L208.92 359.97C218.464 354.156 229.934 352.565 241.047 351.58 244.374 351.285 247.643 352.418 250.178 354.593 284.613 384.122 375.68 367.537 395.346 353.766 395.349 353.763 395.354 353.76 395.35 353.758 394.919 353.509 357.721 332.171 311.166 330.806Z" fill="#D1D1D1"/><path d="M166.3 344.249C181.171 388.486 167.193 410.676 167.086 410.844 167.084 410.847 167.087 410.845 167.084 410.845 166.872 410.766 142.347 401.511 127.484 357.298 112.607 313.039 119.815 270.652 119.863 270.371 119.864 270.368 119.862 270.369 119.865 270.371 120.072 270.565 151.421 299.991 166.3 344.249Z" fill="#E5E5E5"/><path d="M373.401 302.559C352.631 298.967 341.49 286.179 331.66 274.897 330.756 273.86 329.866 272.837 328.981 271.837L327.52 273.129C328.401 274.126 329.289 275.144 330.19 276.178 340.232 287.706 351.615 300.772 373.068 304.48 374.883 304.794 379.086 305.394 384.665 305.394 392.73 305.394 403.668 304.135 414.412 298.95 414.412 298.95 414.857 298.441 414.564 297.758 414.272 297.076 413.538 297.138 413.538 297.138 395.192 305.887 376.064 303.018 373.401 302.559Z" fill="#D1D1D1"/><path d="M249.003 213.073C256.5 207.589 276.519 222.204 282.003 229.701 287.486 237.198 285.854 247.721 278.356 253.205 270.859 258.688 260.335 257.056 254.852 249.558 249.369 242.061 241.506 218.556 249.003 213.073Z" fill="#FFC000"/><path d="M302.617 256.2C298.488 256.29 294.218 257.391 289.958 259.344L282.371 248.97 273.105 255.748 280.143 265.37C268.341 274.444 257.569 289.49 251.298 307.092L253.135 307.746C262.904 280.329 284.658 258.543 302.661 258.15 308.37 258.025 313.501 259.988 318.77 264.33 318.773 264.332 318.777 264.332 318.779 264.329L320.012 262.835C320.014 262.832 320.014 262.827 320.011 262.826 314.359 258.169 308.839 256.074 302.617 256.2Z" fill="#D1D1D1"/><path d="M82.5669 414.479C82.9653 405.199 106.881 398.689 116.161 399.087 125.441 399.485 132.641 407.332 132.242 416.612 131.844 425.892 123.998 433.092 114.718 432.693 105.437 432.295 82.1684 423.759 82.5669 414.479Z" fill="#FFC000"/><path d="M119.278 323.183C125.462 316.252 148.095 326.354 155.026 332.537 161.958 338.721 162.563 349.353 156.38 356.284 150.195 363.215 139.564 363.821 132.632 357.637 125.701 351.454 113.093 330.114 119.278 323.183Z" fill="#FFC000"/><path d="M231.471 324.128C222.611 325.731 214.124 328.254 206.244 331.625L206.244 331.625C192.655 337.151 179.407 347.132 168.624 359.516L159.418 351.302 151.774 359.869 161.502 368.549C152.229 381.612 145.777 396.515 144.142 411.377L131.44 410.831 130.947 422.301 143.872 422.856C144.462 431.667 146.955 440.288 151.792 448.313 151.978 448.622 152.437 449.353 152.454 449.378 154.337 452.263 156.637 455.205 158.554 457.744 164.444 465.544 169.53 472.28 169.029 482.821 168.724 489.242 166.475 495.399 163.426 500.917L165.054 501.998C168.27 496.215 170.654 489.722 170.977 482.914 171.512 471.669 165.974 464.335 160.111 456.57 158.449 454.369 156.703 452.052 155.054 449.606 154.644 448.998 153.847 447.753 153.847 447.753 129.704 409.046 161.707 354.252 205.172 334.24 205.782 333.959 207.011 333.417 207.011 333.417 214.755 330.103 223.101 327.623 231.817 326.045L231.471 324.128Z" fill="#D1D1D1"/><path d="M222.78 453.361C191.599 466.382 180.331 483.393 176.789 490.552 173.985 492.881 171.341 495.414 168.911 498.148 165.701 501.752 162.868 505.699 160.442 509.876 155.575 518.242 152.36 527.441 150.049 536.755 150.048 536.758 150.05 536.762 150.054 536.763L151.888 537.187C151.891 537.188 151.895 537.186 151.896 537.183 154.168 527.987 157.322 518.956 162.064 510.791 164.428 506.713 167.182 502.869 170.305 499.357 171.954 497.498 173.711 495.739 175.548 494.068 177.725 495.142 199.201 504.81 237.574 488.786 277.948 471.926 303.367 440.666 303.558 440.431 303.56 440.428 303.56 440.43 303.557 440.43 303.255 440.4 263.154 436.5 222.78 453.361Z" fill="#737373"/><path d="M319.645 301.578C313.728 324.511 252.677 400.693 206.461 394.454 205.275 394.295 204.07 394.529 203.038 395.135 196.393 399.033 188.804 401.318 181.118 401.848 181.079 400.96 181.192 403.835 181.028 399.858 180.871 395.88 180.989 398.755 180.957 397.867 187.931 397.758 194.883 396.096 201.131 392.979 202.095 392.497 202.772 391.582 202.928 390.515 209.488 345.632 296.107 302.183 319.638 301.57 319.643 301.569 319.645 301.573 319.645 301.578Z" fill="#737373"/><path d="M321.344 243.694 321.344 108.545C321.344 108.531 321.339 108.529 321.332 108.542 320.771 109.591 300.869 147.157 300.869 193.344 300.869 233.427 315.856 251.311 320.185 255.641 320.048 257.282 319.843 258.916 319.548 260.534 318.328 267.387 315.267 273.859 310.666 279.018 306.039 284.174 299.996 287.921 293.541 290.461 287.106 292.973 280.142 294.473 273.315 294.809 273.279 294.811 273.253 294.84 273.254 294.875L273.286 296.239C280.397 295.888 287.43 294.361 294.068 291.774 300.678 289.167 306.916 285.305 311.715 279.947 316.492 274.59 319.665 267.845 320.915 260.782 321.936 255.139 321.968 249.372 321.344 243.694Z" fill="#737373"/><path d="M173.763 440.045 321.042 425.74C321.048 425.74 321.05 425.73 321.043 425.728 319.945 425.271 280.631 409.094 234.66 413.559 198.053 417.115 181.269 431.423 175.744 437.409 136.152 448.566 132.746 495.264 143.331 528.913 143.396 529.122 145.144 527.949 144.998 527.476 135.257 495.891 138.159 451.903 173.763 440.045Z" fill="#505050"/><path d="M470.693 201.588C438.274 222.077 434.897 243.446 434.725 244.705 400.645 244.927 366.569 251.089 334.552 262.98 335.674 257.114 337.898 251.457 341.136 246.432 341.719 245.526 342.702 244.955 343.778 244.917 389.109 243.301 441.763 161.947 444.944 138.624 444.944 138.619 444.941 138.616 444.937 138.616 421.499 141.991 339.124 194.336 340.249 240.952 340.278 242.155 339.917 243.337 339.199 244.302 334.751 250.276 331.71 257.293 330.279 264.604 328.85 265.16 327.424 265.725 326.004 266.304 290.406 280.782 257.694 302.393 230.286 329.462 213.671 345.875 199.018 364.292 186.711 384.18 174.232 352.336 183.003 235.461 180.523 206.034 180.522 206.029 180.515 206.027 180.511 206.031 167.03 223.356 146.483 318.195 178.012 350.626 179.018 351.66 179.614 353.021 179.656 354.463 179.975 365.66 179.821 377.527 184.553 387.722 177.455 399.561 171.179 411.899 165.816 424.635 150.777 460.206 142.935 498.818 142.685 537.518L152.435 537.518C151.927 500.072 158.758 462.454 172.717 427.496 186.624 392.526 207.568 360.264 233.957 333.132 251.256 315.351 270.886 299.783 292.202 286.932 299.391 284.978 312.19 283.124 322.336 290.471 323.766 293.973 334.225 316.18 374.674 330.928 418.389 346.867 460.803 340.831 461.375 340.749 461.38 340.748 461.38 340.748 461.377 340.744 460.992 340.311 432.416 308.394 388.701 292.456 351.629 278.94 329.794 286.437 323.827 289.139 315.381 282.826 305.189 282.626 297.488 283.826 307.063 278.325 316.958 273.364 327.12 268.993 361.727 254.051 399.377 246.028 437.269 245.356 443.811 246.506 462.555 247.608 489.154 230.797 522.304 209.846 540.143 178.459 540.428 177.956 540.431 177.951 540.43 177.95 540.425 177.95 539.848 177.993 503.842 180.637 470.693 201.588Z" fill="#505050"/><path d="M163.426 500.917C160.312 506.552 156.363 511.519 152.793 515.411 145.215 523.671 135.585 531.22 125.679 536.665L126.619 538.374C136.706 532.828 146.512 525.141 154.229 516.729 157.857 512.774 161.865 507.735 165.054 501.998 165.054 501.998 165.251 501.207 164.622 500.839 163.994 500.471 163.426 500.917 163.426 500.917Z" fill="#D1D1D1"/><path d="M357.437 141.352C366.346 138.723 380.251 159.241 382.879 168.15 385.508 177.059 380.416 186.412 371.507 189.04 362.599 191.669 353.245 186.577 350.617 177.668 347.989 168.759 348.528 143.98 357.437 141.352Z" fill="#FFC000"/><path d="M444.464 225.591C441.308 217.82 436.04 211.065 428.807 205.516 428.807 205.516 428.054 205.354 427.669 205.88 427.284 206.406 427.62 207.063 427.62 207.063 434.574 212.398 439.634 218.879 442.658 226.325 450.364 245.296 444.492 270.577 428.7 286.437 423.979 291.177 418.791 294.631 413.538 297.136L414.413 298.949C419.815 296.342 425.168 292.747 430.082 287.813 446.401 271.423 452.45 245.255 444.464 225.591Z" fill="#D1D1D1"/><path d="M386.496 196.471C384.312 196.906 382.203 197.452 380.156 198.071L376.716 186.41 365.704 189.659 369.433 202.304C362.666 205.635 357.331 209.604 353.805 213.13 338.881 228.053 334.246 244.08 334.056 244.755L335.932 245.284C335.978 245.123 340.638 229.053 355.183 214.508 361.109 208.583 372.547 201.235 386.877 198.383 397.539 196.263 413.261 196.045 427.619 207.063L428.807 205.516C413.869 194.054 397.554 194.27 386.496 196.471Z" fill="#737373"/><path d="M349.957 406.42C344.269 413.763 320.989 405.254 313.646 399.566 306.303 393.878 304.962 383.313 310.651 375.97 316.339 368.627 326.903 367.286 334.246 372.975 341.589 378.663 355.646 399.077 349.957 406.42Z" fill="#FFC000"/><path d="M314.995 372.074 304.921 364.27C306.968 359.483 308.416 351.94 303.751 343.109 296.139 328.697 273.162 320.581 245.229 322.428L245.358 324.374C272.53 322.573 294.774 330.288 302.027 344.019 306.345 352.195 305 359.149 303.111 363.543 300.231 370.245 294.02 375.646 286.904 377.64 279.948 379.587 272.085 378.133 265.332 373.646L264.253 375.27C269.365 378.666 275.088 380.434 280.656 380.434 282.959 380.434 285.235 380.132 287.429 379.517 291.388 378.408 295.082 376.314 298.163 373.558L307.963 381.15 314.995 372.074Z" fill="#F1F1F1"/><path d="M405.165 246.838C386.349 264.129 358.94 270.956 333.707 269.98L333.606 271.404C358.335 272.351 385 265.916 403.99 249.727 409.579 249.276 432.892 245.506 458.962 214.126 488.477 178.599 497.174 136.987 497.413 135.821 497.414 135.815 497.406 135.811 497.401 135.816L405.165 246.838Z" fill="#D0D0D0"/><path d="M353.057 333.322 321.748 330.883C321.707 330.88 321.707 330.874 321.748 330.87L353.005 327.835 352.911 326.864 321.655 329.9C321.614 329.904 321.613 329.898 321.652 329.887L351.907 321.47 351.646 320.531 321.392 328.947C321.353 328.958 321.351 328.952 321.388 328.934L349.72 315.392 349.3 314.512 316.641 330.122C314.933 328.622 291.596 308.896 256.771 317.117L257.22 319.015C290.272 311.21 312.645 329.265 315.182 331.438 315.329 331.563 315.531 331.733 315.531 331.733L312.72 367.83 313.692 367.906 316.131 336.597C316.134 336.556 316.14 336.556 316.144 336.597L319.179 367.854 320.15 367.76 317.114 336.503C317.11 336.462 317.116 336.461 317.127 336.5L325.544 366.755 326.484 366.494 318.067 336.241C318.056 336.201 318.062 336.199 318.079 336.237L331.621 364.569 332.501 364.148 318.958 335.815C318.941 335.778 318.946 335.775 318.969 335.808L337.226 361.36 338.02 360.793 319.762 335.241C319.738 335.208 319.743 335.204 319.772 335.232L342.189 357.226 342.872 356.53 320.454 334.535C320.425 334.507 320.429 334.502 320.462 334.526L346.359 352.293 346.91 351.489 321.014 333.722C320.98 333.699 320.984 333.694 321.021 333.711L349.608 346.712 350.012 345.825 321.426 332.825C321.389 332.808 321.391 332.803 321.431 332.813L351.839 340.651 352.083 339.707 321.675 331.869C321.635 331.858 321.636 331.852 321.677 331.856L352.984 334.294 353.057 333.322Z" fill="#F1F1F1"/><path d="M372.941 296.948C372.941 296.948 375.586 296.728 379.296 295.803 376.306 308.714 384.627 322.369 384.627 322.369 384.627 322.369 388.015 320.967 392.114 318.175 395.058 327.987 402.461 335.343 402.461 335.343 402.461 335.343 404.052 334.173 406.206 332.097 411.007 337.724 416.383 341.015 416.383 341.015 416.383 341.015 420.77 335.857 423.582 328.614 426.028 329.768 427.692 330.313 427.692 330.313 427.692 330.313 431.906 322.061 432.178 312.54 437.089 313.993 440.896 314.28 440.896 314.28 440.896 314.28 444.742 297.931 437.167 286.538 441.199 286.276 443.953 285.616 443.953 285.616 443.953 285.616 442.541 268.025 431.089 259.724 420.445 252.009 402.337 255.443 402.247 255.555 398.804 255.975 384.387 258.296 377.109 268.338 368.809 279.791 372.941 296.948 372.941 296.948Z" fill="#737373"/><path d="M434.632 286.199C429.464 286.191 424.885 285.34 421.021 283.669 419.428 282.98 417.951 282.146 416.632 281.189 409.126 275.748 406.076 266.009 404.927 260.687 404.818 260.181 404.333 259.846 403.82 259.93 403.309 260.011 402.951 260.478 403.005 260.993 403.568 266.408 403.702 276.613 398.262 284.12 397.283 285.471 396.101 286.755 394.748 287.939 391.616 290.68 387.576 292.878 382.74 294.473 382.278 294.625 381.95 295.079 382.026 295.559 382.104 296.061 382.53 296.392 382.991 296.392 383.092 296.392 383.195 296.375 383.295 296.343 387.902 294.83 391.832 292.779 395.012 290.248 397.074 294.741 400.174 298.496 403.077 301.341 402.274 303.787 400.984 306.191 399.237 308.488 399.237 308.488 399.237 308.489 399.237 308.489 397.702 310.506 395.806 312.453 393.598 314.277 393.182 314.619 393.124 315.234 393.467 315.65 393.66 315.884 393.938 316.004 394.219 316.004 394.438 316.004 394.658 315.931 394.839 315.78 396.617 314.312 398.202 312.762 399.578 311.16 403.801 317.489 409.547 321.785 411.81 323.327 410.662 325.159 409.312 326.98 407.759 328.75 407.456 329.096 407.39 329.616 407.658 329.989 407.859 330.269 408.16 330.406 408.459 330.406 408.73 330.406 408.999 330.294 409.191 330.075 410.846 328.192 412.284 326.251 413.505 324.293 415.389 325.766 417.474 327.146 419.741 328.39 419.89 328.472 420.051 328.511 420.209 328.511 420.586 328.511 420.95 328.292 421.11 327.91 421.308 327.438 421.065 326.894 420.617 326.647 418.493 325.477 416.54 324.186 414.773 322.811 416.408 320.679 420.285 315.137 422.376 308.17 424.714 309.681 427.363 310.994 430.309 312.056 430.418 312.095 430.53 312.114 430.639 312.114 431.094 312.114 431.515 311.794 431.602 311.297 431.684 310.823 431.372 310.367 430.919 310.203 427.68 309.031 424.802 307.562 422.367 305.836 420.113 304.238 418.227 302.414 416.762 300.415 416.723 300.36 416.668 300.328 416.619 300.284 418.725 296.492 420.872 291.454 421.487 285.951 425.32 287.398 429.73 288.141 434.629 288.149 434.63 288.149 434.63 288.149 434.63 288.149 435.168 288.149 435.605 287.713 435.605 287.175 435.607 286.637 435.17 286.2 434.632 286.199ZM420.685 307.003C418.691 314.103 414.547 319.908 413.071 321.821 411.014 320.423 404.985 315.988 400.863 309.563 402.504 307.386 403.75 305.109 404.614 302.786 407.813 305.664 410.459 307.307 410.684 307.445 410.842 307.542 411.018 307.588 411.193 307.588 411.471 307.588 411.744 307.47 411.936 307.245 412.089 307.065 413.709 305.135 415.584 302.06 416.981 303.862 418.692 305.52 420.685 307.003ZM410.985 305.311C408.516 303.634 400.325 297.592 396.558 288.935 397.803 287.787 398.906 286.555 399.841 285.264 403.614 280.059 404.888 273.714 405.158 268.343 405.159 268.336 405.167 268.335 405.17 268.341 407.097 273.361 410.284 278.996 415.488 282.768 416.744 283.678 418.127 284.486 419.609 285.173 418.75 294.594 412.814 302.94 410.985 305.311Z" fill="#505050"/><path d="M212.144 193.344C212.144 198.191 208.216 202.119 203.369 202.119 198.523 202.119 194.594 198.191 194.594 193.344 194.594 188.498 198.523 184.569 203.369 184.569 208.216 184.569 212.144 188.498 212.144 193.344Z" fill="#FFC000"/><path d="M237.494 195.294C237.494 200.141 233.566 204.069 228.719 204.069 223.873 204.069 219.944 200.141 219.944 195.294 219.944 190.448 223.873 186.519 228.719 186.519 233.566 186.519 237.494 190.448 237.494 195.294Z" fill="#FFC000"/><path d="M220.919 212.844C220.919 217.691 216.991 221.619 212.144 221.619 207.298 221.619 203.369 217.691 203.369 212.844 203.369 207.998 207.298 204.069 212.144 204.069 216.991 204.069 220.919 207.998 220.919 212.844Z" fill="#FFC000"/><path d="M247.242 370.794C247.242 375.641 243.313 379.569 238.467 379.569 233.62 379.569 229.692 375.641 229.692 370.794 229.692 365.948 233.62 362.019 238.467 362.019 243.313 362.019 247.242 365.948 247.242 370.794Z" fill="#FFC000"/><path d="M247.929 347.588C247.929 352.434 244.001 356.363 239.154 356.363 234.308 356.363 230.379 352.434 230.379 347.588 230.379 342.742 234.308 338.813 239.154 338.813 244.001 338.813 247.929 342.742 247.929 347.588Z" fill="#FFC000"/><path d="M246.303 382.727C257.098 382.631 265.971 397.506 266.121 415.951 266.271 434.396 257.641 449.427 246.846 449.523 241.955 449.567 237.462 446.536 233.994 441.492 230.846 436.915 212.954 433.275 207.818 431.164 200.929 428.332 194.727 422.892 194.676 416.586 194.624 410.28 200.738 404.73 207.579 401.777 212.68 399.574 230.51 395.617 233.583 390.985 236.969 385.882 241.413 382.771 246.303 382.727Z" fill="#D2D2D2"/><path d="M239.116 414.479C239.786 414.395 240.457 414.297 241.128 414.173 242.98 413.811 244.833 413.347 246.686 412.474 248.712 411.52 251.127 412.389 252.082 414.415 253.036 416.441 252.167 418.857 250.141 419.811 249.005 420.345 247.731 420.3 246.676 419.806 244.826 418.929 242.975 418.46 241.123 418.092 240.454 417.967 239.786 417.868 239.117 417.782 239.502 427.91 243.376 435.869 248.102 435.869 253.083 435.869 257.12 427.03 257.12 416.125 257.12 405.221 253.083 396.382 248.102 396.382 243.374 396.382 239.499 404.346 239.116 414.479Z" fill="#FFFFFF"/><path d="M215.793 459.348C211.161 456.276 207.204 438.446 205.002 433.345 203.076 428.886 200.048 424.737 196.427 422.402 197.975 420.896 198.941 418.794 198.941 416.463 198.941 411.885 195.231 408.175 190.653 408.175 186.076 408.175 182.366 411.885 182.366 416.463 182.366 418.65 183.219 420.633 184.603 422.114 180.749 424.423 177.564 428.839 175.614 433.582 173.503 438.718 169.864 456.611 165.286 459.759 160.243 463.226 157.212 467.72 157.255 472.61 157.351 483.406 172.382 492.035 190.827 491.886 209.272 491.736 224.147 482.863 224.051 472.068 224.008 467.178 220.897 462.734 215.793 459.348ZM190.653 413.148C192.484 413.148 193.968 414.632 193.968 416.463 193.968 418.294 192.484 419.778 190.653 419.778 188.822 419.778 187.338 418.294 187.338 416.463 187.338 414.632 188.822 413.148 190.653 413.148Z" fill="#FFC000"/><path d="M192.299 464.882C192.384 465.552 192.481 466.223 192.605 466.894 192.967 468.746 193.432 470.599 194.304 472.452 195.258 474.478 194.389 476.893 192.363 477.848 190.337 478.802 187.921 477.933 186.967 475.907 186.433 474.771 186.479 473.496 186.972 472.442 187.849 470.592 188.319 468.74 188.686 466.888 188.811 466.22 188.91 465.551 188.997 464.883 178.868 465.267 170.909 469.141 170.909 473.868 170.909 478.848 179.748 482.886 190.653 482.886 201.557 482.886 210.397 478.848 210.397 473.868 210.397 469.139 202.433 465.264 192.299 464.882Z" fill="#FFFFFF"/><path d="M188.454 415.351C188.33 415.351 188.205 415.303 188.11 415.208L181.285 408.383C181.095 408.192 181.095 407.883 181.285 407.693 181.475 407.503 181.784 407.503 181.975 407.693L188.8 414.518C188.99 414.708 188.99 415.017 188.8 415.208 188.704 415.303 188.579 415.351 188.454 415.351Z" fill="#FFFFFF"/><path d="M208.934 391.763C208.72 391.603 208.414 391.645 208.252 391.861 196.754 407.189 183.513 404.747 178.803 403.218 178.79 403.213 178.79 403.209 178.803 403.206 181.085 402.802 185.097 401.757 189.563 399.077 195.79 395.339 204.068 387.574 208.139 371.801 208.206 371.54 208.049 371.274 207.789 371.207 207.528 371.138 207.262 371.296 207.195 371.557 200.093 399.076 179.984 402.154 177.129 402.453 177.124 402.453 177.121 402.449 177.123 402.444 178.29 399.673 182.222 389.54 179.988 380.477 177.441 370.142 172.651 364.773 167.176 366.126 164.608 366.759 162.791 368.701 161.922 371.744 160.984 375.031 161.178 379.419 162.501 384.784 164.022 390.957 167.922 395.899 171.132 399.105 171.147 399.12 171.144 399.124 171.125 399.114 168.494 397.768 165.117 396.572 161.395 396.572 161.394 396.572 161.394 396.572 161.392 396.572 157.399 396.572 154.282 397.197 152.129 398.43 150.111 399.586 149.043 401.229 149.043 403.183 149.044 407.323 153.661 409.794 161.396 409.795 169.666 409.795 176.548 403.63 176.663 403.526 176.665 403.524 176.666 403.527 176.669 403.53L181.277 408.375C181.373 408.476 181.501 408.526 181.63 408.526 181.751 408.526 181.872 408.481 181.966 408.392 182.161 408.206 182.169 407.898 181.983 407.702L178.686 404.236C178.677 404.226 178.679 404.221 178.692 404.225 180.382 404.769 182.991 405.384 186.184 405.384 186.536 405.384 186.896 405.376 187.262 405.361 192.96 405.112 201.363 402.671 209.032 392.445 209.193 392.231 209.149 391.925 208.934 391.763ZM161.395 408.819C154.271 408.819 150.018 406.712 150.017 403.183 150.017 401.599 150.915 400.248 152.613 399.276 154.589 398.145 157.624 397.547 161.392 397.547 161.393 397.547 161.394 397.547 161.394 397.547 168.186 397.547 173.978 401.879 175.564 403.179 175.567 403.181 175.567 403.185 175.564 403.188 173.978 404.488 168.187 408.819 161.395 408.819ZM163.446 384.55C162.183 379.424 161.98 375.089 162.859 372.011 163.626 369.323 165.199 367.616 167.409 367.072 167.881 366.956 168.347 366.898 168.808 366.898 173.113 366.898 176.871 371.909 179.041 380.71 181.384 390.215 177.144 399.805 176.039 402.066 176.038 402.07 176.034 402.07 176.03 402.068 174.002 400.581 165.792 394.064 163.446 384.55Z" fill="#FFC000"/></g></svg>