<?xml version="1.0" encoding="UTF-8" standalone="no"?>
<!-- Created with Inkscape (http://www.inkscape.org/) -->

<svg
   xmlns:dc="http://purl.org/dc/elements/1.1/"
   xmlns:cc="http://creativecommons.org/ns#"
   xmlns:rdf="http://www.w3.org/1999/02/22-rdf-syntax-ns#"
   xmlns:svg="http://www.w3.org/2000/svg"
   xmlns="http://www.w3.org/2000/svg"
   xmlns:sodipodi="http://sodipodi.sourceforge.net/DTD/sodipodi-0.dtd"
   xmlns:inkscape="http://www.inkscape.org/namespaces/inkscape"
   width="52.916664mm"
   height="52.916664mm"
   viewBox="0 0 52.916664 52.916664"
   version="1.1"
   id="svg8"
   inkscape:version="0.92.1 r15371"
   sodipodi:docname="Office.svg">
  <defs
     id="defs2" />
  <sodipodi:namedview
     id="base"
     pagecolor="#ffffff"
     bordercolor="#666666"
     borderopacity="1.0"
     inkscape:pageopacity="0.0"
     inkscape:pageshadow="2"
     inkscape:zoom="2.48"
     inkscape:cx="54.235736"
     inkscape:cy="83.313545"
     inkscape:document-units="mm"
     inkscape:current-layer="layer1"
     showgrid="false"
     inkscape:pagecheckerboard="true"
     fit-margin-top="0"
     fit-margin-left="0"
     fit-margin-right="0"
     fit-margin-bottom="0"
     inkscape:window-width="868"
     inkscape:window-height="806"
     inkscape:window-x="673"
     inkscape:window-y="58"
     inkscape:window-maximized="0" />
  <metadata
     id="metadata5">
    <rdf:RDF>
      <cc:Work
         rdf:about="">
        <dc:format>image/svg+xml</dc:format>
        <dc:type
           rdf:resource="http://purl.org/dc/dcmitype/StillImage" />
        <dc:title></dc:title>
      </cc:Work>
    </rdf:RDF>
  </metadata>
  <g
     inkscape:label="Layer 1"
     inkscape:groupmode="layer"
     id="layer1"
     transform="translate(603.40625,-812.53913)">
    <g
       id="g21"
       transform="matrix(0.03759775,0,0,0.03759775,-580.85804,833.47064)">
      <path
         style="fill:#fdc904;stroke-width:0.28222224"
         d="M -599.72229,146.99887 V -556.72229 H 103.99887 807.72002 V 146.99887 850.72002 H 103.99887 -599.72229 Z"
         id="path31"
         inkscape:connector-curvature="0" />
      <path
         style="fill:#f27739;stroke-width:0.28222224"
         d="M -599.72229,146.99887 V -556.72229 H 103.99887 807.72002 V 146.99887 850.72002 H 103.99887 -599.72229 Z m 703.6749,617.14948 c 0.10262,-6.17008 0.19036,-22.26734 0.19496,-35.77167 0.005,-13.50433 0.12793,-29.37934 0.27409,-35.27778 1.01945,-41.14216 6.65576,-68.98059 17.33423,-85.6159 3.2352,-5.03992 8.53189,-10.46026 13.14631,-13.45325 5.43602,-3.52589 11.84992,-5.76828 18.99505,-6.64094 3.68701,-0.45032 15.38668,-0.19079 19.38718,0.43007 11.15367,1.73096 22.15156,4.71642 35.41889,9.61481 11.23597,4.14838 20.79052,8.29838 39.93444,17.34541 24.36569,11.51472 33.33525,15.12217 43.88556,17.65023 8.66205,2.0756 16.09189,2.48446 23.14223,1.27353 9.6886,-1.66407 22.39286,-6.80935 31.10458,-12.59747 8.73481,-5.80351 17.92605,-14.91333 24.97989,-24.75871 6.00823,-8.38598 13.40375,-22.484 17.49589,-33.35223 10.51001,-27.91345 15.65475,-60.0142 15.08469,-94.12112 -0.17723,-10.60408 -0.42057,-15.00728 -1.3335,-24.13 -3.17029,-31.68013 -12.01349,-61.61708 -24.67658,-83.53778 -2.33463,-4.04143 -7.87756,-12.17761 -10.76706,-15.80445 -3.55182,-4.45815 -11.98403,-12.79014 -15.90458,-15.7156 -10.08182,-7.52286 -22.30383,-13.19996 -33.7266,-15.66593 -3.46944,-0.74896 -4.04187,-0.79118 -10.58229,-0.78009 -7.59119,0.013 -9.18094,0.20602 -16.08667,1.95447 -9.62742,2.43753 -19.76258,6.53855 -41.34556,16.72982 -22.84944,10.78928 -33.39459,15.21444 -47.27222,19.83721 -18.71898,6.2355 -32.84545,8.56206 -46.37928,7.63843 -10.82613,-0.73883 -19.93217,-4.2619 -27.32221,-10.57078 -8.1004,-6.91526 -14.94799,-19.41931 -18.83568,-34.39493 -2.56826,-9.89293 -4.4986,-23.38623 -5.42124,-37.89483 -0.20182,-3.1737 -0.37248,-19.03298 -0.4548,-42.26278 l -0.13177,-37.18278 -44.636947,0.005 c -44.742329,0.005 -58.2241418,0.19417 -70.319199,0.98704 -27.932495,1.83109 -44.601697,5.5015 -48.067782,10.58413 -0.580587,0.85138 -0.648123,1.20131 -0.504924,2.61674 0.665452,6.57862 8.037577,25.92468 17.379359,45.60719 1.518384,3.19916 5.489505,11.40466 8.824694,18.23444 7.906964,16.19179 10.074883,21.07277 13.851355,31.18556 4.015063,10.75168 6.578092,20.50051 7.976334,30.33889 0.604831,4.25568 0.851493,17.15496 0.417012,21.80739 -1.376765,14.74236 -6.271458,30.18596 -15.539665,49.03039 -4.300841,8.74463 -8.88238,16.16496 -13.673413,22.14567 -13.998139,17.47416 -33.530317,31.91854 -58.389044,43.17978 -52.12851,23.61466 -122.96225,30.71091 -187.15839,18.74983 -41.33699,-7.70193 -76.30276,-22.70865 -101.6,-43.60498 -4.11173,-3.3964 -13.96292,-13.38326 -17.23189,-17.46919 -6.73701,-8.42063 -12.00133,-17.29489 -17.49517,-29.49222 -6.84325,-15.19327 -10.45433,-26.95908 -12.16975,-39.65223 -0.6364,-4.70896 -0.72293,-17.66875 -0.14886,-22.29555 1.80435,-14.54255 5.90493,-28.38752 13.66665,-46.14334 1.08565,-2.48356 5.91183,-12.51656 10.72484,-22.29556 14.99812,-30.47297 18.24887,-37.93109 20.66597,-47.41333 0.88292,-3.46369 1.2101,-8.43763 0.74858,-11.38025 -0.76071,-4.85024 -4.10626,-8.34285 -9.94596,-10.38312 -8.9942,-3.14238 -22.99051,-3.61315 -57.53553,-1.9352 -14.72926,0.71543 -63.564,3.23709 -65.96945,3.40642 l -2.32833,0.16392 V 489.0304 c 0,157.27794 0.0847,286.04455 0.18815,286.14801 0.10348,0.10361 141.43384,0.18827 314.06747,0.18827 H 103.766 Z"
         id="path29"
         inkscape:connector-curvature="0" />
      <path
         style="fill:#6bbe65;stroke-width:0.28222224"
         d="M -599.72229,146.99887 V -556.72229 H 103.99887 807.72002 V 146.99887 850.72002 H 103.99887 -599.72229 Z m 703.6771,624.08961 c 0.10183,-2.353 0.18903,-17.62475 0.19375,-33.93723 0.009,-30.10831 0.29918,-50.55419 0.8343,-58.72791 2.33934,-35.73317 7.74582,-57.64423 17.89357,-72.51807 1.87127,-2.74278 7.19636,-8.3141 9.9091,-10.36727 5.82499,-4.40873 13.5259,-7.30532 21.71421,-8.16748 3.89012,-0.40959 14.42929,-0.15545 18.50246,0.44616 17.10451,2.52637 35.87401,8.75733 61.59715,20.44856 2.6764,1.21643 9.50169,4.40345 15.1673,7.08228 21.78254,10.29922 31.76728,14.34265 41.48667,16.80035 14.69348,3.71551 24.81896,2.97914 39.51112,-2.87339 13.45305,-5.35892 22.94895,-11.97477 32.95359,-22.95892 21.44057,-23.5397 35.8878,-62.86983 39.70537,-108.09112 1.47447,-17.46574 1.26399,-38.38171 -0.55519,-55.17444 -4.36141,-40.25997 -16.67293,-74.17958 -35.59644,-98.07223 -2.95292,-3.72833 -12.50326,-13.09068 -15.83662,-15.52491 -11.20227,-8.18058 -24.25474,-13.9188 -36.30969,-15.9628 -3.90158,-0.66153 -13.88023,-0.4408 -18.3688,0.40635 -10.76091,2.03087 -22.0139,6.2896 -43.74445,16.55515 -22.2379,10.50522 -32.4143,14.90845 -44.87334,19.41624 -11.58274,4.19075 -23.23363,7.29147 -33.02,8.78781 -7.65951,1.17117 -20.20271,1.11049 -25.86392,-0.12508 -10.20236,-2.2267 -18.73933,-7.11415 -24.69481,-14.13789 -10.46539,-12.34257 -16.62264,-31.26854 -19.13698,-58.82265 -0.94491,-10.35511 -1.06376,-15.48116 -1.19959,-51.73938 l -0.13781,-36.78163 -51.690102,0.12688 c -50.0129985,0.12277 -53.897449,0.18475 -65.942356,1.0521 -23.545265,1.69553 -39.508263,4.97211 -44.171788,9.06673 -1.523746,1.33787 -1.930428,2.31828 -1.731602,4.17443 0.65738,6.13704 7.175782,23.5125 15.782008,42.06864 1.475825,3.18206 5.665499,11.88156 9.310399,19.33222 9.731841,19.89326 13.1804,27.84955 16.977333,39.16898 4.659997,13.89242 6.646701,25.08366 6.652853,37.4759 0.0045,8.93126 -0.81836,15.69694 -2.981734,24.51831 -3.914028,15.95983 -14.203681,38.5835 -23.354681,51.34949 -10.524462,14.68202 -25.691904,27.90661 -44.216125,38.5524 -48.141355,27.66659 -118.085145,39.10658 -186.266675,30.46575 -37.20607,-4.71523 -73.04326,-16.22529 -98.77779,-31.72514 -11.47697,-6.91252 -19.74349,-13.15567 -28.01828,-21.16031 -11.96065,-11.57016 -19.51204,-22.55543 -27.41349,-39.87936 -7.01722,-15.38529 -10.65638,-27.17473 -12.48004,-40.43045 -0.6942,-5.04591 -0.70146,-17.89225 -0.013,-23.06436 1.35466,-10.17756 3.50901,-18.82584 7.47159,-29.99343 3.63472,-10.24359 6.54988,-16.74876 17.13701,-38.24111 13.19641,-26.78935 16.26261,-33.56365 18.84162,-41.62778 2.07595,-6.49117 2.30358,-7.75676 2.31224,-12.85576 l 0.008,-4.67128 -1.06093,-2.14664 c -2.9272,-5.9228 -9.87516,-8.75482 -24.05685,-9.8057 -5.05575,-0.37462 -18.21389,-0.37745 -27.17481,-0.006 -14.20921,0.58925 -78.38969,3.81898 -81.83353,4.11807 l -1.76389,0.1532 V 489.21571 775.3666 h 314.0693 314.06927 l 0.18519,-4.27821 z m -306.02596,-323.8264 c 25.44905,-1.8594 48.54087,-6.89952 69.73457,-15.22056 31.46482,-12.35368 51.664056,-28.08836 61.226282,-47.69375 4.70377,-9.64404 6.606315,-18.51231 6.569344,-30.62111 -0.03587,-11.73986 -1.928114,-22.16272 -6.558337,-36.12445 -2.987492,-9.00834 -5.596636,-15.27113 -12.286856,-29.49222 -14.387069,-30.58206 -21.363743,-50.57321 -24.475243,-70.13223 -0.5776,-3.63087 -0.65112,-5.07856 -0.65205,-12.84111 0,-9.75564 0.20938,-11.59423 2.01397,-17.58733 5.17347,-17.18113 19.701059,-28.64807 44.008804,-34.73699 9.885285,-2.47621 20.770654,-4.04568 35.538412,-5.12397 2.582305,-0.18855 19.1200771,-0.36886 42.403892,-0.46233 l 38.170558,-0.15325 -0.0127,-42.51139 C 53.595949,59.091153 53.276078,24.252511 52.783798,14.636635 51.923613,-2.1664822 50.674921,-13.989957 49.574423,-15.752125 49.397667,-16.035137 48.945519,-16.2667 48.569599,-16.2667 c -2.31998,0 -22.734695,8.2749815 -56.0012179,22.699727 -14.9992941,6.503868 -21.8783201,9.309214 -29.1162191,11.873936 -15.49403,5.490267 -32.644816,9.367549 -46.893737,10.601368 -5.268666,0.456213 -22.938145,0.186098 -27.048495,-0.413483 -14.32447,-2.089489 -24.86344,-5.243182 -36.40666,-10.894259 -12.83256,-6.282295 -24.4365,-14.5767784 -35.47365,-25.3564544 -32.55837,-31.7989396 -50.6826,-63.9084076 -59.34896,-105.1444646 -6.71218,-31.93771 -7.9646,-77.69423 -3.09338,-113.01482 4.84363,-35.12053 16.04667,-66.33525 32.74023,-91.22309 6.82783,-10.17937 14.08303,-18.72803 23.26575,-27.41359 9.58438,-9.06548 18.19129,-15.19158 28.78667,-20.48938 15.28183,-7.64106 32.376,-12.3466 51.64667,-14.21686 5.07501,-0.49253 24.014659,-0.49352 28.78667,-0.001 18.895964,1.9483 36.121258,6.55947 50.094448,13.41017 2.328333,1.14152 7.916334,4.08749 12.417778,6.5466 13.5083138,7.3795 22.3940528,11.52023 30.645215,14.28059 6.367724,2.13027 8.878966,2.58538 14.369233,2.60415 5.183547,0.0177 6.571375,-0.28917 10.018889,-2.2155 7.327167,-4.09415 11.769909,-13.84221 13.955184,-30.61984 1.425477,-10.94417 1.436991,-11.37182 1.622242,-60.18389 l 0.174329,-45.93167 H -235.32932 -524.36923 l 0.0707,314.18391 0.0707,314.18391 45.86111,0.1754 c 46.7541,0.17879 49.40162,0.23786 62.51223,1.39488 42.34755,3.73725 65.45503,13.97455 74.81,33.14305 7.97024,16.33119 6.15339,38.47254 -5.81491,70.86446 -4.0714,11.01914 -7.37546,18.65743 -16.23095,37.52243 -10.26888,21.87601 -13.43011,29.26681 -16.29683,38.10122 -3.13604,9.66436 -4.03756,15.36793 -3.78939,23.97413 0.21807,7.56197 1.45553,13.08557 4.77364,21.30777 4.74158,11.74951 9.39783,18.9486 17.864,27.61983 6.01114,6.15673 11.28003,10.57596 17.80271,14.93184 27.1731,18.14638 66.29554,29.57201 108.4614,31.67597 6.48002,0.32332 25.21523,0.0628 32.20368,-0.44777 z"
         id="path27"
         inkscape:connector-curvature="0" />
      <path
         style="fill:#1088c9;stroke-width:0.28222224"
         d="M -599.72229,146.99887 V -556.72229 H 103.99887 807.72002 V 146.99887 850.72002 H 103.99887 -599.72229 Z m 703.6771,624.08961 c 0.10183,-2.353 0.18903,-17.62475 0.19375,-33.93723 0.009,-30.10831 0.29918,-50.55419 0.8343,-58.72791 2.33934,-35.73317 7.74582,-57.64423 17.89357,-72.51807 1.87127,-2.74278 7.19636,-8.3141 9.9091,-10.36727 5.82499,-4.40873 13.5259,-7.30532 21.71421,-8.16748 3.89012,-0.40959 14.42929,-0.15545 18.50246,0.44616 17.10451,2.52637 35.87401,8.75733 61.59715,20.44856 2.6764,1.21643 9.50169,4.40345 15.1673,7.08228 21.78254,10.29922 31.76728,14.34265 41.48667,16.80035 14.69348,3.71551 24.81896,2.97914 39.51112,-2.87339 13.45305,-5.35892 22.94895,-11.97477 32.95359,-22.95892 21.44057,-23.5397 35.8878,-62.86983 39.70537,-108.09112 1.47447,-17.46574 1.26399,-38.38171 -0.55519,-55.17444 -4.36141,-40.25997 -16.67293,-74.17958 -35.59644,-98.07223 -2.95292,-3.72833 -12.50326,-13.09068 -15.83662,-15.52491 -11.20227,-8.18058 -24.25474,-13.9188 -36.30969,-15.9628 -3.90158,-0.66153 -13.88023,-0.4408 -18.3688,0.40635 -10.76091,2.03087 -22.0139,6.2896 -43.74445,16.55515 -22.2379,10.50522 -32.4143,14.90845 -44.87334,19.41624 -11.58274,4.19075 -23.23363,7.29147 -33.02,8.78781 -7.65951,1.17117 -20.20271,1.11049 -25.86392,-0.12508 -10.20236,-2.2267 -18.73933,-7.11415 -24.69481,-14.13789 -10.46539,-12.34257 -16.62264,-31.26854 -19.13698,-58.82265 -0.94491,-10.35511 -1.06376,-15.48116 -1.19959,-51.73938 l -0.13781,-36.78163 -51.690102,0.12688 c -50.0129985,0.12277 -53.897449,0.18475 -65.942356,1.0521 -23.545265,1.69553 -39.508263,4.97211 -44.171788,9.06673 -1.523746,1.33787 -1.930428,2.31828 -1.731602,4.17443 0.65738,6.13704 7.175782,23.5125 15.782008,42.06864 1.475825,3.18206 5.665499,11.88156 9.310399,19.33222 9.731841,19.89326 13.1804,27.84955 16.977333,39.16898 4.659997,13.89242 6.646701,25.08366 6.652853,37.4759 0.0045,8.93126 -0.81836,15.69694 -2.981734,24.51831 -3.914028,15.95983 -14.203681,38.5835 -23.354681,51.34949 -10.524462,14.68202 -25.691904,27.90661 -44.216125,38.5524 -48.141355,27.66659 -118.085145,39.10658 -186.266675,30.46575 -37.20607,-4.71523 -73.04326,-16.22529 -98.77779,-31.72514 -11.47697,-6.91252 -19.74349,-13.15567 -28.01828,-21.16031 -11.96065,-11.57016 -19.51204,-22.55543 -27.41349,-39.87936 -7.01722,-15.38529 -10.65638,-27.17473 -12.48004,-40.43045 -0.6942,-5.04591 -0.70146,-17.89225 -0.013,-23.06436 1.35466,-10.17756 3.50901,-18.82584 7.47159,-29.99343 3.63472,-10.24359 6.54988,-16.74876 17.13701,-38.24111 13.19641,-26.78935 16.26261,-33.56365 18.84162,-41.62778 2.07595,-6.49117 2.30358,-7.75676 2.31224,-12.85576 l 0.008,-4.67128 -1.06093,-2.14664 c -2.9272,-5.9228 -9.87516,-8.75482 -24.05685,-9.8057 -5.05575,-0.37462 -18.21389,-0.37745 -27.17481,-0.006 -14.20921,0.58925 -78.38969,3.81898 -81.83353,4.11807 l -1.76389,0.1532 V 489.21571 775.3666 h 314.0693 314.06927 l 0.18519,-4.27821 z M 732.22557,461.11222 V 146.99887 l -48.82445,-0.18969 c -30.41054,-0.11813 -50.79356,-0.30889 -54.04555,-0.50582 -30.88906,-1.87049 -54.06766,-5.86817 -65.33445,-11.26843 -3.51488,-1.68473 -5.18635,-3.0046 -7.60183,-6.00287 -5.55393,-6.89387 -9.10336,-15.81297 -10.93224,-27.47098 -0.74256,-4.733285 -1.0265,-17.630616 -0.53072,-24.105923 1.05407,-13.767027 3.87886,-27.356451 8.80465,-42.35741 3.4504,-10.507783 6.40317,-17.752033 12.00187,-29.4449234 6.21185,-12.9734741 8.56813,-17.9940666 9.81425,-20.9115386 4.10402,-9.608426 7.11818,-20.438846 8.52771,-30.641321 0.70186,-5.080254 0.71278,-18.360306 0.0186,-22.749596 -3.05491,-19.319184 -12.19813,-34.519078 -28.71019,-47.728548 -5.99753,-4.79795 -12.14348,-8.5175 -21.74536,-13.16034 -6.33383,-3.06261 -8.95889,-4.13444 -15.79019,-6.44717 -19.19809,-6.49952 -40.20668,-10.22042 -66.88668,-11.8465 -7.54134,-0.45965 -33.06335,-0.45678 -40.64,0.005 -41.1189,2.5037 -72.68097,10.82886 -95.67334,25.23583 -6.57699,4.12115 -10.52914,7.26104 -16.18059,12.85519 -4.62585,4.57895 -6.7076,7.01571 -9.5701,11.20211 -8.38355,12.260891 -12.37098,25.374856 -12.38112,40.719081 -0.006,9.836038 1.23673,18.146524 4.29266,28.69537 2.4677,8.518342 4.98283,14.613016 11.82641,28.6577776 7.4939,15.3793344 10.42515,22.2958114 14.29312,33.7255574 4.46554,13.19547 7.29965,25.576701 9.01198,39.370003 0.69172,5.571913 0.84858,19.713929 0.2786,25.117779 -1.34732,12.773772 -4.90665,22.935212 -10.64553,30.391722 -0.6197,0.80518 -2.12818,2.42073 -3.35215,3.59012 -1.78788,1.70812 -2.79649,2.40039 -5.1299,3.52095 -10.0595,4.8308 -28.00257,8.54786 -51.3056,10.62835 -6.92311,0.61812 -28.14896,0.94496 -62.44167,0.96153 l -28.99825,0.014 0.005,43.6739 c 0.003,24.02064 0.12884,46.91239 0.28067,50.87055 1.11023,28.94367 5.24183,54.23747 9.91263,60.68529 1.27432,1.75915 2.59634,2.23661 6.21349,2.24407 7.09276,0.0147 18.56046,-3.03102 33.04385,-8.77593 7.41644,-2.94174 11.64641,-4.86873 25.33365,-11.54072 12.29236,-5.99206 16.26729,-7.80641 22.43667,-10.24111 26.83708,-10.59112 53.16974,-14.39838 77.3151,-11.17851 41.84585,5.58032 75.95585,31.67008 98.6676,75.46803 15.2582,29.42438 24.71711,67.5164 27.36571,110.20477 0.90427,14.57455 0.83602,38.13144 -0.15438,53.29326 -4.19721,64.25306 -23.73122,115.94334 -56.01245,148.21833 -37.73492,37.72766 -89.93356,46.98376 -149.04961,26.43008 -9.42453,-3.27674 -16.73654,-6.40277 -30.30465,-12.95586 -11.31195,-5.46337 -15.06077,-7.18558 -20.74399,-9.52969 -13.86033,-5.71686 -24.86138,-8.79582 -31.61149,-8.84741 -3.82222,-0.0292 -4.86136,0.43392 -5.98827,2.66883 -2.96246,5.87528 -5.35692,23.21326 -6.42753,46.54105 -0.15313,3.33728 -0.27917,22.99058 -0.28002,43.67403 l -0.003,37.60626 288.92502,-0.0707 288.92502,-0.0707 V 461.11222 Z m -934.29672,-13.85014 c 25.44905,-1.8594 48.54087,-6.89952 69.73457,-15.22056 31.46482,-12.35368 51.664056,-28.08836 61.226282,-47.69375 4.70377,-9.64404 6.606315,-18.51231 6.569344,-30.62111 -0.03587,-11.73986 -1.928114,-22.16272 -6.558337,-36.12445 -2.987492,-9.00834 -5.596636,-15.27113 -12.286856,-29.49222 -14.387069,-30.58206 -21.363743,-50.57321 -24.475243,-70.13223 -0.5776,-3.63087 -0.65112,-5.07856 -0.65205,-12.84111 0,-9.75564 0.20938,-11.59423 2.01397,-17.58733 5.17347,-17.18113 19.701059,-28.64807 44.008804,-34.73699 9.885285,-2.47621 20.770654,-4.04568 35.538412,-5.12397 2.582305,-0.18855 19.1200771,-0.36886 42.403892,-0.46233 l 38.170558,-0.15325 -0.0127,-42.51139 C 53.595949,59.091153 53.276078,24.252511 52.783798,14.636635 51.923613,-2.1664822 50.674921,-13.989957 49.574423,-15.752125 49.397667,-16.035137 48.945519,-16.2667 48.569599,-16.2667 c -2.31998,0 -22.734695,8.2749815 -56.0012179,22.699727 -14.9992941,6.503868 -21.8783201,9.309214 -29.1162191,11.873936 -15.49403,5.490267 -32.644816,9.367549 -46.893737,10.601368 -5.268666,0.456213 -22.938145,0.186098 -27.048495,-0.413483 -14.32447,-2.089489 -24.86344,-5.243182 -36.40666,-10.894259 -12.83256,-6.282295 -24.4365,-14.5767784 -35.47365,-25.3564544 -32.55837,-31.7989396 -50.6826,-63.9084076 -59.34896,-105.1444646 -6.71218,-31.93771 -7.9646,-77.69423 -3.09338,-113.01482 4.84363,-35.12053 16.04667,-66.33525 32.74023,-91.22309 6.82783,-10.17937 14.08303,-18.72803 23.26575,-27.41359 9.58438,-9.06548 18.19129,-15.19158 28.78667,-20.48938 15.28183,-7.64106 32.376,-12.3466 51.64667,-14.21686 5.07501,-0.49253 24.014659,-0.49352 28.78667,-0.001 18.895964,1.9483 36.121258,6.55947 50.094448,13.41017 2.328333,1.14152 7.916334,4.08749 12.417778,6.5466 13.5083138,7.3795 22.3940528,11.52023 30.645215,14.28059 6.367724,2.13027 8.878966,2.58538 14.369233,2.60415 5.183547,0.0177 6.571375,-0.28917 10.018889,-2.2155 7.327167,-4.09415 11.769909,-13.84221 13.955184,-30.61984 1.425477,-10.94417 1.436991,-11.37182 1.622242,-60.18389 l 0.174329,-45.93167 H -235.32932 -524.36923 l 0.0707,314.18391 0.0707,314.18391 45.86111,0.1754 c 46.7541,0.17879 49.40162,0.23786 62.51223,1.39488 42.34755,3.73725 65.45503,13.97455 74.81,33.14305 7.97024,16.33119 6.15339,38.47254 -5.81491,70.86446 -4.0714,11.01914 -7.37546,18.65743 -16.23095,37.52243 -10.26888,21.87601 -13.43011,29.26681 -16.29683,38.10122 -3.13604,9.66436 -4.03756,15.36793 -3.78939,23.97413 0.21807,7.56197 1.45553,13.08557 4.77364,21.30777 4.74158,11.74951 9.39783,18.9486 17.864,27.61983 6.01114,6.15673 11.28003,10.57596 17.80271,14.93184 27.1731,18.14638 66.29554,29.57201 108.4614,31.67597 6.48002,0.32332 25.21523,0.0628 32.20368,-0.44777 z M 178.7038,96.411996 c -1.28795,-0.05241 -3.31995,-0.0521 -4.51556,0 -1.1956,0.05278 -0.14181,0.09567 2.34174,0.09531 2.48356,0 3.46177,-0.04352 2.17382,-0.09596 z m -74.63904,-4.650683 c -0.0596,-0.663787 -0.10924,-0.190895 -0.11026,1.050882 0,1.241778 0.0478,1.784887 0.1084,1.206896 0.0606,-0.577963 0.0615,-1.593963 0.003,-2.257778 z m -0.29644,-62.643149 c -0.0901,-0.225129 -0.15697,-0.158271 -0.17052,0.170518 -0.0121,0.297491 0.0545,0.464199 0.14825,0.370417 0.0938,-0.09378 0.1038,-0.337199 0.0223,-0.540935 z m -191.615892,-60.23094 c -0.09378,-0.09378 -0.3372,-0.103801 -0.540936,-0.02229 -0.225128,0.09008 -0.15827,0.156972 0.170519,0.170519 0.29749,0.01214 0.464199,-0.05447 0.370417,-0.148252 z M 220.33547,-51.756147 c -0.0647,-0.426861 -0.11757,-0.07761 -0.11757,0.776111 0,0.853722 0.0529,1.202972 0.11757,0.776111 0.0647,-0.426861 0.0647,-1.125361 0,-1.552222 z m -0.009,-13.952362 c -0.0901,-0.225129 -0.15697,-0.15827 -0.17052,0.170519 -0.0121,0.29749 0.0545,0.464199 0.14825,0.370416 0.0938,-0.09378 0.1038,-0.337199 0.0223,-0.540935 z m 421.06971,-1.42875 c -0.0783,-0.194028 -0.14235,-0.03528 -0.14235,0.352778 0,0.388055 0.0641,0.546805 0.14235,0.352777 0.0783,-0.194027 0.0783,-0.511527 0,-0.705555 z M 42.968306,-67.535842 c -0.194028,-0.07829 -0.511528,-0.07829 -0.705556,0 -0.194027,0.07829 -0.03528,0.142353 0.352778,0.142353 0.388056,0 0.546806,-0.06406 0.352778,-0.142353 z m 1.26413,0.01637 c -0.09378,-0.09378 -0.337199,-0.103801 -0.540935,-0.02229 -0.225129,0.09009 -0.158271,0.156972 0.170518,0.170518 0.297491,0.01214 0.464199,-0.05447 0.370417,-0.148251 z M 608.1889,-147.87963 c 0,-0.0536 -0.28575,-0.33932 -0.635,-0.635 l -0.635,-0.53763 0.53763,0.635 c 0.50523,0.59673 0.73237,0.76346 0.73237,0.53763 z M 39.017195,-283.43585 c -0.194028,-0.0783 -0.511528,-0.0783 -0.705556,0 -0.194028,0.0783 -0.03528,0.14235 0.352778,0.14235 0.388055,0 0.546805,-0.0641 0.352778,-0.14235 z m -186.337235,-27.61198 c 0.52657,-0.54328 0.89388,-0.98778 0.81627,-0.98778 -0.0776,0 -0.57192,0.4445 -1.09849,0.98778 -0.52657,0.54328 -0.89388,0.98778 -0.81627,0.98778 0.0776,0 0.57192,-0.4445 1.09849,-0.98778 z m 251.09809,-67.80001 c -0.0649,-0.429 -0.11969,-0.14499 -0.1218,0.63112 -0.003,0.77611 0.051,1.1271 0.11794,0.77999 0.067,-0.34712 0.0687,-0.98212 0.004,-1.41111 z m 0.28635,-100.61611 c -0.0594,-0.6597 -0.10804,-0.11995 -0.10804,1.19944 0,1.31939 0.0486,1.85914 0.10804,1.19945 0.0594,-0.6597 0.0594,-1.7392 0,-2.39889 z"
         id="path25"
         inkscape:connector-curvature="0" />
      <path
         style="fill:#040602;stroke-width:0.28222224"
         d="M -599.72229,146.99887 V -556.72229 H 103.99887 807.72002 V 146.99887 850.72002 H 103.99887 -599.72229 Z m 703.6771,624.08961 c 0.10183,-2.353 0.18903,-17.62475 0.19375,-33.93723 0.009,-30.10831 0.29918,-50.55419 0.8343,-58.72791 2.33934,-35.73317 7.74582,-57.64423 17.89357,-72.51807 1.87127,-2.74278 7.19636,-8.3141 9.9091,-10.36727 5.82499,-4.40873 13.5259,-7.30532 21.71421,-8.16748 3.89012,-0.40959 14.42929,-0.15545 18.50246,0.44616 17.10451,2.52637 35.87401,8.75733 61.59715,20.44856 2.6764,1.21643 9.50169,4.40345 15.1673,7.08228 21.78254,10.29922 31.76728,14.34265 41.48667,16.80035 14.69348,3.71551 24.81896,2.97914 39.51112,-2.87339 13.45305,-5.35892 22.94895,-11.97477 32.95359,-22.95892 21.44057,-23.5397 35.8878,-62.86983 39.70537,-108.09112 1.47447,-17.46574 1.26399,-38.38171 -0.55519,-55.17444 -4.36141,-40.25997 -16.67293,-74.17958 -35.59644,-98.07223 -2.95292,-3.72833 -12.50326,-13.09068 -15.83662,-15.52491 -11.20227,-8.18058 -24.25474,-13.9188 -36.30969,-15.9628 -3.90158,-0.66153 -13.88023,-0.4408 -18.3688,0.40635 -10.76091,2.03087 -22.0139,6.2896 -43.74445,16.55515 -22.2379,10.50522 -32.4143,14.90845 -44.87334,19.41624 -11.58274,4.19075 -23.23363,7.29147 -33.02,8.78781 -7.65951,1.17117 -20.20271,1.11049 -25.86392,-0.12508 -10.20236,-2.2267 -18.73933,-7.11415 -24.69481,-14.13789 -10.46539,-12.34257 -16.62264,-31.26854 -19.13698,-58.82265 -0.94491,-10.35511 -1.06376,-15.48116 -1.19959,-51.73938 l -0.13781,-36.78163 -51.690102,0.12688 c -50.0129985,0.12277 -53.897449,0.18475 -65.942356,1.0521 -23.545265,1.69553 -39.508263,4.97211 -44.171788,9.06673 -1.523746,1.33787 -1.930428,2.31828 -1.731602,4.17443 0.65738,6.13704 7.175782,23.5125 15.782008,42.06864 1.475825,3.18206 5.665499,11.88156 9.310399,19.33222 9.731841,19.89326 13.1804,27.84955 16.977333,39.16898 4.659997,13.89242 6.646701,25.08366 6.652853,37.4759 0.0045,8.93126 -0.81836,15.69694 -2.981734,24.51831 -3.914028,15.95983 -14.203681,38.5835 -23.354681,51.34949 -10.524462,14.68202 -25.691904,27.90661 -44.216125,38.5524 -48.141355,27.66659 -118.085145,39.10658 -186.266675,30.46575 -37.20607,-4.71523 -73.04326,-16.22529 -98.77779,-31.72514 -11.47697,-6.91252 -19.74349,-13.15567 -28.01828,-21.16031 -11.96065,-11.57016 -19.51204,-22.55543 -27.41349,-39.87936 -7.01722,-15.38529 -10.65638,-27.17473 -12.48004,-40.43045 -0.6942,-5.04591 -0.70146,-17.89225 -0.013,-23.06436 1.35466,-10.17756 3.50901,-18.82584 7.47159,-29.99343 3.63472,-10.24359 6.54988,-16.74876 17.13701,-38.24111 13.19641,-26.78935 16.26261,-33.56365 18.84162,-41.62778 2.07595,-6.49117 2.30358,-7.75676 2.31224,-12.85576 l 0.008,-4.67128 -1.06093,-2.14664 c -2.9272,-5.9228 -9.87516,-8.75482 -24.05685,-9.8057 -5.05575,-0.37462 -18.21389,-0.37745 -27.17481,-0.006 -14.20921,0.58925 -78.38969,3.81898 -81.83353,4.11807 l -1.76389,0.1532 V 489.21571 775.3666 h 314.0693 314.06927 l 0.18519,-4.27821 z M 732.22557,461.11222 V 146.99887 l -48.82445,-0.18969 c -30.41054,-0.11813 -50.79356,-0.30889 -54.04555,-0.50582 -30.88906,-1.87049 -54.06766,-5.86817 -65.33445,-11.26843 -3.51488,-1.68473 -5.18635,-3.0046 -7.60183,-6.00287 -5.55393,-6.89387 -9.10336,-15.81297 -10.93224,-27.47098 -0.74256,-4.733285 -1.0265,-17.630616 -0.53072,-24.105923 1.05407,-13.767027 3.87886,-27.356451 8.80465,-42.35741 3.4504,-10.507783 6.40317,-17.752033 12.00187,-29.4449234 6.21185,-12.9734741 8.56813,-17.9940666 9.81425,-20.9115386 4.10402,-9.608426 7.11818,-20.438846 8.52771,-30.641321 0.70186,-5.080254 0.71278,-18.360306 0.0186,-22.749596 -3.05491,-19.319184 -12.19813,-34.519078 -28.71019,-47.728548 -5.99753,-4.79795 -12.14348,-8.5175 -21.74536,-13.16034 -6.33383,-3.06261 -8.95889,-4.13444 -15.79019,-6.44717 -19.19809,-6.49952 -40.20668,-10.22042 -66.88668,-11.8465 -7.54134,-0.45965 -33.06335,-0.45678 -40.64,0.005 -41.1189,2.5037 -72.68097,10.82886 -95.67334,25.23583 -6.57699,4.12115 -10.52914,7.26104 -16.18059,12.85519 -4.62585,4.57895 -6.7076,7.01571 -9.5701,11.20211 -8.38355,12.260891 -12.37098,25.374856 -12.38112,40.719081 -0.006,9.836038 1.23673,18.146524 4.29266,28.69537 2.4677,8.518342 4.98283,14.613016 11.82641,28.6577776 7.4939,15.3793344 10.42515,22.2958114 14.29312,33.7255574 4.46554,13.19547 7.29965,25.576701 9.01198,39.370003 0.69172,5.571913 0.84858,19.713929 0.2786,25.117779 -1.34732,12.773772 -4.90665,22.935212 -10.64553,30.391722 -0.6197,0.80518 -2.12818,2.42073 -3.35215,3.59012 -1.78788,1.70812 -2.79649,2.40039 -5.1299,3.52095 -10.0595,4.8308 -28.00257,8.54786 -51.3056,10.62835 -6.92311,0.61812 -28.14896,0.94496 -62.44167,0.96153 l -28.99825,0.014 0.005,43.6739 c 0.003,24.02064 0.12884,46.91239 0.28067,50.87055 1.11023,28.94367 5.24183,54.23747 9.91263,60.68529 1.27432,1.75915 2.59634,2.23661 6.21349,2.24407 7.09276,0.0147 18.56046,-3.03102 33.04385,-8.77593 7.41644,-2.94174 11.64641,-4.86873 25.33365,-11.54072 12.29236,-5.99206 16.26729,-7.80641 22.43667,-10.24111 26.83708,-10.59112 53.16974,-14.39838 77.3151,-11.17851 41.84585,5.58032 75.95585,31.67008 98.6676,75.46803 15.2582,29.42438 24.71711,67.5164 27.36571,110.20477 0.90427,14.57455 0.83602,38.13144 -0.15438,53.29326 -4.19721,64.25306 -23.73122,115.94334 -56.01245,148.21833 -37.73492,37.72766 -89.93356,46.98376 -149.04961,26.43008 -9.42453,-3.27674 -16.73654,-6.40277 -30.30465,-12.95586 -11.31195,-5.46337 -15.06077,-7.18558 -20.74399,-9.52969 -13.86033,-5.71686 -24.86138,-8.79582 -31.61149,-8.84741 -3.82222,-0.0292 -4.86136,0.43392 -5.98827,2.66883 -2.96246,5.87528 -5.35692,23.21326 -6.42753,46.54105 -0.15313,3.33728 -0.27917,22.99058 -0.28002,43.67403 l -0.003,37.60626 288.92502,-0.0707 288.92502,-0.0707 V 461.11222 Z m -934.29672,-13.85014 c 25.44905,-1.8594 48.54087,-6.89952 69.73457,-15.22056 31.46482,-12.35368 51.664056,-28.08836 61.226282,-47.69375 4.70377,-9.64404 6.606315,-18.51231 6.569344,-30.62111 -0.03587,-11.73986 -1.928114,-22.16272 -6.558337,-36.12445 -2.987492,-9.00834 -5.596636,-15.27113 -12.286856,-29.49222 -14.387069,-30.58206 -21.363743,-50.57321 -24.475243,-70.13223 -0.5776,-3.63087 -0.65112,-5.07856 -0.65205,-12.84111 0,-9.75564 0.20938,-11.59423 2.01397,-17.58733 5.17347,-17.18113 19.701059,-28.64807 44.008804,-34.73699 9.885285,-2.47621 20.770654,-4.04568 35.538412,-5.12397 2.582305,-0.18855 19.1200771,-0.36886 42.403892,-0.46233 l 38.170558,-0.15325 -0.0127,-42.51139 C 53.595949,59.091153 53.276078,24.252511 52.783798,14.636635 51.923613,-2.1664822 50.674921,-13.989957 49.574423,-15.752125 49.397667,-16.035137 48.945519,-16.2667 48.569599,-16.2667 c -2.31998,0 -22.734695,8.2749815 -56.0012179,22.699727 -14.9992941,6.503868 -21.8783201,9.309214 -29.1162191,11.873936 -15.49403,5.490267 -32.644816,9.367549 -46.893737,10.601368 -5.268666,0.456213 -22.938145,0.186098 -27.048495,-0.413483 -14.32447,-2.089489 -24.86344,-5.243182 -36.40666,-10.894259 -12.83256,-6.282295 -24.4365,-14.5767784 -35.47365,-25.3564544 -32.55837,-31.7989396 -50.6826,-63.9084076 -59.34896,-105.1444646 -6.71218,-31.93771 -7.9646,-77.69423 -3.09338,-113.01482 4.84363,-35.12053 16.04667,-66.33525 32.74023,-91.22309 6.82783,-10.17937 14.08303,-18.72803 23.26575,-27.41359 9.58438,-9.06548 18.19129,-15.19158 28.78667,-20.48938 15.28183,-7.64106 32.376,-12.3466 51.64667,-14.21686 5.07501,-0.49253 24.014659,-0.49352 28.78667,-0.001 18.895964,1.9483 36.121258,6.55947 50.094448,13.41017 2.328333,1.14152 7.916334,4.08749 12.417778,6.5466 13.5083138,7.3795 22.3940528,11.52023 30.645215,14.28059 6.367724,2.13027 8.878966,2.58538 14.369233,2.60415 5.183547,0.0177 6.571375,-0.28917 10.018889,-2.2155 7.327167,-4.09415 11.769909,-13.84221 13.955184,-30.61984 1.425477,-10.94417 1.436991,-11.37182 1.622242,-60.18389 l 0.174329,-45.93167 H -235.32932 -524.36923 l 0.0707,314.18391 0.0707,314.18391 45.86111,0.1754 c 46.7541,0.17879 49.40162,0.23786 62.51223,1.39488 42.34755,3.73725 65.45503,13.97455 74.81,33.14305 7.97024,16.33119 6.15339,38.47254 -5.81491,70.86446 -4.0714,11.01914 -7.37546,18.65743 -16.23095,37.52243 -10.26888,21.87601 -13.43011,29.26681 -16.29683,38.10122 -3.13604,9.66436 -4.03756,15.36793 -3.78939,23.97413 0.21807,7.56197 1.45553,13.08557 4.77364,21.30777 4.74158,11.74951 9.39783,18.9486 17.864,27.61983 6.01114,6.15673 11.28003,10.57596 17.80271,14.93184 27.1731,18.14638 66.29554,29.57201 108.4614,31.67597 6.48002,0.32332 25.21523,0.0628 32.20368,-0.44777 z M 196.56776,96.342118 c 22.20383,-0.239606 31.27031,-0.55911 44.30889,-1.561451 14.3289,-1.101513 24.63013,-2.788525 25.82596,-4.22941 0.5658,-0.681765 0.19135,-2.510367 -1.35752,-6.629062 C 262.09243,75.272704 256.04714,62.113528 245.24901,40.177748 235.24527,19.855743 233.66125,16.191171 229.87817,4.6177454 225.79111,-7.8856312 223.0445,-20.704052 221.26094,-35.598924 c -0.8614,-7.193845 -1.31482,-22.801271 -0.89696,-30.875141 1.35715,-26.222397 8.14067,-49.344215 19.25828,-65.642405 13.7438,-20.14819 39.02307,-37.86937 71.38662,-50.04323 24.98784,-9.39941 53.52045,-15.62518 84.25762,-18.38486 12.72037,-1.14207 16.51677,-1.27799 35.54572,-1.27274 18.999,0.005 22.48577,0.13194 35.41889,1.28671 45.62337,4.07371 87.42799,16.23232 117.12223,34.06425 15.44343,9.27408 28.96752,21.16944 37.23573,32.75144 9.64703,13.51343 16.17731,31.32467 19.31387,52.678196 1.34282,9.141827 1.4445,10.898548 1.44577,24.976668 0,14.106596 -0.0775,15.397537 -1.57641,25.823335 -1.67222,11.631197 -4.64721,23.3820276 -8.49929,33.5711254 -3.38695,8.9588066 -5.70388,13.4779746 -14.62069,28.5177676 -7.28952,12.295068 -10.40305,17.880641 -13.68662,24.553334 -4.70301,9.557203 -6.29771,14.51105 -6.55388,20.359541 -0.12915,2.948206 -0.0679,3.696857 0.43914,5.366061 2.45705,8.089279 11.37073,11.755205 33.21016,13.658286 3.75615,0.327322 49.31185,0.782659 81.35056,0.813111 l 20.67278,0.01976 V -192.37329 -481.36887 H 418.125 104.16555 l -0.14662,0.91723 c -0.0807,0.50447 -0.20139,27.14272 -0.26834,59.19611 -0.12829,61.43931 -0.13422,61.74296 -1.45558,74.22445 -2.17283,20.52485 -7.045288,31.18284 -18.727793,40.96508 -6.733964,5.63862 -19.168224,13.76115 -27.275481,17.81736 -6.255964,3.12998 -10.282796,4.33364 -15.745179,4.70641 -12.537159,0.85557 -22.475445,-2.01729 -61.016307,-17.63798 -32.396404,-13.13041 -51.416179,-19.56918 -71.551974,-24.22259 -8.068846,-1.86472 -17.372386,-3.28392 -21.527776,-3.28392 -5.60801,0 -15.5746,3.66864 -22.62231,8.32713 -26.03472,17.20878 -46.30034,58.92448 -53.46991,110.0651 -1.90503,13.58866 -2.55166,22.88388 -2.55166,36.68003 0,18.18925 1.05233,30.55307 3.82953,44.99362 8.18643,42.566337 27.81814,71.990715 58.17487,87.193434 27.83177,13.938251 61.691806,13.838062 95.329141,-0.282053 1.86563,-0.783138 7.456029,-3.396855 12.423141,-5.808218 13.8097268,-6.704161 22.61164579,-10.519382 30.7622241,-13.333985 8.4582849,-2.920859 17.9927689,-5.199973 25.4000019,-6.071616 4.845473,-0.570202 14.304039,-0.575931 18.32771,-0.01101 11.355804,1.594048 20.439804,6.173583 28.114697,14.173455 12.55666,13.088339 19.709159,33.51581 22.709295,64.857549 0.74191,7.7505 0.96622,19.560542 0.9735,51.254494 0.004,16.858772 0.0878,31.241522 0.18649,31.961669 l 0.17946,1.309398 34.74554,-0.01665 c 19.11006,-0.0093 45.03254,-0.127705 57.60554,-0.26337 z"
         id="path23"
         inkscape:connector-curvature="0" />
    </g>
  </g>
</svg>
