<svg width="480" height="480" xmlns="http://www.w3.org/2000/svg" xmlns:xlink="http://www.w3.org/1999/xlink" overflow="hidden"><defs><clipPath id="clip0"><rect x="0" y="0" width="480" height="480"/></clipPath></defs><g clip-path="url(#clip0)"><path d="M315.531 180.469C249.257 180.469 195.531 234.195 195.531 300.469 195.531 366.743 249.257 420.469 315.531 420.469 381.805 420.469 435.531 366.743 435.531 300.469 435.531 234.195 381.804 180.469 315.531 180.469ZM315.531 360.469C282.394 360.469 255.531 333.606 255.531 300.469 255.531 267.332 282.394 240.469 315.531 240.469 348.668 240.469 375.531 267.332 375.531 300.469 375.531 333.606 348.668 360.469 315.531 360.469Z" fill="#D2D2D2"/><path d="M103.975 76.346 60.162 120.159C58.988 122.186 57.878 124.239 56.833 126.317L110.133 73.017C108.055 74.062 106.002 75.173 103.975 76.346Z" fill="#E4E4E4"/><path d="M125.876 66.464 50.28 142.06C49.82 143.433 49.379 144.812 48.97 146.198L130.013 65.154C128.627 65.563 127.249 66.004 125.876 66.464Z" fill="#E4E4E4"/><path d="M142.087 62.27 46.087 158.27C45.877 159.404 45.684 160.54 45.507 161.678L145.496 61.689C144.357 61.867 143.221 62.06 142.087 62.27Z" fill="#E4E4E4"/><path d="M155.846 60.529 44.345 172.029C44.277 173.026 44.222 174.024 44.179 175.023L158.84 60.363C157.841 60.406 156.843 60.461 155.846 60.529Z" fill="#E4E4E4"/><path d="M168.073 60.32 44.136 184.256C44.166 185.159 44.206 186.062 44.256 186.964L170.781 60.44C169.878 60.389 168.976 60.35 168.073 60.32Z" fill="#E4E4E4"/><path d="M179.205 61.205 45.021 195.388C45.126 196.219 45.237 197.049 45.36 197.877L181.694 61.544C180.865 61.422 180.035 61.31 179.205 61.205Z" fill="#E4E4E4"/><path d="M189.472 62.955 46.771 205.656C46.937 206.426 47.114 207.193 47.295 207.96L191.775 63.479C191.009 63.298 190.242 63.121 189.472 62.955Z" fill="#E4E4E4"/><path d="M199.014 65.431 49.247 215.198C49.466 215.918 49.686 216.638 49.918 217.355L201.171 66.102C200.454 65.87 199.734 65.649 199.014 65.431Z" fill="#E4E4E4"/><path d="M207.933 68.529 52.345 224.117C52.609 224.791 52.878 225.464 53.156 226.135L209.951 69.34C209.281 69.063 208.608 68.794 207.933 68.529Z" fill="#E4E4E4"/><path d="M216.297 72.183 56 232.481C56.306 233.114 56.618 233.745 56.936 234.373L218.189 73.119C217.561 72.801 216.93 72.489 216.297 72.183Z" fill="#E4E4E4"/><path d="M224.149 76.348 60.165 240.333C60.509 240.928 60.86 241.52 61.215 242.111L225.927 77.399C225.337 77.043 224.745 76.693 224.149 76.348Z" fill="#E4E4E4"/><path d="M231.526 80.99 64.806 247.71C65.187 248.269 65.572 248.827 65.963 249.381L233.197 82.147C232.643 81.755 232.085 81.371 231.526 80.99Z" fill="#E4E4E4"/><path d="M238.451 86.082 69.898 254.635C70.314 255.16 70.73 255.686 71.156 256.205L240.021 87.34C239.501 86.914 238.976 86.498 238.451 86.082Z" fill="#E4E4E4"/><path d="M244.944 91.606 75.422 261.128C75.871 261.62 76.323 262.11 76.782 262.596L246.411 92.966C245.926 92.507 245.436 92.055 244.944 91.606Z" fill="#E4E4E4"/><path d="M251.018 97.55 81.366 267.202C81.85 267.663 82.342 268.112 82.832 268.564L252.38 99.016C251.928 98.526 251.479 98.035 251.018 97.55Z" fill="#E4E4E4"/><path d="M256.663 103.922 87.739 272.847C88.257 273.275 88.778 273.695 89.301 274.113L257.929 105.484C257.512 104.961 257.091 104.44 256.663 103.922Z" fill="#E4E4E4"/><path d="M261.882 110.722 94.538 278.065C95.09 278.458 95.643 278.848 96.2 279.231L263.047 112.384C262.665 111.827 262.275 111.273 261.882 110.722Z" fill="#E4E4E4"/><path d="M266.656 117.965 101.781 282.84C102.369 283.197 102.958 283.553 103.55 283.899L267.715 119.734C267.369 119.141 267.013 118.553 266.656 117.965Z" fill="#E4E4E4"/><path d="M270.962 125.676 109.493 287.146C110.119 287.466 110.746 287.783 111.376 288.091L271.907 127.56C271.599 126.929 271.282 126.302 270.962 125.676Z" fill="#E4E4E4"/><path d="M274.77 133.886 117.703 290.953C118.37 291.232 119.04 291.507 119.711 291.773L275.59 135.894C275.323 135.223 275.049 134.554 274.77 133.886Z" fill="#E4E4E4"/><path d="M278.036 142.637 126.454 294.22C127.168 294.455 127.883 294.681 128.6 294.902L278.718 144.784C278.497 144.067 278.271 143.351 278.036 142.637Z" fill="#E4E4E4"/><path d="M280.701 151.99 135.806 296.885C136.57 297.069 137.336 297.247 138.103 297.416L281.233 154.286C281.063 153.52 280.886 152.754 280.701 151.99Z" fill="#E4E4E4"/><path d="M282.672 162.037 145.854 298.856C146.679 298.982 147.504 299.098 148.331 299.207L283.024 164.514C282.914 163.688 282.798 162.862 282.672 162.037Z" fill="#E4E4E4"/><path d="M283.829 172.898 156.714 300.012C157.611 300.067 158.509 300.112 159.408 300.146L283.963 175.591C283.928 174.693 283.883 173.795 283.829 172.898Z" fill="#E4E4E4"/><path d="M283.819 187.753C283.881 186.761 283.93 185.769 283.967 184.776L168.593 300.151C169.586 300.114 170.578 300.064 171.57 300.003L283.819 187.753Z" fill="#E4E4E4"/><path d="M185.224 298.366 282.183 201.407C282.384 200.281 282.571 199.153 282.739 198.022L181.839 298.922C182.969 298.754 184.097 298.567 185.224 298.366Z" fill="#E4E4E4"/><path d="M201.245 294.362 278.178 217.429C278.616 216.081 279.024 214.725 279.414 213.365L197.182 295.597C198.542 295.209 199.897 294.8 201.245 294.362Z" fill="#E4E4E4"/><path d="M222.586 285.039 268.854 238.771C269.944 236.822 270.971 234.848 271.943 232.854L216.668 288.129C218.663 287.155 220.638 286.128 222.586 285.039Z" fill="#E4E4E4"/><path d="M83.793 420 83.329 420C62.747 420 46.061 403.315 46.061 382.732L46.061 382.268C46.061 361.686 62.746 345 83.329 345L83.793 345C104.375 345 121.061 361.685 121.061 382.268L121.061 382.732C121.061 403.315 104.376 420 83.793 420Z" fill="#6F2F9F"/></g></svg>