<svg width="624" height="624" xmlns="http://www.w3.org/2000/svg" xmlns:xlink="http://www.w3.org/1999/xlink" overflow="hidden"><defs><clipPath id="clip0"><rect x="0" y="0" width="624" height="624"/></clipPath></defs><g clip-path="url(#clip0)"><path d="M315.204 357.524 314.932 357.796 303.017 369.711 298.898 373.83 268.893 374.418 251.248 390.78 223.889 416.149 223.81 416.102 189.479 445.229 187.898 443.648 187.898 443.649 187.897 443.648 178.483 453.061 239.673 514.251 249.086 504.836 247.434 503.184 276.406 469.036 276.419 469.02 276.419 469.02 301.952 441.483 318.314 423.839 318.314 423.839 318.707 393.245 330.698 381.254 334.816 377.135Z" fill="#F1F1F1"/><path d="M263.107 217.798 263.177 217.723 263.396 217.51 263.385 217.499 315.103 161.462C315.103 161.462 315.726 161.657 315.765 161.667 326.08 164.185 335.37 151.356 336.742 142.301 338.424 131.202 346.267 129.514 348.799 129.498 349.268 129.495 349.773 129.269 350.169 128.875 351.034 128.01 350.99 126.773 350.091 126.48 333.982 121.221 299.165 135.279 304.726 151.398 304.739 151.437 304.819 151.629 304.819 151.629L249.03 203.143 249.019 203.132 248.806 203.35 248.73 203.42 248.733 203.425 96.967 359.364C94.2142 362.19 94.2428 366.705 97.034 369.494L97.034 369.494C99.8237 372.284 104.339 372.314 107.164 369.561L263.104 217.794 263.107 217.798Z" fill="#F1F1F1"/><path d="M413.433 191.312 400.302 178.183C398.85 176.73 396.495 176.73 395.044 178.183L364.559 208.657 311.676 265.218 156.109 424.775C153.295 427.664 153.325 432.279 156.177 435.131 159.03 437.982 163.645 438.014 166.534 435.198L325.933 279.473 382.955 227.05 382.949 227.044 413.434 196.57C414.885 195.118 414.885 192.765 413.433 191.312Z" fill="#F1F1F1"/><path d="M349.055 197.559 383.62 156.226C385.267 154.256 385.005 151.326 383.035 149.677L365.229 134.789C363.26 133.141 360.329 133.403 358.682 135.373L324.11 176.701 282.519 235.523 141.74 408.267C139.193 411.395 139.634 415.988 142.728 418.577 145.822 421.164 150.421 420.785 153.048 417.724L297.985 248.455 349.055 197.559Z" fill="#F1F1F1"/><path d="M276.716 456.232 276.671 433.631 246.565 403.972 224.105 403.313 188.354 433.646 186.036 431.328 174.937 442.426 238.857 506.347 249.955 495.247 246.524 491.816Z" fill="#D1D1D1"/><path d="M242.187 414.014C208.599 445.356 207.438 439.728 190.249 435.51 190.228 435.505 190.221 435.514 190.238 435.529L243.881 489.173C243.9 489.192 243.908 489.187 243.899 489.161 239.105 475.245 235.643 470.697 266.014 438.149 266.014 438.149 262.936 427.216 257.715 422.258 252.495 417.299 242.187 414.014 242.187 414.014Z" fill="#E6E6E6"/><path d="M305.477 354.76 293.396 366.839 313.007 386.45 325.088 374.369C325.088 374.369 325.434 367.62 318.744 360.93 312.055 354.24 305.477 354.76 305.477 354.76Z" fill="#E6E6E6"/><path d="M299.195 361.041 319.002 380.455 318.61 411.04C318.61 411.046 318.613 411.048 318.608 411.05 318.399 411.096 303.087 414.33 285.369 396.612 267.654 378.898 269.168 361.871 269.19 361.631 269.19 361.626 269.194 361.629 269.199 361.629L299.195 361.041Z" fill="#D1D1D1"/><path d="M305.468 354.759 311.459 348.768 331.07 368.379 325.079 374.37Z" fill="#D1D1D1"/><path d="M269.197 361.637C269.192 361.633 269.186 361.633 269.181 361.637L224.008 403.525C245.238 417.006 263.235 435.002 276.716 456.232L318.603 411.06C318.608 411.055 318.608 411.049 318.603 411.044L269.197 361.637Z" fill="#FFC000"/><path d="M402.893 174.869C398.88 171.302 390.333 172.193 385.241 173.794 385.239 173.796 385.237 173.796 385.236 173.798L372.841 186.193C372.841 186.193 371.225 195.536 376.875 201.185 382.525 206.835 391.23 204.582 391.23 204.582L407.581 188.232C407.582 188.23 407.584 188.228 407.584 188.226 408.169 184.604 406.466 178.047 402.893 174.869Z" fill="#737373"/><path d="M413.433 177.12 400.302 163.99C398.85 162.539 396.495 162.539 395.044 163.99L385.282 173.751C385.254 173.779 385.243 173.82 385.25 173.857 386.205 178.073 388.654 181.828 394.36 181.828 401.862 181.828 405.681 185.288 407.575 188.218 407.578 188.224 407.586 188.224 407.592 188.219L413.432 182.379C414.885 180.926 414.885 178.571 413.433 177.12Z" fill="#FFC000"/><path d="M382.948 212.853 391.225 204.576 372.836 186.187 364.559 194.464 311.676 251.025C311.676 251.025 308.598 258.682 313.615 263.699 318.633 268.716 325.931 265.279 325.931 265.279L382.948 212.853Z" fill="#D1D1D1"/><path d="M379.639 209.544C380.682 208.501 380.682 206.811 379.639 205.769L371.645 197.775C370.603 196.733 368.912 196.733 367.871 197.775L314.326 253.674C314.326 253.674 311.758 258.869 315.178 262.288 318.597 265.708 323.449 262.798 323.449 262.798L379.639 209.544Z" fill="#E6E6E6"/><path d="M311.676 251.026 325.932 265.282 166.533 421.007C163.643 423.821 159.028 423.791 156.176 420.94 153.324 418.088 153.294 413.473 156.108 410.584L311.676 251.026Z" fill="#2F2F2F"/><path d="M264.581 317.852C264.248 317.852 263.915 317.726 263.661 317.472 263.152 316.963 263.152 316.14 263.661 315.632L310.484 268.809C310.992 268.301 311.815 268.301 312.323 268.809 312.831 269.317 312.831 270.14 312.323 270.648L265.5 317.472C265.247 317.727 264.914 317.852 264.581 317.852Z" fill="#737373"/><path d="M388.881 202.193 397.66 193.414 398.12 193.874 389.341 202.653Z" fill="#505050"/><path d="M387.58 200.892 398.636 189.837 399.095 190.296 388.04 201.352Z" fill="#505050"/><path d="M386.28 199.592 391.157 194.715 391.617 195.174 386.739 200.052Z" fill="#505050"/><path d="M384.87 198.181 386.982 196.069 387.442 196.529 385.329 198.641Z" fill="#505050"/><path d="M383.569 196.881 385.968 194.482 386.427 194.942 384.029 197.34Z" fill="#505050"/><path d="M382.268 195.58 383.807 194.041 384.266 194.501 382.728 196.04Z" fill="#505050"/><path d="M368.326 134.505C362.447 130.41 352.646 132.868 347.565 134.476 347.563 134.477 347.561 134.478 347.559 134.479L333.504 151.289 358.441 172.143 376.982 149.971C376.984 149.969 376.984 149.966 376.984 149.963 376.949 145.43 376.649 140.303 368.326 134.505Z" fill="#737373"/><path d="M383.035 135.487 365.229 120.598C363.26 118.951 360.329 119.213 358.682 121.182L347.602 134.431C347.577 134.461 347.569 134.503 347.58 134.539 349.235 139.688 352.702 144.1 359.813 143.466 369.155 142.633 374.295 146.519 376.977 149.958 376.982 149.963 376.99 149.963 376.994 149.958L383.618 142.035C385.266 140.065 385.004 137.134 383.035 135.487Z" fill="#D1D1D1"/><path d="M358.434 172.137 333.497 151.284 324.111 162.508 282.521 221.33C282.521 221.33 279.682 230.361 285.145 234.71 290.609 239.058 297.985 234.263 297.985 234.263L349.053 183.367 358.434 172.137Z" fill="#D1D1D1"/><path d="M344.56 179.609 344.56 179.609C345.741 178.196 345.554 176.091 344.141 174.909L333.301 165.844C331.887 164.663 329.783 164.85 328.6 166.263L285.394 223.733C285.394 223.733 284.253 229.47 287.487 232.146 290.721 234.822 295.291 232.01 295.291 232.01L344.56 179.609Z" fill="#E6E6E6"/><path d="M282.521 221.33 297.986 234.263 153.049 403.531C150.421 406.591 145.822 406.971 142.728 404.384 139.634 401.796 139.195 397.202 141.74 394.074L282.521 221.33Z" fill="#505050"/><path d="M262.629 266.765C262.335 266.765 262.04 266.665 261.797 266.462 261.245 266.002 261.171 265.182 261.632 264.629L279.246 243.531C279.708 242.981 280.528 242.908 281.078 243.367 281.63 243.827 281.703 244.647 281.243 245.2L263.628 266.298C263.371 266.605 263.001 266.765 262.629 266.765Z" fill="#737373"/><path d="M356.418 170.449 363.589 161.36 364.1 161.762 356.928 170.852Z" fill="#505050"/><path d="M354.85 169.139 359.329 163.462 359.84 163.864 355.361 169.541Z" fill="#505050"/><path d="M353.284 167.829 360.002 159.314 360.512 159.717 353.795 168.231Z" fill="#505050"/><path d="M351.848 166.676 355.925 161.509 356.435 161.912 352.359 167.079Z" fill="#505050"/><path d="M520.65 200.521C517.413 190.071 502.783 192.349 494.76 196.23 493.931 195.406 492.271 193.752 491.443 192.926 494.702 190.402 498.567 187.107 496.17 183.226 501.466 177.983 506.387 172.826 508.71 166.711 512.283 155.951 497.621 147.666 486.314 151.275 485.455 150.481 483.735 148.891 482.877 148.097 491.607 142.105 479.508 137.948 476.085 133.029 474.609 134.625 472.967 136.068 471.121 137.322 469.745 134.614 467.306 131.631 463.928 131.072 463.558 131.442 462.819 132.181 462.819 132.181 461.856 131.51 461.058 130.545 460.301 129.613 453.756 133.756 448.5 139.448 441.331 142.65 448.193 138.883 453.968 134.101 459.585 128.743 456.135 124.161 454.379 128.54 451.431 131.154 445.706 133.567 441.68 138.421 436.369 141.25 432.582 143.38 430.035 146.754 427.489 150.13 424.247 155.026 418.151 157.812 416.478 162.796 415.172 167.412 422.077 172.096 427.107 171.205 427.521 171.619 428.349 172.448 428.762 172.86 426.272 174.262 427.848 175.891 429.702 177.536 419.822 188.681 409.818 199.57 398.77 209.871 410.483 199.891 421.113 189.963 431.114 178.8 431.579 179.234 431.996 179.665 432.292 180.09 433.472 178.911 434.925 178.002 436.842 177.558 427.152 191.712 410.998 198.815 401.614 213.56 400.762 212.772 399.069 211.205 398.201 210.404 392.56 217.829 378.41 221.404 381.025 232.796 400.94 223.198 415.616 206.123 431.735 191.87 425.604 198.502 419.454 206.874 411.601 211.918 400.51 220.161 393.386 230.326 381.814 236.167 383.842 244.03 389.072 252.487 398.637 252.985 399.513 252.037 401.264 250.144 401.264 250.144 401.647 250.368 402.012 250.624 402.369 250.894 388.014 264.371 373.458 277.643 358.164 290.761 374.119 277.831 389.123 265.331 403.736 252.064 404.632 252.921 405.458 253.872 406.257 254.823 390.941 267.919 374.027 278.916 360.397 294.966 359.601 294.121 358.019 292.441 357.209 291.583 347.455 302.403 327.792 309.33 325.956 325.494 355.664 307.005 381.47 282.48 408.294 260.522 397.647 270.349 386.276 282.469 374.049 290.677 356.802 303.429 343.381 318.239 325.729 329.88 325.289 339.152 329.489 349.635 341.828 347.437 342.657 346.57 345.457 343.619 346.112 343.008 348.332 344.055 349.773 346.139 351.135 348.156 374.222 329.738 396.38 308.614 421.414 293.019 396.666 310.022 373.792 329.055 352.436 350.025 356.98 357.188 364.396 351.004 368.467 345.968 388.762 326.472 412.707 310.405 434.834 292.869 448.569 283.369 459.974 271.266 471.364 259.051 487.172 238.569 518.2 225.12 520.65 200.521Z" fill="#FFC000"/><path d="M336.741 128.107C338.423 117.008 346.265 115.32 348.798 115.304 349.266 115.302 349.772 115.075 350.167 114.681 351.032 113.816 350.988 112.579 350.089 112.286 332.004 106.382 290.326 124.827 308.699 143.201 321.48 155.982 335.059 139.207 336.741 128.107Z" fill="#737373"/><path d="M260.726 195.238 310.122 147.514 310.136 142.567 304.811 137.465 248.727 189.228 250.914 197.356Z" fill="#D1D1D1"/><path d="M263.1 203.605 247.179 200.562 310.135 142.566 315.056 147.277 263.11 203.601Z" fill="#E6E6E6"/><path d="M249.016 188.939 263.395 203.318 107.164 355.37C104.337 358.123 99.8237 358.094 97.034 355.303L97.034 355.303C94.2441 352.513 94.2142 347.998 96.967 345.172L249.016 188.939Z" fill="#2F2F2F"/><path d="M196.947 261.273C196.615 261.273 196.282 261.147 196.028 260.893 195.519 260.385 195.519 259.562 196.028 259.054L242.851 212.231C243.359 211.724 244.182 211.724 244.69 212.231 245.198 212.74 245.198 213.563 244.69 214.071L197.867 260.893C197.613 261.147 197.28 261.273 196.947 261.273Z" fill="#737373"/></g></svg>