<svg width="480" height="480" xmlns="http://www.w3.org/2000/svg" xmlns:xlink="http://www.w3.org/1999/xlink" overflow="hidden"><defs><clipPath id="clip0"><rect x="0" y="0" width="480" height="480"/></clipPath></defs><g clip-path="url(#clip0)"><path d="M371.134 170.851C369.784 170.787 368.444 170.768 367.115 170.793 351.492 171.086 338.712 158.861 338.666 143.247 338.666 143.219 338.666 143.162 338.666 143.162L338.664 143.162C338.565 124.578 278.088 109.521 203.497 109.521 128.907 109.521 68.43 124.579 68.33 143.162L68.328 263.266C68.328 337.918 128.845 376.674 203.497 376.674 258.663 376.674 306.105 355.506 327.114 314.33 334.903 299.065 350.473 289.446 367.609 289.626 367.821 289.628 368.034 289.629 368.247 289.629 400.929 289.629 427.448 263.246 427.67 230.617 427.886 198.943 402.775 172.356 371.134 170.851ZM368.248 259.918C352.763 259.918 340.05 248.07 338.666 232.945L338.666 227.466C340.05 212.341 352.762 200.494 368.248 200.494 384.657 200.494 397.96 213.796 397.96 230.206 397.96 246.616 384.657 259.918 368.248 259.918Z" fill="#FFC000"/><path d="M328.654 142.999C328.654 160.226 272.619 174.191 203.497 174.191 134.375 174.191 78.34 160.226 78.34 142.999 78.34 125.772 134.375 111.807 203.497 111.807 272.619 111.807 328.654 125.772 328.654 142.999Z" fill="#505050"/><path d="M281.285 270.42 254.492 270.42 272.159 252.753 269.331 249.925 248.836 270.42 233.06 270.42 254.141 249.339 233.412 249.339 261.09 221.661 258.262 218.833 230.233 246.862 230.233 225.429 209.504 246.158 209.504 231.086 229.999 210.59 227.171 207.762 209.504 225.429 209.504 198.636 205.504 198.636 205.504 225.429 187.837 207.762 185.009 210.59 205.504 231.086 205.504 246.861 184.071 225.428 184.071 246.158 156.745 218.832 153.917 221.66 181.595 249.338 160.16 249.338 181.241 270.419 166.168 270.419 145.673 249.924 142.845 252.752 160.512 270.419 133.718 270.419 133.718 274.419 160.512 274.419 142.845 292.086 145.673 294.914 166.168 274.419 181.241 274.419 160.16 295.5 181.593 295.5 153.915 323.178 156.743 326.006 184.069 298.68 184.069 319.41 205.502 297.977 205.502 313.752 185.007 334.248 187.835 337.076 205.502 319.409 205.502 346.202 209.502 346.202 209.502 319.409 227.169 337.076 229.997 334.248 209.502 313.752 209.502 298.68 230.231 319.409 230.231 297.976 258.26 326.005 261.088 323.177 233.41 295.499 254.139 295.499 233.06 274.42 248.836 274.42 269.331 294.915 272.159 292.087 254.492 274.42 281.285 274.42 281.285 270.42ZM244.485 253.339 227.404 270.42 212.33 270.42 229.411 253.339 244.485 253.339ZM226.232 235.087 226.232 250.863 209.503 267.593 209.503 251.817 226.232 235.087ZM188.07 235.087 205.503 252.52 205.503 267.593 188.07 250.16 188.07 235.087ZM169.817 253.339 185.593 253.339 202.674 270.42 186.898 270.42 169.817 253.339ZM169.817 291.501 186.898 274.42 202.674 274.42 185.593 291.501 169.817 291.501ZM188.07 309.754 188.07 294.681 205.503 277.248 205.503 292.321 188.07 309.754ZM226.232 309.754 209.503 293.025 209.503 277.249 226.232 293.978 226.232 309.754ZM244.485 291.501 229.412 291.501 212.33 274.42 227.403 274.42 244.485 291.501Z" fill="#FFFFFF"/><path d="M182.262 166.434C182.262 167.821 180.576 168.945 178.496 168.945 176.416 168.945 174.73 167.821 174.73 166.434 174.73 165.047 176.416 163.923 178.496 163.923 180.576 163.923 182.262 165.047 182.262 166.434Z" fill="#FFFFFF"/><path d="M202.349 132.956C202.349 134.343 200.663 135.467 198.583 135.467 196.503 135.467 194.817 134.343 194.817 132.956 194.817 131.569 196.503 130.445 198.583 130.445 200.663 130.445 202.349 131.569 202.349 132.956Z" fill="#FFFFFF"/><path d="M105.47 146.347C105.47 148.427 102.941 150.113 99.821 150.113 96.7011 150.113 94.172 148.427 94.172 146.347 94.172 144.267 96.7011 142.581 99.821 142.581 102.941 142.581 105.47 144.267 105.47 146.347Z" fill="#FFFFFF"/><path d="M214.903 165.179C214.903 167.259 212.374 168.945 209.254 168.945 206.134 168.945 203.605 167.259 203.605 165.179 203.605 163.099 206.134 161.413 209.254 161.413 212.374 161.413 214.903 163.099 214.903 165.179Z" fill="#FFFFFF"/><path d="M318.686 142.162C318.686 144.242 316.157 145.928 313.037 145.928 309.917 145.928 307.388 144.242 307.388 142.162 307.388 140.082 309.917 138.396 313.037 138.396 316.157 138.396 318.686 140.082 318.686 142.162Z" fill="#FFFFFF"/><path d="M173.892 160.157C173.892 164.317 168.646 167.69 162.175 167.69 155.704 167.69 150.458 164.317 150.458 160.157 150.458 155.997 155.704 152.624 162.175 152.624 168.646 152.624 173.892 155.997 173.892 160.157Z" fill="#FFFFFF"/><path d="M301.11 137.978C301.11 142.138 295.864 145.511 289.393 145.511 282.922 145.511 277.676 142.138 277.676 137.978 277.676 133.818 282.922 130.445 289.393 130.445 295.864 130.445 301.11 133.818 301.11 137.978Z" fill="#FFFFFF"/><path d="M182.634 147.184C182.638 147.184 182.642 147.181 182.644 147.177 187.422 130.979 185.397 116.262 177.827 113.776 177.457 113.655 146.034 103.447 146.034 103.447 145.967 103.425 145.899 103.409 145.83 103.399 138.072 102.304 127.975 113.628 122.682 129.748 120.663 135.897 119.623 141.896 119.489 147.174 119.489 147.18 119.493 147.184 119.499 147.184L123.011 147.184C123.011 147.184 125.091 145.287 133.891 145.287 142.424 145.287 144.501 147.184 144.501 147.184L182.634 147.184Z" fill="#FFFFFF"/><path d="M145.046 109.828C138.736 107.756 130.003 117.094 125.54 130.686 123.589 136.627 122.777 142.398 123.009 147.185L144.506 147.185C145.987 144.5 147.315 141.471 148.392 138.19 152.854 124.597 151.356 111.9 145.046 109.828Z" fill="#F1F1F1"/><path d="M215.561 158.901C215.556 158.901 215.553 158.898 215.551 158.894 211.242 144.287 213.069 131.016 219.895 128.775 220.218 128.669 246.89 120.005 248.572 119.458 248.633 119.438 248.687 119.426 248.75 119.417 255.746 118.431 264.85 128.642 269.623 143.178 271.443 148.723 272.381 154.132 272.502 158.892 272.502 158.898 272.498 158.902 272.492 158.902L269.326 158.902C269.326 158.902 267.725 157.755 259.825 157.755 251.358 157.755 249.946 158.902 249.946 158.902L215.561 158.901Z" fill="#FFFFFF"/><path d="M249.457 125.214C255.147 123.346 263.023 131.767 267.047 144.023 268.806 149.381 269.538 154.584 269.33 158.901L249.944 158.901C248.609 156.48 247.411 153.748 246.44 150.789 242.415 138.533 243.766 127.083 249.457 125.214Z" fill="#F1F1F1"/></g></svg>