<svg width="480" height="480" xmlns="http://www.w3.org/2000/svg" xmlns:xlink="http://www.w3.org/1999/xlink" overflow="hidden">
  <defs>
    <clipPath id="clip0">
      <rect x="0" y="0" width="480" height="480"/>
    </clipPath>
  </defs>
  <g clip-path="url(#clip0)">
    <path d="M356.083 231.902C356.083 229.195 353.888 227 351.181 227L350.579 227C348.942 227 347.442 227.837 346.504 229.178 341.081 236.928 332.093 242 321.916 242 304.692 242 290.859 227.486 291.979 210.021 292.887 195.874 305.729 183.005 319.875 182.068 330.894 181.339 340.736 186.566 346.518 194.842 347.45 196.176 348.947 197 350.575 197L351.181 197C353.888 197 356.083 194.805 356.083 192.098L356.083 122 285.985 122C283.278 122 281.083 124.195 281.083 126.902L281.083 127.337C281.083 128.974 281.92 130.474 283.261 131.413 291.011 136.836 296.083 145.824 296.083 156.001 296.083 173.223 281.571 187.056 264.107 185.938 249.96 185.032 237.089 172.191 236.15 158.046 235.419 147.026 240.647 137.181 248.924 131.4 250.258 130.468 251.082 128.971 251.082 127.344L251.082 126.904C251.082 124.197 248.887 122.002 246.18 122.002L176.082 122.002 176.082 192.1C176.082 194.808 173.887 197.002 171.18 197.002L170.574 197.002C168.947 197.002 167.449 196.178 166.517 194.844 160.736 186.568 150.893 181.34 139.874 182.07 125.728 183.007 112.887 195.876 111.978 210.023 110.859 227.486 124.693 242 141.917 242 152.094 242 161.082 236.928 166.505 229.178 167.443 227.837 168.943 227 170.58 227L171.182 227C173.889 227 176.084 229.195 176.084 231.902L176.084 302 246.182 302C248.889 302 251.084 304.195 251.084 306.902L251.084 307.342C251.084 308.969 250.26 310.467 248.926 311.398 240.649 317.18 235.421 327.024 236.152 338.044 237.09 352.189 249.961 365.03 264.109 365.936 281.572 367.055 296.085 353.222 296.085 335.999 296.085 325.822 291.013 316.834 283.263 311.411 281.922 310.473 281.085 308.973 281.085 307.335L281.085 306.9C281.085 304.193 283.28 301.998 285.987 301.998L356.086 301.998 356.086 301.998 356.086 301.998 356.086 231.902Z" fill="#FFC000"/>
  </g>
</svg>
